<svg height="48" viewBox="0 0 1024 1024" width="48" xmlns="http://www.w3.org/2000/svg"><path d="m628.589714 442.843429c0-82.285714-42.861714-131.437714-114.870857-131.437715-94.866286 0-196.571429 94.281143-196.571428 246.857143 0 85.138286 42.276571 133.705143 116.553142 133.705143 114.870857 0 194.852571-131.437714 194.852572-249.161143zm322.267429 69.156571c0 177.700571-126.866286 244.553143-235.446857 247.990857-7.424 0-10.276571.585143-18.285715.585143-35.437714 0-63.414857-10.276571-81.152-30.281143-10.861714-12.580571-17.152-28.562286-18.870857-47.433143-35.437714 44.580571-97.133714 87.990857-174.299428 87.990857-122.843429 0-193.133714-75.995429-193.133715-208.566857 0-182.272 126.281143-330.276571 280.576-330.276571 66.852571 0 120.576 28.562286 149.138286 77.129143l1.133714-10.861715 6.290286-32c.585143-4.571429 4.571429-10.276571 8.557714-10.276571h67.437715c2.852571 0 5.705143 3.986286 7.424 6.290286 1.718857 1.718857 2.304 6.290286 1.718857 9.142857l-68.571429 350.866286a126.464 126.464 0 0 0 -2.852571 27.428571c0 30.866286 9.142857 37.156571 32.585143 37.156571 38.838857-1.133714 164.571429-17.152 164.571428-174.848 0-222.281143-143.433143-365.714286-365.714285-365.714285-201.728 0-365.714286 163.986286-365.714286 365.714285s163.986286 365.714286 365.714286 365.714286a367.177143 367.177143 0 0 0 231.424-82.285714 17.664 17.664 0 0 1 25.709714 2.304l23.442286 28.013714a19.419429 19.419429 0 0 1 3.986285 13.714286 20.004571 20.004571 0 0 1 -6.838857 12.580571 441.161143 441.161143 0 0 1 -277.723428 98.852572c-241.700571 0-438.857143-197.156571-438.857143-438.857143s197.156571-438.857143 438.857143-438.857143c262.290286 0 438.857143 176.566857 438.857142 438.857143z" fill="#515151"/></svg>