<svg height="48" viewBox="0 0 1097 1024" width="51.421875" xmlns="http://www.w3.org/2000/svg"><path d="m60.964571 0h975.213715c33.645714 0 60.964571 27.794286 60.964571 62.061714v744.740572c0 34.267429-27.282286 62.061714-60.964571 62.061714h-975.213715c-33.645714 0-60.964571-27.794286-60.964571-62.061714v-744.740572c0-34.267428 27.282286-62.061714 60.964571-62.061714zm43.885715 68.717714c-17.517714 0-31.707429 14.884571-31.707429 33.243429v664.941714c0 18.358857 14.189714 33.243429 31.707429 33.243429h887.442285c17.517714 0 31.707429-14.884571 31.707429-33.28v-664.868572c0-18.358857-14.189714-33.28-31.707429-33.28zm62.756571 882.139429h761.929143c25.234286 0 45.714286 16.384 45.714286 36.571428s-20.48 36.571429-45.714286 36.571429h-761.929143c-25.234286 0-45.714286-16.384-45.714286-36.571429s20.48-36.571429 45.714286-36.571428zm30.500572-426.605714c16.822857 61.037714 61.074286 91.538286 132.754285 91.538285 84.077714-2.267429 127.232-42.386286 129.462857-120.32-3.364571-71.204571-40.923429-108.507429-112.64-111.908571-26.88 0-50.432 7.350857-70.582857 22.052571l8.411429-88.137143h156.342857v-59.282285h-216.868571l-13.458286 199.972571 58.843428 1.718857c12.324571-15.835429 31.926857-24.283429 58.806858-25.417143 39.241143 1.097143 59.392 23.149714 60.525714 66.084572-2.230857 39.570286-21.869714 61.037714-58.843429 64.438857-33.645714 0-54.345143-19.236571-62.171428-57.673143l-70.582857 16.969143zm581.595428 105.142857h60.525714v-194.925715h58.806858v-57.636571h-178.176v-62.756571c38.107429-2.267429 93.586286-7.314286 166.4-15.250286l-21.833143-59.318857a283.501714 283.501714 0 0 1 -23.552 3.401143c-76.178286 10.166857-136.155429 15.798857-179.858286 16.932571v145.773714c0 49.737143-2.779429 87.04-8.411429 111.872-4.461714 24.868571-15.104 49.700571-31.890285 74.605715 16.896 14.518857 33.718857 29.220571 50.395428 44.032 32.548571-47.469714 48.749714-114.688 48.749715-201.691429h58.843428v194.925714zm-282.404571-269.531429h45.385143v66.121143l-52.114286 8.484571 3.364571 66.084572 48.749715-10.166857v69.485714c1.097143 13.568-3.913143 19.785143-15.140572 18.651429h-30.244571l6.729143 33.901714c1.097143 9.033143 2.230857 15.835429 3.364571 20.333714 25.782857 0 42.020571-.548571 48.749714-1.682286 32.475429-2.267429 48.201143-19.2 47.067429-50.834285v-101.705143l40.338286-8.484572v-59.355428l-40.338286 6.802286v-57.673143h42.020571v-55.917715h-42.057143v-71.168h-60.452571v71.168h-45.385143v55.954286z" fill="#474e62"/></svg>