<svg height="48" viewBox="0 0 1024 1024" width="48" xmlns="http://www.w3.org/2000/svg"><g fill="#515151"><path d="m822.185081 512.022872c0 171.317899-138.878601 310.1965-310.196499 310.1965s-310.150779-138.890032-310.150779-310.1965z"/><path d="m511.988582 1023.99912a508.798614 508.798614 0 0 1 -199.276505-40.246219 510.250267 510.250267 0 0 1 -162.733715-109.73124 510.238836 510.238836 0 0 1 -109.73124-162.733715 508.787184 508.787184 0 0 1 -40.246218-199.287935 508.787184 508.787184 0 0 1 40.246218-199.287934 510.238836 510.238836 0 0 1 109.73124-162.733715 510.238836 510.238836 0 0 1 162.733715-109.731241 508.787184 508.787184 0 0 1 199.287935-40.246218 508.787184 508.787184 0 0 1 199.287935 40.280509 510.238836 510.238836 0 0 1 162.733715 109.731241 510.238836 510.238836 0 0 1 109.73124 162.733715 508.787184 508.787184 0 0 1 40.246218 199.287934 508.787184 508.787184 0 0 1 -40.32623 199.276505 510.238836 510.238836 0 0 1 -109.73124 162.733715 510.250267 510.250267 0 0 1 -162.733716 109.73124 508.798614 508.798614 0 0 1 -199.219352 40.223358zm0-983.946314a469.009609 469.009609 0 0 0 -183.708385 37.080015 470.426971 470.426971 0 0 0 -150.02318 101.158487 470.426971 470.426971 0 0 0 -101.158487 150.02318 468.998179 468.998179 0 0 0 -37.080015 183.708384 468.998179 468.998179 0 0 0 37.080015 183.696954 470.415541 470.415541 0 0 0 101.158487 150.02318 470.426971 470.426971 0 0 0 150.02318 101.158487 469.009609 469.009609 0 0 0 183.708385 37.091446 469.009609 469.009609 0 0 0 183.708384-37.080015 470.426971 470.426971 0 0 0 150.02318-101.158487 470.415541 470.415541 0 0 0 101.158487-150.02318 468.998179 468.998179 0 0 0 37.080015-183.708385 468.998179 468.998179 0 0 0 -37.080015-183.708384 470.426971 470.426971 0 0 0 -101.158487-150.02318 470.426971 470.426971 0 0 0 -150.02318-101.158487 469.009609 469.009609 0 0 0 -183.708384-37.091446z"/><path d="m246.07321 381.797037a73.257033 61.918138 90 1 0 123.836276 0 73.257033 61.918138 90 1 0 -123.836276 0z"/><path d="m656.422327 381.797037a73.257033 61.918138 90 1 0 123.836276 0 73.257033 61.918138 90 1 0 -123.836276 0z"/></g></svg>