<svg height="200" viewBox="0 0 1024 1024" width="200" xmlns="http://www.w3.org/2000/svg"><g fill="#f9ba52"><path d="m509.805714 963.291429c-33.645714 0-66.56-11.702857-92.16-33.645715l-2.194285-2.194285-2.194286-2.194286-375.222857-394.971429-2.194286-3.657143c-22.674286-40.228571-22.674286-89.965714 0-130.194285l2.194286-3.657143 182.857143-258.194286c23.405714-39.497143 65.828571-63.634286 111.177142-63.634286h367.908572c45.348571 0 87.771429 24.137143 111.177143 63.634286l183.588571 259.657143.731429 2.194286c22.674286 40.228571 22.674286 89.965714 0 130.194285l-2.194286 4.388572-390.582857 397.897143-2.194286 2.194285c-25.6 20.48-57.782857 32.182857-90.697143 32.182858zm-33.645714-99.474286c9.508571 7.314286 21.211429 11.702857 33.645714 11.702857 11.702857 0 23.405714-3.657143 32.914286-10.971429l378.88-384.731428c5.851429-12.434286 5.12-26.331429-.731429-38.765714l-183.588571-259.657143-.731429-2.194286c-7.314286-13.165714-21.211429-21.211429-35.84-21.211429h-368.64c-14.628571 0-28.525714 8.045714-35.84 21.211429l-2.194285 3.657143-182.857143 258.194286c-5.851429 11.702857-6.582857 26.331429-.731429 38.765714z"/><path d="m504.685714 746.057143h-1.462857c-11.702857 0-23.405714-5.851429-31.451428-14.628572l-190.171429-195.291428c-16.091429-18.285714-14.628571-45.348571 2.925714-62.171429 18.285714-16.091429 45.348571-14.628571 62.171429 2.925715l159.451428 160.914285 174.08-154.331428c17.554286-16.822857 45.348571-16.822857 62.171429.731428s16.822857 45.348571-.731429 62.171429l-206.262857 187.977143c-8.045714 7.314286-19.017143 11.702857-30.72 11.702857z"/></g></svg>