<svg height="200" viewBox="0 0 1024 1024" width="200" xmlns="http://www.w3.org/2000/svg"><path d="m207.976 0h608.016a96 96 0 0 1 95.984 95.984v832.016a96 96 0 0 1 -95.984 96h-608.016a96 96 0 0 1 -96-96v-832.016a96 96 0 0 1 96-95.984z" fill="#ff8c29"/><path d="m285.112 109.84h453.728a64 64 0 0 1 64 64v530.16a64 64 0 0 1 -64 63.984h-453.728a64 64 0 0 1 -64-63.984v-530.16a64 64 0 0 1 64-64z" fill="#ffca22"/><path d="m511.976 841.552a54.384 54.384 0 0 1 54.336 54.448 54.4 54.4 0 0 1 -54.336 54.448 54.368 54.368 0 0 1 -54.304-54.448 54.368 54.368 0 0 1 54.304-54.448z" fill="#fff"/></svg>