<svg height="200" viewBox="0 0 1024 1024" width="200" xmlns="http://www.w3.org/2000/svg"><path d="m512 0a512 512 0 1 1 0 1024 512 512 0 0 1 0-1024zm0 64a448 448 0 1 0 0 896 448 448 0 0 0 0-896z"/><path d="m746.88 604.928 7.68-56.192h-23.616l31.936-223.104h-117.632l5.888-37.632h-105.856l14.208 10.432-4.096 27.2h-30.72l5.888-37.632h-105.856l14.208 10.432-4.16 27.2h-118.272l-31.872 223.104h-23.04l-7.68 56.192h493.056zm-327.424-173.248h-30.72l7.68-52.16h30.72zm120.576 0h-30.72l7.68-52.16h30.72zm120.064 0h-30.336l7.68-52.16h30.208l-7.68 52.16zm-136.64 117.056h-30.72l8.256-59.712h30.72l-8.32 59.712zm-120.64 0h-30.72l8.832-59.712h30.144zm240.64 0h-30.144l8.32-59.712h30.08l-8.32 59.712zm67.968 155.264-53.184-89.216h-118.848l53.76 89.216zm-344.64 0 70.336-89.216h-117.632l-68.608 89.216h115.84z"/></svg>