<svg height="48" viewBox="0 0 1024 1024" width="48" xmlns="http://www.w3.org/2000/svg"><path d="m933.809231 392.428308 60.297846 50.648615a59.076923 59.076923 0 0 1 7.286154 83.219692l-344.615385 410.781539a29.538462 29.538462 0 0 1 -12.209231 8.625231l-140.288 52.972307a19.692308 19.692308 0 0 1 -26.466461-21.188923l21.937231-152.772923a29.538462 29.538462 0 0 1 6.57723-14.769231l344.221539-410.230153a59.076923 59.076923 0 0 1 83.219692-7.286154zm-579.347693 562.648615a29.538462 29.538462 0 1 1 0 59.076923h-157.538461a187.076923 187.076923 0 0 1 -187.076923-187.076923v-630.153846a187.076923 187.076923 0 0 1 187.076923-187.076923h472.615385a187.076923 187.076923 0 0 1 187.076923 187.076923v133.316923a29.538462 29.538462 0 1 1 -59.076923 0v-133.316923a128 128 0 0 0 -128-128h-472.615385a128 128 0 0 0 -128 128v630.153846a128 128 0 0 0 128 128zm-128-718.769231h413.538462a29.538462 29.538462 0 1 1 0 59.076923h-413.538462a29.538462 29.538462 0 0 1 0-59.076923zm0 196.923077h334.769231a29.538462 29.538462 0 1 1 0 59.076923h-334.769231a29.538462 29.538462 0 1 1 0-59.076923zm0 196.923077h216.615385a29.538462 29.538462 0 1 1 0 59.076923h-216.615385a29.538462 29.538462 0 1 1 0-59.076923z" fill="#d4237a"/></svg>