<svg height="200" viewBox="0 0 1024 1024" width="200" xmlns="http://www.w3.org/2000/svg"><path d="m0 512a512 512 0 1 0 1024 0 512 512 0 1 0 -1024 0z" fill="#00a0f0"/><g fill="#fff"><path d="m643.2 726.784c-91.392 62.72-224.896 50.176-305.536-27.776-57.344-55.552-87.808-123.648-80.64-204.288 8.064-96.768 55.552-170.24 143.36-212.352s173.824-33.152 254.464 22.4c36.736 25.088 63.616 58.24 82.432 99.456 5.376 11.648 3.584 18.816-8.064 25.088a16634.464 16634.464 0 0 0 -213.248 125.44c-24.192 14.336-46.592 8.96-58.24-12.544-10.752-19.712-7.168-38.528 12.544-51.072 35.84-22.4 72.576-43.904 109.312-65.408 13.44-8.064 26.88-15.232 39.424-23.296 15.232-8.96 15.232-14.336 1.792-25.984-25.088-21.504-54.656-35.84-87.808-39.424-66.304-8.064-122.752 13.44-163.072 67.2-42.112 56.448-47.488 120.064-17.92 184.576 26.88 58.24 88.704 101.248 159.488 97.664 27.776 1.792 55.552-6.272 81.536-18.816 27.776-13.44 43.904-8.064 60.032 18.816 14.336 24.192 14.336 24.192-9.856 40.32z"/><path d="m744.448 594.176c-9.856 6.272-19.712 12.544-30.464 18.816-7.168 4.48-11.648 2.688-15.232-4.48-8.96-16.128-18.816-31.36-27.776-46.592-4.48-6.272-2.688-11.648 4.48-15.232a1398.72 1398.72 0 0 0 50.176-27.776c4.48-2.688 8.96-4.48 11.648.896 8.96 16.128 19.712 31.36 20.608 49.28 0 10.752-4.48 18.816-13.44 25.088z"/></g></svg>