<svg t="1685519609107" class="icon" viewBox="0 0 1024 1024" version="1.1" xmlns="http://www.w3.org/2000/svg" p-id="5077" width="200" height="200"><path d="M616.58230342 877.23240853c7.68821241-63.65387801 63.65387801-34.71001828 63.65387654-34.71001975 19.33359349-36.63207212 48.27745174-34.71001828 48.27745322-34.71001829 40.47617831 0 52.12155795 54.04361178 52.12155795 54.04361178 46.35539938-34.71001828 69.42003657 15.48948731 69.42003657 15.4894873H616.58230342z m-19.22053245 17.41153966h273.94910406s-7.68821241-81.06541767-82.9874715-57.88771798c0 0-40.47617831-90.67568389-113.85338212-17.41153966 0 0-82.98747003-25.09975205-77.10825044 75.29925764z m0 0M107.57740731 191.62474795c7.68821241-63.65387801 63.65387801-34.71001828 63.653878-34.71001829 19.33359349-36.63207212 48.27745174-34.71001828 48.27745176-34.71001829 40.47617831 0 52.12155795 54.04361178 52.12155943 54.0436118 46.35539938-34.71001828 69.42003657 15.48948731 69.42003655 15.48948583H107.57740731z m-19.22053099 17.29847862h273.94910259s-7.68821241-81.06541767-82.98747004-57.88771945c0 0-40.47617831-90.67568389-113.85338359-17.41153966 0 0.11306252-82.98747003-24.98669102-77.10824896 75.29925911z m0 0" p-id="5078"></path><path d="M224.25733892 607.35353569c-7.80127491 0-15.60254834-5.20084896-20.91645979-15.60254981-7.80127491-28.7177347-13.00212387-57.43547089-13.00212535-88.75363006 0-172.19334867 146.9805341-313.1815992 313.18160067-313.1815992 28.7177347 0 57.43547089 5.20084896 88.75363006 13.00212385 13.00212387 5.20084896 15.60254834 15.60254834 13.00212387 26.11731024-5.20084896 13.00212387-15.60254834 15.60254834-26.11731024 13.00212386-26.11731023-7.80127491-48.39051425-10.74088545-74.50782447-10.74088544-124.2550815 0-272.47929733 114.75787779-272.47929732 269.08743968 0 26.11731023 5.20084896 49.52113347 13.00212385 75.63844371 5.20084896 13.00212387-5.20084896 20.91646127-13.00212385 26.11731024-2.60042447 5.31391146-7.91433595 5.31391146-7.91433743 5.31391293M480.00346869 779.65994539h26.11731023c151.38994991 0 271.34867812-120.07179073 271.34867813-271.34867811v-26.11731024l13.00212386-78.23886817c7.80127491 0 15.60254834 7.80127491 15.60254981 15.60254835 7.80127491 28.7177347 13.00212387 57.43547089 13.00212385 88.75363006 0 172.19334867-140.87518948 313.1815992-313.1815992 313.18159918-28.7177347 0-57.43547089-5.20084896-88.75363153-13.00212386-7.80127491-5.20084896-13.00212387-7.80127491-15.60254833-15.60254835l78.46499318-13.22824886z m0 0" p-id="5079"></path><path d="M263.60289803 864.00415965c-33.91858514 0-62.63631984-7.80127491-78.23886966-28.71773471-47.0337715-47.0337715-36.63207212-138.27476354 26.0042492-255.74612977 5.20084896-7.80127491 13.00212387-13.00212387 20.91645982-13.00212386 7.80127491 0 15.60254834 7.80127491 15.60254978 15.60254834 26.11731023 88.75363006 96.55490497 159.1912248 182.7081091 182.70811054 7.80127491 5.20084896 13.00212387 7.80127491 15.60254981 15.60254982 0 7.80127491-5.20084896 15.60254834-13.00212533 20.9164598-65.23674432 41.71985856-125.27263967 62.63631984-169.59292272 62.63631984m-40.81536438-223.86265953c-33.91858514 75.6384437-36.5190096 138.27476354-13.00212385 161.79164929 26.11731023 26.11731023 88.75363006 20.91646127 161.79164928-13.00212385-65.23674432-31.31816066-114.87094029-80.95235516-148.78952543-148.78952544m568.13629582-194.91879979c-13.00212387 0-15.60254834-7.80127491-20.91646127-15.6025498-26.11731023-88.75363006-102.20800249-163.60064062-188.36120809-187.11752636-7.80127491-5.20084896-7.34902633-3.3918591-9.94945081-11.19313253 0-7.80127491 5.20084896-15.60254834 13.00212386-20.9164598 112.1574533-62.63631984 208.71235827-70.43759474 255.74612978-26.11731023 46.92070898 46.92070898 34.48389474 138.38782604-28.15242509 255.85919082-7.68821241-0.11306252-13.45437242 5.08778791-21.36870838 5.0877879M640.32531271 222.71678359c67.83717027 28.7177347 120.07179073 83.55278112 151.3899499 151.3899499 33.91858514-75.6384437 36.5190096-138.27476354 13.00212388-161.79164927-31.31816066-26.11731023-88.75363006-23.51688575-164.39207378 10.40169937" p-id="5080"></path><path d="M807.31781097 415.03515889v15.60254981c-36.5190096 70.43759474-96.55490497 140.87518948-161.7916493 208.71235828-67.83717027 67.83717027-138.27476354 120.07179073-208.71235828 161.79164929-5.20084896 0-7.80127491 5.20084896-7.80127342 5.20084895H423.81167953l5.20085044-41.71985855C491.6488498 728.10369705 559.48601859 675.8690766 622.12233843 613.23275675c62.63631984-62.63631984 112.1574533-130.4734901 151.3899499-193.10980993l33.80552264-5.08778793z m0 0" p-id="5081"></path></svg>