<svg height="48" viewBox="0 0 1024 1024" width="48" xmlns="http://www.w3.org/2000/svg"><path d="m446.577778 897.820444v-138.581333l117.077333 62.350222z" fill="#a3a3a3"/><path d="m235.178667 648.874667 514.389333 277.845333 84.764444-618.951111z" fill="#a3a3a3"/><path d="m288.995556 541.240889 514.389333 277.959111 84.764444-618.951111z" fill="#ffd44d"/><g fill="#231b3b"><path d="m300.942222 439.296c-1.820444-1.820444-4.437333-2.844444-7.168-2.844444 1.365333 0 2.730667.227556 3.982222.682666 1.251556.568889 2.275556 1.251556 3.185778 2.161778zm3.185778 7.168c0 1.365333-.227556 2.730667-.682667 3.982222.341333-1.251556.682667-2.616889.682667-3.982222zm-120.149333 103.424c.113778 5.575111 4.664889 10.012444 10.353777 10.012444 5.575111-.113778 10.126222-4.664889 10.012445-10.353777-.113778-5.575111-4.664889-10.126222-10.353778-10.012445-5.575111.113778-10.012444 4.778667-10.012444 10.353778zm51.541333 49.834667c.113778 5.575111 4.664889 10.012444 10.353778 10.012444 5.575111-.113778 10.012444-4.664889 10.012444-10.353778-.113778-5.575111-4.664889-10.126222-10.353778-10.012444-5.575111.227556-10.012444 4.778667-10.012444 10.353778zm-1.592889-101.376c.113778 5.575111 4.664889 10.126222 10.353778 10.012444 5.575111-.113778 10.012444-4.664889 10.012444-10.353778-.113778-5.575111-4.664889-10.126222-10.353777-10.012444-5.688889.113778-10.126222 4.778667-10.012445 10.353778zm73.500445 150.983111c0-2.844444-1.251556-5.347556-3.072-7.168 1.820444 1.820444 2.958222 4.323556 3.072 7.168zm-3.299556-202.865778c0-1.365333-.341333-2.730667-.910222-3.982222.568889 1.251556.796444 2.503111.910222 3.982222z"/><path d="m300.942222 439.296c.910222.910222 1.706667 1.934222 2.275556 3.185778s.796444 2.503111.910222 3.982222c0 1.365333-.227556 2.730667-.682667 3.982222.455111-1.251556.796444-2.616889.682667-3.982222 0-1.365333-.341333-2.730667-.910222-3.982222-.568889-1.137778-1.251556-2.275556-2.275556-3.185778-.910222-.910222-2.048-1.592889-3.299555-2.161778 1.251556.568889 2.389333 1.251556 3.299555 2.161778zm140.856889 359.992889c.113778 5.575111 4.664889 10.012444 10.353778 10.012444 5.575111-.113778 10.012444-4.664889 10.012444-10.353777-.113778-5.575111-4.664889-10.126222-10.353777-10.012445-5.688889.113778-10.126222 4.778667-10.012445 10.353778zm-1.706667-101.376c.113778 5.575111 4.664889 10.126222 10.353778 10.012444 5.575111-.113778 10.012444-4.664889 10.012445-10.353777-.113778-5.575111-4.664889-10.126222-10.353778-10.012445-5.575111.113778-10.126222 4.664889-10.012445 10.353778zm63.829334-261.916445c-1.820444-1.820444-4.437333-2.844444-7.168-2.844444 1.365333 0 2.730667.227556 3.982222.682667 1.137778.568889 2.161778 1.251556 3.185778 2.161777zm4.664889 108.544c.113778 5.575111-4.323556 10.24-10.012445 10.353778 5.688889-.113778 10.126222-4.778667 10.012445-10.353778-.113778-5.575111-4.664889-10.126222-10.353778-10.012444 5.688889 0 10.24 4.437333 10.353778 10.012444zm-113.322667-109.681777c2.844444 0 5.347556 1.024 7.281778 2.844444-1.934222-1.820444-4.551111-2.958222-7.281778-2.844444-2.844444 0-5.347556 1.251556-7.168 3.072 1.820444-1.934222 4.323556-3.072 7.168-3.072zm-10.012444 10.24c0 1.365333.341333 2.730667.910222 3.982222-.568889-1.251556-.910222-2.616889-.910222-3.982222zm1.592888 101.489777c.113778 5.575111 4.664889 10.012444 10.353778 10.012445 5.575111-.113778 10.126222-4.664889 10.012445-10.353778-.113778-5.575111-4.664889-10.126222-10.353778-10.012444-5.575111.113778-10.012444 4.664889-10.012445 10.353777zm51.655112 49.834667c.113778 5.575111 4.664889 10.012444 10.353777 10.012445 5.575111-.113778 10.012444-4.664889 10.012445-10.353778-.113778-5.575111-4.664889-10.126222-10.353778-10.012445-5.688889.113778-10.126222 4.778667-10.012444 10.353778zm-1.706667-101.376c.113778 5.575111 4.664889 10.126222 10.353778 10.012445 5.575111-.113778 10.012444-4.664889 10.012444-10.353778-.113778-5.575111-4.664889-10.126222-10.353778-10.012445-5.688889.113778-10.126222 4.664889-10.012444 10.353778zm73.500444 150.983111c0-2.844444-1.251556-5.347556-3.072-7.168 1.820444 1.820444 2.958222 4.323556 3.072 7.168z"/><path d="m510.293333 646.030222c0 1.365333-.227556 2.730667-.682666 3.982222.455111-1.251556.682667-2.616889.682666-3.982222 0-2.844444-1.251556-5.347556-3.072-7.168s-4.437333-2.844444-7.168-2.844444c2.844444 0 5.347556 1.024 7.168 2.844444s2.958222 4.323556 3.072 7.168zm-226.531555-199.224889c0 1.365333.341333 2.730667.910222 3.982223-.568889-1.251556-.910222-2.616889-.910222-3.982223zm2.844444-7.281777c.910222-.910222 1.934222-1.706667 3.185778-2.275556s2.503111-.796444 3.982222-.910222c-2.844444.227556-5.347556 1.365333-7.168 3.185778z"/><path d="m293.774222 436.451556c-1.365333 0-2.730667.341333-3.982222.910222 1.251556-.568889 2.616889-.910222 3.982222-.910222zm10.353778 10.012444c0 1.365333-.227556 2.730667-.682667 3.982222.341333-1.251556.682667-2.616889.682667-3.982222zm-6.371556-9.216c-1.251556-.455111-2.503111-.796444-3.982222-.682667 2.844444 0 5.347556 1.024 7.168 2.844445-.910222-1.024-2.048-1.706667-3.185778-2.161778zm29.127112 100.807111c.113778 5.575111 4.664889 10.012444 10.353777 10.012445 5.575111-.113778 10.012444-4.664889 10.012445-10.353778-.113778-5.575111-4.664889-10.126222-10.353778-10.012445-5.688889.113778-10.126222 4.778667-10.012444 10.353778zm-22.528 104.106667c1.820444 1.820444 3.072 4.323556 3.072 7.168-.113778-2.844444-1.251556-5.347556-3.072-7.168zm200.931555-300.487111c.113778 5.575111-4.323556 10.24-10.012444 10.353777 5.688889-.113778 10.126222-4.778667 10.012444-10.353777-.113778-5.575111-4.664889-10.126222-10.353778-10.012445 5.688889 0 10.24 4.437333 10.353778 10.012445zm-70.200889 51.882666c.113778 5.575111 4.664889 10.012444 10.353778 10.012445 5.575111-.113778 10.012444-4.664889 10.012444-10.353778-.113778-5.575111-4.664889-10.126222-10.353777-10.012444-5.575111.113778-10.126222 4.778667-10.012445 10.353777zm71.907556 49.607111c0-1.365333-.341333-2.730667-.910222-3.982222.568889 1.251556.796444 2.503111.910222 3.982222zm-3.072-7.168c.910222.910222 1.706667 1.934222 2.275555 3.185778.568889 1.251556.796444 2.503111.910223 3.982222 0 1.365333-.227556 2.730667-.682667 3.982223.455111-1.251556.796444-2.616889.682667-3.982223 0-1.365333-.341333-2.730667-.910223-3.982222-.682667-1.251556-1.365333-2.275556-2.275555-3.185778s-2.048-1.592889-3.299556-2.161777c1.251556.568889 2.275556 1.251556 3.299556 2.161777zm-98.417778 8.760889c0-1.365333-.341333-2.730667-.910222-3.982222.568889 1.251556.910222 2.616889.910222 3.982222zm-121.742222 2.048c0-1.365333.227556-2.730667.682666-3.982222-.455111 1.251556-.682667 2.503111-.682666 3.982222zm20.366222-.341333c0-1.365333-.341333-2.730667-.910222-3.982222.568889 1.251556.796444 2.503111.910222 3.982222z"/><path d="m284.672 450.673778c-.568889-1.251556-.796444-2.503111-.910222-3.982222 0-1.365333.227556-2.730667.682666-3.982223.455111-1.251556 1.251556-2.275556 2.161778-3.299555.910222-.910222 1.934222-1.706667 3.185778-2.275556-1.251556.568889-2.275556 1.251556-3.185778 2.275556-.910222.910222-1.592889 2.048-2.161778 3.299555-.455111 1.251556-.796444 2.503111-.682666 3.982223 0 1.479111.341333 2.844444.910222 3.982222 1.592889 3.640889 5.233778 6.144 9.443556 6.030222-4.209778.113778-7.850667-2.389333-9.443556-6.030222z"/><path d="m293.774222 436.451556c-1.365333 0-2.730667.341333-3.982222.910222s-2.275556 1.251556-3.185778 2.275555c1.820444-1.934222 4.323556-3.072 7.168-3.185777zm-9.102222 14.222222c-.568889-1.251556-.796444-2.503111-.910222-3.982222.113778 1.479111.341333 2.844444.910222 3.982222z"/><path d="m283.761778 446.805333c0-1.365333.227556-2.730667.682666-3.982222-.455111 1.251556-.682667 2.503111-.682666 3.982222z"/><path d="m303.331556 450.446222c.455111-1.251556.796444-2.616889.682666-3.982222 0-1.365333-.341333-2.730667-.910222-3.982222s-1.251556-2.275556-2.275556-3.185778c-1.820444-1.820444-4.437333-2.844444-7.168-2.844444-2.844444 0-5.347556 1.251556-7.168 3.072-.910222.910222-1.592889 2.048-2.161777 3.299555-.455111 1.251556-.796444 2.503111-.682667 3.982222 0 1.365333.341333 2.730667.910222 3.982223 1.592889 3.640889 5.233778 6.144 9.443556 6.030222 4.323556-.113778 7.850667-2.730667 9.329778-6.371556zm308.451555 193.877334c0 1.365333-.227556 2.730667-.682667 3.982222.341333-1.251556.682667-2.616889.682667-3.982222zm-20.366222.341333c0 1.365333.341333 2.730667.910222 3.982222-.568889-1.251556-.910222-2.616889-.910222-3.982222zm1.706667 101.489778c.113778 5.575111 4.664889 10.012444 10.353777 10.012444 5.575111-.113778 10.126222-4.664889 10.012445-10.353778-.113778-5.575111-4.664889-10.126222-10.353778-10.012444s-10.126222 4.664889-10.012444 10.353778zm-103.082667-99.783111c0 1.365333.341333 2.730667.910222 3.982222-.568889-1.251556-.910222-2.616889-.910222-3.982222zm108.088889-214.926223c2.844444 0 5.347556 1.024 7.281778 2.844445-1.934222-1.706667-4.551111-2.844444-7.281778-2.844445-2.844444 0-5.347556 1.251556-7.168 3.072 1.820444-1.820444 4.323556-2.958222 7.168-3.072zm-10.012445 10.353778c0 1.365333.341333 2.730667.910223 3.982222-.568889-1.251556-.910222-2.616889-.910223-3.982222zm20.252445-.341333c0 1.365333-.227556 2.730667-.682667 3.982222.455111-1.251556.796444-2.616889.682667-3.982222zm-18.545778 101.717333c.113778 5.575111 4.664889 10.012444 10.353778 10.012445 5.575111-.113778 10.126222-4.664889 10.012444-10.353778-.113778-5.575111-4.664889-10.126222-10.353778-10.012445-5.688889.227556-10.126222 4.778667-10.012444 10.353778zm-49.948444 51.655111c.113778 5.575111 4.664889 10.012444 10.353777 10.012445 5.575111-.113778 10.012444-4.664889 10.012445-10.353778-.113778-5.575111-4.664889-10.126222-10.353778-10.012445-5.688889.113778-10.126222 4.664889-10.012444 10.353778zm-1.706667-101.489778c.113778 5.575111 4.664889 10.126222 10.353778 10.012445 5.575111-.113778 10.012444-4.664889 10.012444-10.353778-.113778-5.575111-4.664889-10.126222-10.353778-10.012444-5.575111.113778-10.012444 4.778667-10.012444 10.353777zm53.248 151.324445c0-2.844444 1.024-5.347556 2.844444-7.168-1.820444 1.820444-2.844444 4.323556-2.844444 7.168zm20.366222-.341333c0-2.844444-1.251556-5.347556-3.072-7.168 1.820444 1.820444 2.958222 4.323556 3.072 7.168z"/><path d="m591.416889 644.664889c0 1.365333.341333 2.730667.910222 3.982222 1.592889 3.640889 5.233778 6.144 9.443556 6.030222s7.736889-2.730667 9.216-6.371555c.455111-1.251556.796444-2.616889.682666-3.982222 0-2.844444-1.251556-5.347556-3.072-7.168s-4.437333-2.844444-7.281777-2.844445c-2.844444 0-5.347556 1.251556-7.168 3.072-1.706667 1.934222-2.730667 4.437333-2.730667 7.281778zm-104.789333-201.272889c0 1.365333.341333 2.730667.910222 3.982222-.568889-1.137778-.796444-2.503111-.910222-3.982222zm2.844444-7.168c.910222-.910222 1.934222-1.706667 3.185778-2.275556s2.503111-.796444 3.982222-.910222c-2.844444.113778-5.347556 1.365333-7.168 3.185778z"/><path d="m496.64 433.152c-1.365333 0-2.730667.341333-3.982222.910222 1.251556-.568889 2.616889-.910222 3.982222-.910222zm3.982222.682667c-1.251556-.455111-2.503111-.796444-3.982222-.682667 2.844444 0 5.347556 1.024 7.168 2.844444-.910222-.910222-1.934222-1.592889-3.185778-2.161777zm-12.288 111.047111c.113778 5.575111 4.664889 10.012444 10.353778 10.012444-5.688889.113778-10.24-4.437333-10.353778-10.012444s4.323556-10.24 10.012445-10.353778c-5.688889.113778-10.126222 4.778667-10.012445 10.353778z"/><path d="m488.334222 544.881778c.113778 5.575111 4.664889 10.012444 10.353778 10.012444 5.575111-.113778 10.012444-4.664889 10.012444-10.353778-.113778-5.575111-4.664889-10.126222-10.353777-10.012444-5.688889.113778-10.126222 4.778667-10.012445 10.353778zm1.706667 101.489778c0-2.844444 1.024-5.347556 2.844444-7.168-1.820444 1.820444-2.958222 4.323556-2.844444 7.168zm17.180444-7.509334c1.820444 1.820444 3.072 4.323556 3.072 7.168-.113778-2.844444-1.251556-5.347556-3.072-7.168z"/><path d="m492.885333 639.089778c-1.820444 1.820444-2.844444 4.437333-2.844444 7.168 0 1.365333.341333 2.730667.910222 3.982222 1.592889 3.640889 5.233778 6.144 9.443556 6.030222-4.209778.113778-7.850667-2.389333-9.443556-6.030222-.568889-1.251556-.796444-2.503111-.910222-3.982222-.113778-2.730667 1.024-5.233778 2.844444-7.168 1.820444-1.820444 4.323556-3.072 7.168-3.072-2.844444 0-5.347556 1.251556-7.168 3.072z"/><path d="m490.040889 646.371556c0 1.365333.341333 2.730667.910222 3.982222-.568889-1.251556-.910222-2.616889-.910222-3.982222zm0 0c0-2.844444 1.024-5.347556 2.844444-7.168-1.820444 1.820444-2.958222 4.323556-2.844444 7.168z"/><path d="m490.040889 646.371556c0 1.365333.341333 2.730667.910222 3.982222 1.592889 3.640889 5.233778 6.144 9.443556 6.030222s7.736889-2.730667 9.216-6.371556c.455111-1.251556.796444-2.616889.682666-3.982222 0-2.844444-1.251556-5.347556-3.072-7.168s-4.437333-2.844444-7.168-2.844444c-2.844444 0-5.347556 1.251556-7.168 3.072-1.820444 1.934222-2.958222 4.437333-2.844444 7.281778zm52.906667-237.454223c.113778 5.575111 4.664889 10.012444 10.353777 10.012445 5.575111-.113778 10.012444-4.664889 10.012445-10.353778-.113778-5.575111-4.664889-10.126222-10.353778-10.012444s-10.126222 4.778667-10.012444 10.353777zm65.422222 32.540445c0-1.365333-.341333-2.730667-.910222-3.982222.568889 1.251556.910222 2.616889.910222 3.982222z"/><path d="m590.961778 434.517333c-.910222.910222-1.592889 2.048-2.161778 3.299556-.455111 1.251556-.796444 2.503111-.682667 3.982222 0 1.365333.341333 2.730667.910223 3.982222 1.592889 3.640889 5.233778 6.144 9.443555 6.030223 4.209778-.113778 7.736889-2.730667 9.216-6.371556.455111-1.251556.796444-2.616889.682667-3.982222 0-1.365333-.341333-2.730667-.910222-3.982222s-1.251556-2.275556-2.275556-3.185778c-1.820444-1.820444-4.437333-2.844444-7.281778-2.844445-2.616889.113778-5.12 1.251556-6.940444 3.072zm-105.927111-92.501333c.113778 5.575111 4.664889 10.012444 10.353777 10.012444-5.688889 0-10.24-4.437333-10.353777-10.012444-.113778-5.575111 4.323556-10.24 10.012444-10.353778-5.688889.113778-10.126222 4.778667-10.012444 10.353778z"/><path d="m485.034667 342.016c.113778 5.575111 4.664889 10.012444 10.353777 10.012444 5.575111-.113778 10.012444-4.664889 10.012445-10.353777-.113778-5.575111-4.664889-10.126222-10.353778-10.012445-5.688889.113778-10.126222 4.778667-10.012444 10.353778zm21.959111 101.148444c0-1.365333-.341333-2.730667-.910222-3.982222.568889 1.251556.796444 2.503111.910222 3.982222zm-19.456 4.209778c-.568889-1.251556-.796444-2.503111-.910222-3.982222 0-1.365333.227556-2.730667.682666-3.982222.455111-1.251556 1.251556-2.275556 2.161778-3.299556.910222-.910222 1.934222-1.706667 3.185778-2.275555-1.251556.568889-2.275556 1.251556-3.185778 2.275555-.910222.910222-1.592889 2.048-2.161778 3.299556-.455111 1.251556-.796444 2.503111-.682666 3.982222s.341333 2.844444.910222 3.982222c1.592889 3.640889 5.233778 6.144 9.443555 6.030222-4.209778.113778-7.850667-2.389333-9.443555-6.030222z"/><path d="m496.64 433.152c-1.365333 0-2.730667.341333-3.982222.910222s-2.275556 1.251556-3.185778 2.275556c1.820444-1.934222 4.323556-3.185778 7.168-3.185778zm-9.102222 14.222222c-.568889-1.251556-.796444-2.503111-.910222-3.982222.113778 1.479111.341333 2.844444.910222 3.982222zm-.910222-3.982222c0-1.365333.227556-2.730667.682666-3.982222-.341333 1.251556-.682667 2.616889-.682666 3.982222z"/><path d="m506.197333 447.032889c.455111-1.251556.796444-2.616889.682667-3.982222 0-1.365333-.341333-2.730667-.910222-3.982223s-1.251556-2.275556-2.275556-3.185777c-1.820444-1.820444-4.437333-2.844444-7.168-2.844445-2.844444 0-5.347556 1.251556-7.168 3.072-.910222.910222-1.592889 2.048-2.161778 3.299556-.455111 1.251556-.796444 2.503111-.682666 3.982222 0 1.365333.341333 2.730667.910222 3.982222 1.592889 3.640889 5.233778 6.144 9.443556 6.030222 4.323556 0 7.850667-2.616889 9.329777-6.371555zm307.655111 295.480889c.113778 5.575111-4.323556 10.24-10.012444 10.353778 5.575111-.227556 10.126222-4.778667 10.012444-10.353778s-4.664889-10.126222-10.353777-10.012445c5.575111-.113778 10.24 4.437333 10.353777 10.012445zm-123.448888-99.441778c0 1.365333.341333 2.730667.910222 3.982222-.568889-1.251556-.796444-2.616889-.910222-3.982222zm1.706666 101.376c.113778 5.575111 4.664889 10.012444 10.353778 10.012444 5.575111-.113778 10.126222-4.664889 10.012444-10.353777-.113778-5.575111-4.664889-10.126222-10.353777-10.012445-5.688889.113778-10.126222 4.778667-10.012445 10.353778zm51.541334 49.948444c.113778 5.575111 4.664889 10.012444 10.353777 10.012445 5.575111-.113778 10.012444-4.664889 10.012445-10.353778-.113778-5.575111-4.664889-10.126222-10.353778-10.012444-5.575111.113778-10.126222 4.778667-10.012444 10.353777zm-1.706667-101.489777c.113778 5.575111 4.664889 10.126222 10.353778 10.012444 5.575111-.113778 10.012444-4.664889 10.012444-10.353778-.113778-5.575111-4.664889-10.126222-10.353778-10.012444-5.575111.113778-10.012444 4.778667-10.012444 10.353778zm-99.669333 103.082666c.113778 5.575111 4.664889 10.012444 10.353777 10.012445 5.575111-.113778 10.012444-4.664889 10.012445-10.353778-.113778-5.575111-4.664889-10.126222-10.353778-10.012444-5.688889.227556-10.126222 4.778667-10.012444 10.353777zm-1.706667-101.376c.113778 5.575111 4.664889 10.126222 10.353778 10.012445 5.575111-.113778 10.012444-4.664889 10.012444-10.353778-.113778-5.575111-4.664889-10.126222-10.353778-10.012444s-10.126222 4.778667-10.012444 10.353777zm165.205333-263.623111c-1.820444-1.820444-4.437333-2.844444-7.168-2.844444 1.365333 0 2.730667.227556 3.982222.682666 1.137778.568889 2.275556 1.365333 3.185778 2.161778zm4.778667 108.657778c.113778 5.575111-4.323556 10.24-10.012445 10.353778 5.575111-.227556 10.012444-4.778667 10.012445-10.353778-.113778-5.575111-4.664889-10.126222-10.353778-10.012444 5.575111-.113778 10.24 4.323556 10.353778 10.012444zm-113.436445-109.795556c2.844444 0 5.347556 1.024 7.281778 2.844445-1.934222-1.820444-4.551111-2.844444-7.281778-2.844445-2.844444 0-5.347556 1.251556-7.168 3.072 1.820444-1.820444 4.323556-3.072 7.168-3.072zm10.353778 10.012445c0 1.365333-.227556 2.730667-.682666 3.982222.341333-1.251556.682667-2.616889.682666-3.982222zm-20.366222.341333c0 1.365333.341333 2.730667.910222 3.982222-.568889-1.251556-.910222-2.616889-.910222-3.982222zm1.706667 101.376c.113778 5.575111 4.664889 10.012444 10.353777 10.012445 5.575111-.113778 10.126222-4.664889 10.012445-10.353778-.113778-5.575111-4.664889-10.126222-10.353778-10.012445-5.688889.113778-10.126222 4.778667-10.012444 10.353778zm51.541333 49.948445c.113778 5.575111 4.664889 10.012444 10.353778 10.012444 5.575111-.113778 10.012444-4.664889 10.012444-10.353778-.113778-5.575111-4.664889-10.126222-10.353778-10.012444s-10.126222 4.664889-10.012444 10.353778zm-1.706667-101.489778c.113778 5.575111 4.664889 10.126222 10.353778 10.012444 5.575111-.113778 10.012444-4.664889 10.012445-10.353777-.113778-5.575111-4.664889-10.126222-10.353778-10.012445-5.575111.113778-10.126222 4.778667-10.012445 10.353778zm-99.783111 103.082667c.113778 5.575111 4.664889 10.012444 10.353778 10.012444 5.575111-.113778 10.012444-4.664889 10.012444-10.353778-.113778-5.575111-4.664889-10.126222-10.353777-10.012444-5.575111.113778-10.126222 4.778667-10.012445 10.353778zm-1.592889-101.376c.113778 5.575111 4.664889 10.126222 10.353778 10.012444 5.575111-.113778 10.012444-4.664889 10.012445-10.353778-.113778-5.575111-4.664889-10.126222-10.353778-10.012444s-10.126222 4.664889-10.012445 10.353778zm174.876445 149.276444c0-2.844444-1.251556-5.347556-3.072-7.168 1.820444 1.820444 3.072 4.437333 3.072 7.168z"/><path d="m812.145778 641.024c0 1.365333-.227556 2.730667-.682667 3.982222.455111-1.251556.682667-2.616889.682667-3.982222 0-2.844444-1.251556-5.347556-3.072-7.168s-4.437333-2.844444-7.168-2.844444c2.844444 0 5.347556 1.024 7.168 2.844444s3.072 4.437333 3.072 7.168zm-121.742222 2.048c0-2.844444 1.024-5.347556 2.844444-7.168-1.706667 1.820444-2.844444 4.323556-2.844444 7.168zm20.366222-.341333c0-2.844444-1.251556-5.347556-3.072-7.168 1.820444 1.820444 2.958222 4.323556 3.072 7.168z"/><path d="m690.403556 643.072c0 1.365333.341333 2.730667.910222 3.982222 1.592889 3.640889 5.233778 6.144 9.443555 6.030222 4.209778-.113778 7.736889-2.730667 9.216-6.371555.455111-1.251556.796444-2.616889.682667-3.982222 0-2.844444-1.251556-5.347556-3.072-7.168s-4.437333-2.844444-7.281778-2.844445c-2.844444 0-5.347556 1.251556-7.168 3.072-1.592889 1.934222-2.730667 4.437333-2.730666 7.281778zm109.112888-398.336c3.640889-1.592889 6.144-5.233778 6.030223-9.443556 0 4.209778-2.503111 7.850667-6.030223 9.443556zm5.12-13.425778c-1.024-2.389333-3.072-4.323556-5.461333-5.347555 2.389333 1.024 4.437333 2.958222 5.461333 5.347555zm2.503112 105.472c.113778 5.575111-4.323556 10.24-10.012445 10.353778 5.688889-.227556 10.126222-4.778667 10.012445-10.353778-.113778-5.575111-4.664889-10.126222-10.353778-10.012444 5.688889-.113778 10.353778 4.323556 10.353778 10.012444zm-109.112889-90.339555c3.640889-1.592889 6.144-5.233778 6.030222-9.443556.113778 4.209778-2.389333 7.850667-6.030222 9.443556zm5.233777-13.425778c-1.024-2.389333-3.072-4.323556-5.461333-5.347556 2.389333 1.024 4.323556 2.958222 5.461333 5.347556zm-19.456 4.323555c.113778 4.209778 2.730667 7.736889 6.371556 9.216-3.640889-1.479111-6.257778-5.12-6.371556-9.216zm6.030223-9.443555c-2.389333 1.024-4.323556 3.072-5.347556 5.461333 1.024-2.503111 2.958222-4.437333 5.347556-5.461333zm-4.323556 110.819555c.113778 5.575111 4.664889 10.012444 10.353778 10.012445 5.575111-.113778 10.126222-4.664889 10.012444-10.353778-.113778-5.575111-4.664889-10.126222-10.353777-10.012444-5.688889.113778-10.126222 4.778667-10.012445 10.353777zm51.541333 49.948445c.113778 5.575111 4.664889 10.012444 10.353778 10.012444 5.575111-.113778 10.012444-4.664889 10.012445-10.353777-.113778-5.575111-4.664889-10.126222-10.353778-10.012445-5.688889.113778-10.126222 4.664889-10.012445 10.353778zm-1.706666-101.489778c.113778 5.575111 4.664889 10.126222 10.353778 10.012445 5.575111-.113778 10.012444-4.664889 10.012444-10.353778-.113778-5.575111-4.664889-10.126222-10.353778-10.012445-5.688889.113778-10.126222 4.778667-10.012444 10.353778zm-99.783111 103.082667c.113778 5.575111 4.664889 10.012444 10.353777 10.012444 5.575111-.113778 10.012444-4.664889 10.012445-10.353778-.113778-5.575111-4.664889-10.126222-10.353778-10.012444s-10.126222 4.778667-10.012444 10.353778zm-1.706667-101.376c.113778 5.575111 4.664889 10.126222 10.353778 10.012444 5.575111-.113778 10.012444-4.664889 10.012444-10.353778-.113778-5.575111-4.664889-10.126222-10.353778-10.012444-5.575111.113778-10.012444 4.664889-10.012444 10.353778zm174.990222 149.276444c0-1.365333-.341333-2.730667-.910222-3.982222.568889 1.251556.910222 2.616889.910222 3.982222zm-3.072-7.168c.910222.910222 1.706667 1.934222 2.275556 3.185778s.796444 2.503111.910222 3.982222c0 1.365333-.227556 2.730667-.682667 3.982222.455111-1.251556.796444-2.616889.682667-3.982222 0-1.365333-.341333-2.730667-.910222-3.982222-.568889-1.137778-1.365333-2.275556-2.275556-3.185778-.910222-.910222-2.048-1.592889-3.299555-2.161778 1.251556.568889 2.389333 1.365333 3.299555 2.161778zm-118.670222 9.216c0-1.365333.227556-2.730667.682667-3.982222-.455111 1.251556-.682667 2.503111-.682667 3.982222zm20.366222-.341333c0-1.365333-.341333-2.730667-.910222-3.982222.568889 1.251556.796444 2.503111.910222 3.982222z"/><path d="m689.948444 432.924444c-.910222.910222-1.592889 2.048-2.161777 3.299556-.455111 1.251556-.796444 2.503111-.682667 3.982222 0 1.365333.341333 2.730667.910222 3.982222 1.592889 3.640889 5.233778 6.144 9.443556 6.030223 4.209778-.113778 7.736889-2.730667 9.216-6.371556.455111-1.251556.796444-2.616889.682666-3.982222 0-1.365333-.341333-2.730667-.910222-3.982222s-1.251556-2.275556-2.275555-3.185778c-1.820444-1.820444-4.437333-2.844444-7.281778-2.844445-2.616889 0-5.12 1.251556-6.940445 3.072zm114.688-201.614222c.568889 1.251556.796444 2.503111.910223 3.982222.113778 4.209778-2.389333 7.850667-6.030223 9.443556-1.251556.568889-2.503111.796444-3.982222.910222 1.365333 0 2.730667-.341333 3.982222-.910222 3.640889-1.592889 6.144-5.233778 6.030223-9.443556 0-1.365333-.341333-2.730667-.910223-3.982222-1.024-2.389333-3.072-4.323556-5.461333-5.347555-1.251556-.455111-2.616889-.796444-3.982222-.682667 1.365333 0 2.730667.227556 3.982222.682667 2.389333 1.024 4.437333 2.958222 5.461333 5.347555zm-120.149333 2.048c-.455111 1.251556-.796444 2.503111-.682667 3.982222.113778 4.209778 2.730667 7.736889 6.371556 9.216 1.251556.455111 2.503111.796444 3.982222.682667 1.365333 0 2.730667-.341333 3.982222-.910222 3.640889-1.592889 6.144-5.233778 6.030223-9.443556 0-1.365333-.341333-2.730667-.910223-3.982222-1.024-2.389333-3.072-4.323556-5.461333-5.347555-1.251556-.455111-2.616889-.796444-3.982222-.682667-1.365333 0-2.730667.341333-3.982222.910222-2.389333 1.137778-4.323556 3.072-5.347556 5.575111zm107.406222 408.007111c0 1.365333.341333 2.730667.910223 3.982223-.568889-1.251556-.910222-2.616889-.910223-3.982223zm1.706667 101.489778c.113778 5.575111 4.664889 10.012444 10.353778 10.012445-5.688889 0-10.353778-4.437333-10.353778-10.012445-.113778-5.575111 4.323556-10.24 10.012444-10.353778-5.688889.113778-10.126222 4.664889-10.012444 10.353778z"/><path d="m793.6 742.855111c.113778 5.575111 4.664889 10.012444 10.353778 10.012445 5.575111-.113778 10.012444-4.664889 10.012444-10.353778-.113778-5.575111-4.664889-10.126222-10.353778-10.012445-5.688889.113778-10.126222 4.664889-10.012444 10.353778zm-2.161778-311.523555c.910222-.910222 1.934222-1.706667 3.185778-2.275556s2.503111-.796444 3.982222-.910222c-2.844444.113778-5.347556 1.251556-7.168 3.185778zm-2.844444 7.168c0 1.365333.341333 2.730667.910222 3.982222-.568889-1.251556-.910222-2.616889-.910222-3.982222z"/><path d="m798.492444 428.145778c1.365333 0 2.730667.227556 3.982223.682666-1.251556-.341333-2.503111-.682667-3.982223-.682666-1.365333 0-2.730667.341333-3.982222.910222 1.251556-.568889 2.616889-.796444 3.982222-.910222z"/><path d="m802.474667 428.942222c-1.251556-.455111-2.503111-.796444-3.982223-.682666 2.844444 0 5.347556 1.024 7.168 2.844444-.796444-.910222-1.934222-1.706667-3.185777-2.161778zm-12.288 111.047111c.113778 5.575111 4.664889 10.012444 10.353777 10.012445-5.575111 0-10.24-4.437333-10.353777-10.012445-.113778-5.575111 4.323556-10.24 10.012444-10.353777-5.575111.113778-10.012444 4.664889-10.012444 10.353777z"/><path d="m790.186667 539.989333c.113778 5.575111 4.664889 10.012444 10.353777 10.012445 5.575111-.113778 10.012444-4.664889 10.012445-10.353778-.113778-5.575111-4.664889-10.126222-10.353778-10.012444-5.575111.113778-10.012444 4.664889-10.012444 10.353777zm1.706666 101.376c0-2.844444 1.024-5.347556 2.844445-7.168-1.820444 1.820444-2.844444 4.323556-2.844445 7.168zm17.180445-7.395555c1.820444 1.820444 3.072 4.323556 3.072 7.168 0-2.844444-1.251556-5.461333-3.072-7.168z"/><path d="m794.737778 634.197333c-1.820444 1.820444-2.844444 4.437333-2.844445 7.168 0 1.365333.341333 2.730667.910223 3.982223 1.592889 3.640889 5.233778 6.144 9.443555 6.030222-4.209778.113778-7.850667-2.389333-9.443555-6.030222-.568889-1.251556-.796444-2.503111-.910223-3.982223 0-2.844444 1.024-5.347556 2.844445-7.168 1.820444-1.820444 4.323556-3.072 7.168-3.072-2.844444 0-5.347556 1.137778-7.168 3.072zm-2.844445 7.168c0 1.365333.341333 2.730667.910223 3.982223-.568889-1.251556-.910222-2.616889-.910223-3.982223z"/><path d="m791.893333 641.365333c0-2.844444 1.024-5.347556 2.844445-7.168-1.820444 1.820444-2.844444 4.323556-2.844445 7.168z"/><path d="m791.893333 641.365333c0 1.365333.341333 2.730667.910223 3.982223 1.592889 3.640889 5.233778 6.144 9.443555 6.030222 4.209778-.113778 7.736889-2.730667 9.216-6.371556.455111-1.251556.796444-2.616889.682667-3.982222 0-2.844444-1.251556-5.347556-3.072-7.168s-4.437333-2.844444-7.168-2.844444c-2.844444 0-5.347556 1.251556-7.168 3.072-1.820444 1.934222-2.844444 4.437333-2.844445 7.281777zm46.535111-254.407111c.113778 5.575111 4.664889 10.012444 10.353778 10.012445 5.575111-.113778 10.012444-4.664889 10.012445-10.353778-.113778-5.575111-4.664889-10.126222-10.353778-10.012445-5.575111.113778-10.126222 4.778667-10.012445 10.353778zm-1.592888-101.489778c.113778 5.575111 4.664889 10.126222 10.353777 10.012445 5.575111-.113778 10.012444-4.664889 10.012445-10.353778-.113778-5.575111-4.664889-10.126222-10.353778-10.012444-5.688889.227556-10.126222 4.778667-10.012444 10.353777zm-51.541334-49.834666c.113778 4.209778 2.730667 7.736889 6.371556 9.216-3.754667-1.479111-6.371556-5.006222-6.371556-9.216zm6.030222-9.443556c-2.389333 1.024-4.323556 3.072-5.347555 5.461334 1.024-2.389333 2.844444-4.437333 5.347555-5.461334zm14.222223 9.102222c.113778 4.209778-2.389333 7.850667-6.030223 9.443556 3.527111-1.592889 6.030222-5.233778 6.030223-9.443556zm-6.371556-9.216c2.389333 1.024 4.437333 2.844444 5.461333 5.347556-1.024-2.503111-3.072-4.437333-5.461333-5.347556zm-12.288 110.933334c.113778 5.575111 4.664889 10.012444 10.353778 10.012444-5.575111.113778-10.24-4.323556-10.353778-10.012444-.113778-5.575111 4.323556-10.24 10.012445-10.353778-5.575111.227556-10.126222 4.778667-10.012445 10.353778z"/><path d="m786.887111 337.009778c.113778 5.575111 4.664889 10.012444 10.353778 10.012444 5.575111-.113778 10.012444-4.664889 10.012444-10.353778-.113778-5.575111-4.664889-10.126222-10.353777-10.012444-5.575111.227556-10.126222 4.778667-10.012445 10.353778zm21.959111 101.148444c0-1.365333-.341333-2.730667-.910222-3.982222.568889 1.251556.910222 2.616889.910222 3.982222zm-19.456 4.323556c-.568889-1.251556-.796444-2.503111-.910222-3.982222 0-1.365333.227556-2.730667.682667-3.982223s1.251556-2.275556 2.161777-3.299555c.910222-.910222 1.934222-1.706667 3.185778-2.275556-1.251556.568889-2.275556 1.251556-3.185778 2.275556-.910222.910222-1.592889 2.048-2.161777 3.299555-.455111 1.251556-.796444 2.503111-.682667 3.982223.113778 1.365333.455111 2.730667.910222 3.982222 1.592889 3.640889 5.233778 6.144 9.443556 6.030222-4.209778 0-7.850667-2.503111-9.443556-6.030222z"/><path d="m789.390222 442.481778c-.568889-1.251556-.796444-2.503111-.910222-3.982222.113778 1.365333.455111 2.730667.910222 3.982222zm9.102222-14.336c-1.365333 0-2.730667.341333-3.982222.910222s-2.275556 1.251556-3.185778 2.275556c1.934222-1.934222 4.437333-3.072 7.168-3.185778z"/><path d="m808.163556 442.140444c.455111-1.251556.796444-2.616889.682666-3.982222 0-1.365333-.341333-2.730667-.910222-3.982222s-1.251556-2.275556-2.275556-3.185778c-1.820444-1.820444-4.437333-2.844444-7.168-2.844444-2.844444 0-5.347556 1.251556-7.168 3.072-.910222.910222-1.592889 2.048-2.161777 3.299555-.455111 1.251556-.796444 2.503111-.682667 3.982223 0 1.365333.341333 2.730667.910222 3.982222 1.592889 3.640889 5.233778 6.144 9.443556 6.030222s7.850667-2.730667 9.329778-6.371556zm26.965333-258.048c.113778 5.575111 4.664889 10.012444 10.353778 10.012445 5.575111-.113778 10.012444-4.664889 10.012444-10.353778-.113778-5.575111-4.664889-10.126222-10.353778-10.012444s-10.126222 4.778667-10.012444 10.353777zm-43.804445 42.097778c-2.389333 1.024-4.323556 3.072-5.347555 5.461334-.455111 1.251556-.796444 2.503111-.682667 3.982222.113778 4.209778 2.730667 7.736889 6.371556 9.216 1.251556.455111 2.503111.796444 3.982222.682666-1.365333 0-2.730667-.227556-3.982222-.682666-3.640889-1.479111-6.257778-5.006222-6.371556-9.216 0-1.365333.227556-2.730667.682667-3.982222 1.024-2.389333 2.844444-4.437333 5.347555-5.461334 1.251556-.568889 2.503111-.796444 3.982223-.910222-1.479111.113778-2.844444.341333-3.982223.910222z"/><path d="m791.324444 226.190222c-2.389333 1.024-4.323556 3.072-5.347555 5.461334 1.024-2.389333 2.844444-4.437333 5.347555-5.461334zm-6.030222 9.443556c.113778 4.209778 2.730667 7.736889 6.371556 9.216-3.754667-1.479111-6.371556-5.006222-6.371556-9.216z"/><path d="m785.976889 231.651556c-.455111 1.251556-.796444 2.503111-.682667 3.982222.113778 4.209778 2.730667 7.736889 6.371556 9.216 1.251556.455111 2.503111.796444 3.982222.682666 1.365333 0 2.730667-.341333 3.982222-.910222 3.640889-1.592889 6.144-5.233778 6.030222-9.443555 0-1.365333-.341333-2.730667-.910222-3.982223-1.024-2.389333-3.072-4.323556-5.461333-5.347555-1.251556-.455111-2.616889-.796444-3.982222-.682667-1.365333 0-2.730667.341333-3.982223.910222-2.503111 1.137778-4.323556 3.185778-5.347555 5.575112z"/></g><path d="m434.631111 903.395556c-18.887111 0-34.133333-15.246222-34.133333-34.133334v-196.494222c0-7.850667 2.730667-15.587556 7.736889-21.617778l410.510222-500.280889c9.671111-11.832889 26.055111-15.701333 40.049778-9.557333s22.186667 20.821333 20.138666 35.953778l-93.411555 664.917333c-1.479111 10.922667-8.305778 20.48-17.976889 25.486222-9.784889 5.12-21.390222 5.12-31.288889.113778l-213.105778-108.430222c-16.839111-8.533333-23.438222-29.127111-14.904889-45.852445 8.533333-16.839111 29.127111-23.438222 45.852445-14.904888l170.552889 86.812444 69.859555-497.208889-325.745778 396.856889v184.206222c0 18.887111-15.36 34.133333-34.133333 34.133334z" fill="#592b0c"/><path d="m331.776 659.911111c-5.233778 0-10.581333-1.251556-15.587556-3.754667l-174.08-89.884444c-11.264-5.802667-18.432-17.408-18.432-30.151111-.113778-12.743111 6.940444-24.348444 18.204445-30.378667l687.331555-363.406222c16.611556-8.760889 37.319111-2.389333 46.08 14.222222 8.760889 16.611556 2.389333 37.319111-14.222222 46.08l-629.646222 332.913778 116.053333 59.960889c16.725333 8.647111 23.324444 29.240889 14.677334 45.966222-6.030222 11.719111-17.976889 18.432-30.378667 18.432z" fill="#592b0c"/></svg>