<svg height="48" viewBox="0 0 1024 1024" width="48" xmlns="http://www.w3.org/2000/svg"><g fill="#515151"><path d="m284.444444 568.888889c-31.288889 0-56.888889-25.6-56.888888-56.888889s25.6-56.888889 56.888888-56.888889 56.888889 25.6 56.888889 56.888889-25.6 56.888889-56.888889 56.888889zm227.555556 0c-31.288889 0-56.888889-25.6-56.888889-56.888889s25.6-56.888889 56.888889-56.888889 56.888889 25.6 56.888889 56.888889-25.6 56.888889-56.888889 56.888889zm227.555556 0c-31.288889 0-56.888889-25.6-56.888889-56.888889s25.6-56.888889 56.888889-56.888889 56.888889 25.6 56.888888 56.888889-25.6 56.888889-56.888888 56.888889z"/><path d="m512 0c-281.6 0-512 230.4-512 512s230.4 512 512 512 512-230.4 512-512-230.4-512-512-512zm0 967.111111c-250.311111 0-455.111111-204.8-455.111111-455.111111s204.8-455.111111 455.111111-455.111111 455.111111 204.8 455.111111 455.111111-204.8 455.111111-455.111111 455.111111z"/></g></svg>