<svg height="48" viewBox="0 0 1024 1024" width="48" xmlns="http://www.w3.org/2000/svg"><path d="m647.365502 453.985702c-87.020936-96.690156-87.020936-212.718753-87.020936-377.092428-270.733051 106.359376-203.049532 396.430868-212.718752 493.121024-67.683519-58.014298-87.021959-193.381335-87.021959-193.381335-77.351716 38.675858-116.028597 135.366014-116.028597 212.718753 0 193.381335 164.373675 357.753987 367.423207 357.753986s367.423207-154.704454 367.423207-357.753986c0-116.028597-87.021959-174.042895-87.021959-328.74735-125.69577 38.677904-145.033187 135.367037-145.034211 193.381336z" fill="#ff5050"/><path d="m502.330268 550.676881c125.696794 48.345078 96.690156 183.711092 96.690156 222.387973 29.006637-29.006637 38.675858-87.020936 38.675858-87.020936 29.007661 19.337417 48.345078 58.014298 48.345078 96.690156 0 87.020936-77.351716 164.373675-164.373675 164.373675s-164.373675-77.352739-164.373674-164.373675c9.670244-87.021959 145.036257-154.705478 145.036257-232.057193z" fill="#fdb350"/></svg>