<svg class="icon" viewBox="0 0 1024 1024" xmlns="http://www.w3.org/2000/svg" width="200" height="200"><defs><style>@font-face{font-family:feedback-iconfont;src:url(&quot;//at.alicdn.com/t/font_1031158_1uhr8ri0pk5.eot?#iefix&quot;) format(&quot;embedded-opentype&quot;),url(&quot;//at.alicdn.com/t/font_1031158_1uhr8ri0pk5.woff2&quot;) format(&quot;woff2&quot;),url(&quot;//at.alicdn.com/t/font_1031158_1uhr8ri0pk5.woff&quot;) format(&quot;woff&quot;),url(&quot;//at.alicdn.com/t/font_1031158_1uhr8ri0pk5.ttf&quot;) format(&quot;truetype&quot;),url(&quot;//at.alicdn.com/t/font_1031158_1uhr8ri0pk5.svg#iconfont&quot;) format(&quot;svg&quot;)}</style></defs><path d="M363.2 365.12L217.84 826.16a78.8 78.8 0 00-3.76 28.24 84.56 84.56 0 0084.8 78.48 85.28 85.28 0 0073.28-41.36L416 818.56a85.12 85.12 0 0173.2-41.36h51.2a85.28 85.28 0 0173.28 41.36l43.52 72.96a85.12 85.12 0 0073.2 41.36 84.64 84.64 0 0084.88-78.48 80.56 80.56 0 00-3.76-28.24L665.84 365.12z" fill="#FFBAB3"/><path d="M180.56 353.92a80.96 80.96 0 0173.52 49.28c13.2 30.88 48 89.44 131.44 134.08a267.44 267.44 0 00252.96 0C722 492.64 756.56 434.08 769.92 403.2a80.72 80.72 0 0182.4-48.72 124.88 124.88 0 0045.2-5.2 517.36 517.36 0 0057.68-58.96c-26.08-26.8-60.08-71.2-101.76-132.4a27.92 27.92 0 00-31.04-11.2c-31.28 9.36-64 16-65.28 16l-20.48 4.08-16-13.04C656 102.48 548.24 91.12 512 91.12c-1.52 0-131.28 1.12-208 62.88l-16 13.04-20.48-4.08c-1.28-.4-34-6.88-65.28-16a27.92 27.92 0 00-31.04 11.2c-41.68 61.2-75.92 105.6-101.76 132.4a517.36 517.36 0 0057.68 58.96 124.16 124.16 0 0045.36 5.2 66.32 66.32 0 018.72-.56z" fill="#F14A37"/><path d="M525.76 480.48a192 192 0 01-136-56 15.44 15.44 0 0121.84-21.84 161.68 161.68 0 00228.4-.24 15.44 15.44 0 0121.76 21.6 192 192 0 01-136 56.48z" fill="#FFF"/></svg>