<svg height="48" viewBox="0 0 1024 1024" width="48" xmlns="http://www.w3.org/2000/svg"><g fill="#515151"><path d="m513.488911 67.427692c-245.531066 0-444.574355 199.044312-444.574355 444.575378s199.043289 444.569238 444.574355 444.569238 444.570261-199.038172 444.570261-444.569238-199.039196-444.575378-444.570261-444.575378zm0 835.402621c-215.85314 0-390.83236-174.975127-390.83236-390.828266 0-215.854163 174.97922-390.833383 390.83236-390.833383 215.854163 0 390.82929 174.97922 390.82929 390.833383-.000001 215.853139-174.975128 390.828266-390.82929 390.828266z"/><path d="m425.145863 423.658999h35.335786c9.754155 0 17.671475-7.916297 17.671475-17.670451v-70.673619c0-9.750061-7.91732-17.665335-17.671475-17.665335h-35.335786c-9.754155 0-17.671475 7.916297-17.671475 17.665335v70.673619c.001024 9.754154 7.91732 17.670451 17.671475 17.670451z"/><path d="m425.145863 582.675666h35.335786c9.754155 0 17.671475-7.916297 17.671475-17.670451v-70.67362c0-9.754155-7.91732-17.665335-17.671475-17.665335h-35.335786c-9.754155 0-17.671475 7.91118-17.671475 17.665335v70.673619c.001024 9.754155 7.91732 17.670452 17.671475 17.670452z"/><path d="m566.491055 423.658999h35.33681c9.754155 0 17.670451-7.916297 17.670451-17.670451v-70.673619c0-9.750061-7.916297-17.665335-17.670451-17.665335h-35.33681c-9.750061 0-17.665335 7.916297-17.665335 17.665335v70.673619c0 9.754154 7.916297 17.670451 17.665335 17.670451z"/><path d="m566.491055 582.675666h35.33681c9.754155 0 17.670451-7.916297 17.670451-17.670451v-70.67362c0-9.754155-7.916297-17.665335-17.670451-17.665335h-35.33681c-9.750061 0-17.665335 7.91118-17.665335 17.665335v70.673619c0 9.754155 7.916297 17.670452 17.665335 17.670452z"/><path d="m283.799648 423.658999h35.335786c9.751085 0 17.666358-7.916297 17.666358-17.670451v-70.673619c0-9.750061-7.916297-17.665335-17.666358-17.665335h-35.335786c-9.754155 0-17.671475 7.916297-17.671475 17.665335v70.673619c.001023 9.754154 7.91732 17.670451 17.671475 17.670451z"/><path d="m743.179197 317.649594h-35.33681c-9.754155 0-17.670451 7.916297-17.670451 17.665335v70.673619c0 9.754155 7.916297 17.670451 17.670451 17.670451h35.33681c9.754155 0 17.665335-7.916297 17.665335-17.670451v-70.673619c-.000001-9.750062-7.911181-17.665335-17.665335-17.665335z"/><path d="m336.802816 565.005214v-70.673619c0-9.754155-7.916297-17.665335-17.666358-17.665335h-35.335786c-9.754155 0-17.671475 7.91118-17.671475 17.665335v70.673619c0 9.754155 7.91732 17.670451 17.671475 17.670451h35.335786c9.750061.000001 17.666358-7.916296 17.666358-17.670451z"/><path d="m743.179197 476.66626h-35.33681c-9.754155 0-17.670451 7.91118-17.670451 17.665335v70.673619c0 9.754155 7.916297 17.670451 17.670451 17.670451h35.33681c9.754155 0 17.665335-7.916297 17.665335-17.670451l-.000001-70.673619c0-9.754155-7.91118-17.665335-17.665334-17.665335z"/><path d="m707.842387 653.349285h-388.706953c-9.754155 0-17.670451 7.916297-17.670451 17.670451v17.665335c0 9.754155 7.916297 17.671475 17.670451 17.671475h388.706953c9.750061 0 17.666358-7.91732 17.666358-17.671475v-17.665335c0-9.755177-7.916297-17.670451-17.666358-17.670451z"/></g></svg>