<svg height="48" viewBox="0 0 1024 1024" width="48" xmlns="http://www.w3.org/2000/svg"><path d="m911.6 337.9-25.9 103.7c-2.1 7.4-6.9 11.1-14.3 11.1h-151.5l-29.6 118.5h144c4.7 0 8.5 1.9 11.6 5.6 3.1 4.3 4 8.7 2.8 13l-26.1 103.7c-1.6 7.4-6.3 11.1-14.3 11.1h-151.4l-37.5 151.9c-2.1 7.4-6.9 11.1-14.3 11.1h-103.7c-5 0-9-1.9-12.1-5.6-2.8-3.7-3.7-8-2.8-13l36.1-144.4h-117.5l-37.5 151.9c-2.1 7.4-6.9 11.1-14.3 11.1h-104.3c-4.7 0-8.5-1.9-11.6-5.6-2.8-3.7-3.7-8-2.8-13l36.1-144.3h-144c-4.7 0-8.5-1.9-11.6-5.6-2.8-3.7-3.7-8-2.8-13l26-103.9c2.1-7.4 6.9-11.1 14.3-11.1h151.4l29.6-118.5h-143.9c-4.7 0-8.5-1.9-11.6-5.6-3.1-4.3-4-8.7-2.8-13l26-103.8c1.6-7.4 6.3-11.1 14.3-11.1h151.4l37.5-151.9c2.1-7.4 7.1-11.1 14.8-11.1h103.7c4.7 0 8.5 1.9 11.6 5.6 2.8 3.7 3.7 8 2.8 13l-36.1 144.4h117.7l37.5-151.9c2.1-7.4 7.1-11.1 14.8-11.1h103.7c4.7 0 8.5 1.9 11.6 5.6 2.8 3.7 3.7 8 2.8 13l-36.1 144.4h144c4.7 0 8.5 1.9 11.6 5.6 2.7 3.9 3.7 8.2 2.7 13.2zm-355.6 233.3 29.6-118.5h-117.6l-29.6 118.5z" fill="#515151"/></svg>