<svg height="200" viewBox="0 0 1024 1024" width="200" xmlns="http://www.w3.org/2000/svg"><path d="m61.89056 511.98976a450.10432 450.10432 0 1 0 900.20864 0 450.10432 450.10432 0 1 0 -900.20864 0z" fill="#fff"/><path d="m512 1024c-281.6 0-512-230.4-512-512s230.4-512 512-512 512 230.4 512 512-230.4 512-512 512zm371.2-624c-41.6-32-112-44.8-112-44.8-12.8-19.2-22.4-32-41.6-44.8-28.8-16-48-9.6-48 6.4-3.2 12.8 9.6 12.8 32 16s28.8 16 28.8 16c-41.6-12.8-96-12.8-99.2 16-3.2 25.6 41.6 22.4 67.2 19.2 22.4-3.2 19.2 16 12.8 22.4s-25.6 12.8-73.6 0c-48-9.6-99.2-22.4-176-25.6-80-6.4-156.8 32-211.2 35.2s-115.2-19.2-115.2-19.2c-32-9.6-22.4 12.8-16 16 89.6 80 224 70.4 224 70.4-19.2 57.6 6.4 86.4 6.4 86.4a237.64992 237.64992 0 0 1 48-25.6c-60.8 41.6-121.6 115.2-54.4 115.2 70.4 6.4 163.2 96 163.2 96s19.2 3.2 9.6-48c-6.4-48-80-54.4-80-54.4 12.8 0 67.2-12.8 102.4-22.4 35.2-12.8 73.6-41.6 80-44.8 6.4-6.4 9.6-12.8 0-22.4s-6.4-12.8 6.4-28.8c12.8-12.8 76.8-57.6 140.8-80 64-25.6 70.4-6.4 105.6-19.2 32-9.6 0-35.2 0-35.2z" fill="#fed14c"/></svg>