<svg height="200" viewBox="0 0 1024 1024" width="200" xmlns="http://www.w3.org/2000/svg"><g fill="#909399"><path d="m768 725.333333a42.666667 42.666667 0 0 1 0 85.333334h-512a42.666667 42.666667 0 1 1 0-85.333334zm-225.28-479.658666 90.453333 90.496a42.666667 42.666667 0 1 1 -60.288 60.330666l-18.218666-18.176v261.674667a42.666667 42.666667 0 1 1 -85.333334 0v-260.522667l-17.237333 17.28a42.666667 42.666667 0 0 1 -60.330667-60.330666l89.642667-89.770667.938667-.981333a42.666667 42.666667 0 0 1 60.373333 0z"/><path d="m213.333333 554.666667a42.666667 42.666667 0 0 1 42.666667 42.666666v213.333334h-42.666667a42.666667 42.666667 0 0 1 -42.666666-42.666667v-170.666667a42.666667 42.666667 0 0 1 42.666666-42.666666zm597.333334 0a42.666667 42.666667 0 0 1 42.666666 42.666666v170.666667a42.666667 42.666667 0 0 1 -42.666666 42.666667h-42.666667v-213.333334a42.666667 42.666667 0 0 1 42.666667-42.666666z"/></g></svg>