<svg height="48" viewBox="0 0 1024 1024" width="48" xmlns="http://www.w3.org/2000/svg"><g fill="#d4237a"><path d="m592.23 542.31a30.72 30.72 0 0 0 -30.72-30.72h-256.768a30.72 30.72 0 1 0 0 61.44h256.768a30.72 30.72 0 0 0 30.72-30.72zm168.96 164.608v-61.44a30.72 30.72 0 0 0 -61.44 0v92.16a30.72 30.72 0 0 0 30.72 30.72h92.16a30.72 30.72 0 1 0 0-61.44zm-456.448-247.398h256.768a30.72 30.72 0 1 0 0-61.44h-256.768a30.72 30.72 0 0 0 0 61.44zm0-113.51h395.008a30.72 30.72 0 0 0 0-61.44h-395.008a30.72 30.72 0 1 0 0 61.44z"/><path d="m862.515 572.826v-319.693a92.16 92.16 0 0 0 -92.16-92.16h-79.667a92.16 92.16 0 0 0 -91.648-82.483h-162.509a92.16 92.16 0 0 0 -91.648 82.483h-79.667a92.16 92.16 0 0 0 -92.16 92.16v579.84a92.16 92.16 0 0 0 92.16 92.16h401.664a205.21 205.21 0 0 0 195.635-352.307zm-628.019 260.147v-579.84a30.72 30.72 0 0 1 30.72-30.72h109.875a30.72 30.72 0 0 0 30.72-30.72v-21.043a30.72 30.72 0 0 1 30.72-30.72h162.509a30.72 30.72 0 0 1 30.72 30.72v21.043a30.72 30.72 0 0 0 30.72 30.72h109.875a30.72 30.72 0 0 1 30.72 30.72v283.955a205.21 205.21 0 0 0 -226.201 326.605h-309.658a30.72 30.72 0 0 1 -30.72-30.72zm495.974 40.96a143.923 143.923 0 1 1 143.924-143.923 144.077 144.077 0 0 1 -143.924 143.82z"/></g></svg>