<svg height="48" viewBox="0 0 1024 1024" width="48" xmlns="http://www.w3.org/2000/svg"><g fill="#d4237a"><path d="m496 704h-128c-17.6 0-32 14.4-32 32s14.4 32 32 32h128c17.6 0 32-14.4 32-32s-14.4-32-32-32zm160-160h-288c-17.6 0-32 14.4-32 32s14.4 32 32 32h288c17.6 0 32-14.4 32-32s-14.4-32-32-32zm0-160h-288c-17.6 0-32 14.4-32 32s14.4 32 32 32h288c17.6 0 32-14.4 32-32s-14.4-32-32-32z"/><path d="m720 144h-22.4c-12.8-36.8-48-64-89.6-64h-192c-41.6 0-76.8 27.2-89.6 64h-22.4c-88 0-160 72-160 160v480c0 88 72 160 160 160h416c88 0 160-72 160-160v-480c0-88-72-160-160-160zm-304 0h192c17.6 0 32 14.4 32 32s-14.4 32-32 32h-192c-17.6 0-32-14.4-32-32s14.4-32 32-32zm400 640c0 52.8-43.2 96-96 96h-416c-52.8 0-96-43.2-96-96v-480c0-52.8 43.2-96 96-96h22.4c12.8 36.8 48 64 89.6 64h192c41.6 0 76.8-27.2 89.6-64h22.4c52.8 0 96 43.2 96 96z"/></g></svg>