<svg height="48" viewBox="0 0 1024 1024" width="48" xmlns="http://www.w3.org/2000/svg"><path d="m787.91 770.654 78.976-78.976c12.496-12.496 32.758-12.496 45.254 0s12.496 32.758 0 45.254l-78.976 78.978 80.286 80.286c12.498 12.496 12.498 32.758 0 45.254-12.496 12.498-32.758 12.498-45.254 0l-80.286-80.286-80.33 80.33c-12.498 12.496-32.76 12.496-45.256 0-12.496-12.498-12.496-32.76 0-45.256l80.33-80.328-79.02-79.02c-12.496-12.496-12.496-32.76 0-45.256 12.498-12.496 32.76-12.496 45.256 0zm-273.91 127.346c17.674 0 32 14.326 32 32s-14.326 32-32 32h-320c-35.346 0-64-28.654-64-64v-768c0-35.346 28.654-64 64-64h640c35.346 0 64 28.654 64 64v446.564c0 17.672-14.326 32-32 32s-32-14.328-32-32v-446.564h-640v768zm-192-513c-17.674 0-32-14.326-32-32s14.326-32 32-32h386c17.674 0 32 14.326 32 32s-14.326 32-32 32zm0 160c-17.674 0-32-14.326-32-32s14.326-32 32-32h386c17.674 0 32 14.326 32 32s-14.326 32-32 32zm0 160c-17.674 0-32-14.326-32-32s14.326-32 32-32h192c17.674 0 32 14.326 32 32s-14.326 32-32 32z" fill="#d4237a"/></svg>