<svg height="200" viewBox="0 0 1024 1024" width="200" xmlns="http://www.w3.org/2000/svg"><g fill="#24ba8e"><path d="m210.895 91.429c10.777-7.644 21.224-15.86 32.634-22.577.537 111.299.33 222.61.098 333.91-49.555-35.804-98.633-72.278-148.03-108.313-27.879-20.858-56.417-40.838-84.016-62.086 66.328-47.14 132.876-93.952 199.314-140.934m-66.109 81.627c.208 7.912-1.828 15.518-2.986 23.247-1.731 10.191 8.472 21.126.78 30.391-6.717 11.971-13.702 23.796-20.285 35.84-2.609 4.767-3.865 11.69.463 15.811 3.974 5.583 11.069 2.609 16.725 3.828 4.45 1.987 8.424 5.29 13.337 6.18 4.79.573 9.009-2.681 13.714-2.828 5.23.646 10.374 2.45 15.726 1.33 4.023-.757 7.278-3.426 11.081-4.767 4.852-.878 10.008.694 14.75-.89 5.157-4.17 6.413-12.471 3.072-18.176-7.01-12.386-15.067-24.162-21.845-36.706-6.985-11.264 6.34-23.857 1.256-35.535-2.377-5.608-2.646-11.74-2.84-17.725-1.585.049-3.158.11-4.73.158-3.158 7.388-9.375 13.056-17.104 15.287-7.643-2.255-13.08-8.13-16.018-15.31-1.707-.05-3.401-.086-5.096-.135zm116.274-104.107c30.732 19.834 59.94 41.911 90.015 62.72 49.761 35.011 99.584 69.925 149.15 105.204-5.278 4.145-10.654 8.143-16.177 11.935-74.24 51.407-148.431 102.863-222.988 153.807a60885.156 60885.156 0 0 1 0-333.666m22.735 127.464c4.267 7.058 9.07 13.763 13.678 20.614 2.316-1.829 4.645-3.645 7.034-5.4.463 23.235.244 46.482.122 69.73 26.794 3.022 53.967 1.499 80.871.523 1.573-23.418.659-46.896 1.22-70.326 2.352 1.78 4.656 3.608 6.96 5.449 5.206-6.925 11.69-13.459 13.276-22.321-13.983-6.059-27.039-15.494-42.582-16.92-3.51 7.923-10.386 15.408-19.943 14.201-8.972.22-13.763-7.753-18.006-14.299-15.53 2.865-29.39 10.484-42.63 18.749zm236.435 41.52c81.04-56.074 161.303-113.284 242.71-168.836.39 111.116.146 222.232.122 333.36-81.2-54.467-161.914-109.653-242.834-164.522m130.718-64.768c-2.097 14.08-5.632 28.696-1.34 42.727 5.546 15.47 19.796 24.966 30.804 36.267 5.718 4.962 2.865 13.239 3.962 19.724-7.74 3.877-16.042 6.693-23.26 11.532 17.519.915 35.097.83 52.627.025-7.753-4.133-15.823-7.631-24.027-10.74 1.463-6.997-2.426-16.445 3.767-21.748 11.483-9.96 24.905-19.468 30.305-34.34 4.474-14.312.183-29.221-2.194-43.472-23.552-.06-47.092-.073-70.644.025zm126.94-104.022c21.247 13.495 41.374 28.648 62.11 42.91 48.7 34.22 97.365 68.487 146.152 102.572 8.691 6.18 17.761 11.897 25.94 18.773-78.043 56.417-156.074 112.847-234.19 169.18-.256-111.141-.232-222.294-.013-333.435m42.24 91.624c3.146 9.874 9.021 20.139 19.408 23.564 5.534.61 11.215.232 16.798-.024-1.73-6.717-3.864-13.751-8.704-18.908-7.546-7.107-18.14-5.022-27.502-4.632m47.482 8.338c-3.937 4.352-6.326 9.85-7.911 15.446 6.363.024 13.824 1.426 18.98-3.17 3.633-4.23 6.23-9.289 8.51-14.348-6.45-.817-13.873-1.743-19.579 2.072m-16.164 20.517c-26.685 3.28-47.714 31.073-41.85 57.722 3.17 24.93 27.806 44.373 52.712 42.264 13.14-1.682 26.49-7.192 34.986-17.713 12.617-14.397 15.872-36.486 7.363-53.723-8.85-19.797-31.817-32.159-53.211-28.55zm-66.597 229.595c75.667-54.76 151.528-109.312 226.914-164.486-.025 110.69.28 221.391-.147 332.081-75.593-54.48-150.552-109.824-226.133-164.34-1.195-.56-1.95-2.414-.634-3.255m120.15-33.73c-18.725 3.169-37.608 13.604-45.02 31.877-1.95 11.325 8.631 18.993 15.92 25.795 9.193 8.522 21.53 11.118 33.11 14.678 8.716 4.925 15.519 13.117 25.283 16.25 2.012-7.754 1.841-15.86 2.597-23.784 10.91-4.669 19.224-13.251 28.77-19.907 8.691 1.963 13.397 11.654 21.979 14.482 1.78-1.304 8.692 1 8.777-3.194 1.243-7.29-3.352-13.519-5.205-20.2 1.499-6.765 6.9-12.58 5.546-19.943-1.231-4.974-7.302-8.143-11.934-5.608-6.449 3.28-10.582 9.728-15.69 14.629-11.995-5.083-20.516-15.726-32.621-20.785-.39-7.521-.78-15.03-1.304-22.528-12.154 2.182-19.48 13.422-30.208 18.237zm-893.89-129.746c75.58 54.455 150.637 109.641 226.194 164.145 2.23 1.073 1.134 3.56-.695 4.352-75.362 53.918-149.76 109.19-225.317 162.804-.646-110.434-.28-220.867-.182-331.301m68.693 115.395c-3.804 4.462-5.145 10.338-7.449 15.592-4.486 1.89-8.935 3.95-12.91 6.765-8.142 6.656-11.141 17.299-12.958 27.21-1.975 9.825-1.706 19.919-.756 29.842 1.134 8.326 9.387 14.775 17.604 15.03 22.369.366 44.763.452 67.12-.097 5.986.72 11.337-2.353 15.738-5.985 5.815-7.302 3.097-17.055 2.621-25.527-1.67-12.35-2.645-25.393-8.765-36.499-3.633-6.668-12.666-7.265-17.42-12.714-4.181-8.729-9.314-18.2-19.37-21.09-8.302-1.39-17.787.963-23.455 7.473zm341.297-20.833c10.35-14.885 15.03-32.878 24.393-48.372 6.412 15.689 11.898 31.72 17.98 47.543 6.4.768 12.8 1.584 19.176 2.633.037 5.424.11 10.886.183 16.335 9.411-1.585 18.774-3.474 28.136-5.413-6.68-20.065-14.239-39.826-20.81-59.928 19.225 7.46 38.06 15.86 57.1 23.796-4.668 13.178-9.008 26.465-13.433 39.729 8.216-1.927 16.567-3.304 24.661-5.73 2.877-.585 3.743-3.791 4.84-6.034 7.412-17.689 14.25-35.62 22.065-53.126a1139.89 1139.89 0 0 1 39.948 30.5c-2.012 3.39-5.51 5.486-8.424 7.997-9.935 7.546-19.785 15.202-29.684 22.796 12.825.22 25.65.244 38.474.183 3.84 9.935 6.948 20.127 9.776 30.403-8.338.061-16.664.11-24.978.147-3.048 12.202-5.851 24.478-8.594 36.754 10.496 2.657 21.455 3.718 31.646 7.485 4.499 9.216 7.473 19.09 10.557 28.855-12.727 1.706-25.551 2.718-38.241 4.742-3.462 20.15-4.974 40.655-9.204 60.66-6.18 6.241-14.165 10.325-21.419 15.189-4.498-26.015-8.814-52.053-13.495-78.031-8.375-.83-16.774-1.28-25.112-2.34-5.279 21.698-9.691 43.641-15.506 65.194-5.498 7.448-15.653 9.764-22.93 15.177-1.403-25.515-1.22-51.115-2.95-76.605a1885.67 1885.67 0 0 1 -18.628-1.512c-2.73-7.777-5.095-15.652-7.704-23.454-10.813 11.642-9.655 28.148-12.032 42.776-2.84 20.041-4.657 40.241-8.24 60.172-15.995-10.825-31.781-21.967-47.007-33.828 9.837-3.316 19.858-6.095 29.854-8.936-1.914-14.238-3.45-28.538-5.559-42.752-5.57 4.328-11.069 8.765-16.86 12.8-4.985-15.847-9.715-31.793-14.323-47.75 11.106-1.438 22.138-3.316 33.134-5.473-1.195-10.68-2.45-21.346-3.901-31.988-2.963-.89-5.998-1.622-8.753-3.048-7.022-8.765-11.727-19.078-16.872-29.001 7.498-2.938 15.836-4.218 22.736-8.545m37.315 72.752c9.447-.816 18.92-1.377 28.416-1.292-2.426 6.168-5.254 12.166-7.949 18.213 9.131-3.17 18.189-6.547 27.295-9.814-1.84-9.764-4.035-19.456-6.205-29.135-6.022-1.694-12.093-3.328-17.932-5.51-4.56-5.083-6.583-12.008-9.887-17.908-11.898 12.044-11.3 29.855-13.738 45.446m85.82-22.528c-2.12 11.423-3.778 22.918-5.522 34.402 10.594-2.207 21.236-4.182 31.89-6.12-.914-11.178-2.242-22.308-2.742-33.511-7.863 1.816-15.738 3.535-23.625 5.23z"/><path d="m94.379 372.285c9.91-3.145 17.225 6.132 21.053 13.836-11.594.256-23.187.293-34.78.025 3.474-5.4 6.742-12.679 13.727-13.861zm438.918 233.96c75.678-56.93 152.332-112.555 228.45-168.912.609 48.86-.744 97.744 1.304 146.579.158 62.256.11 124.513-.013 186.77-24.466-16.42-47.652-34.609-71.777-51.493-52.98-37.205-104.936-75.812-157.964-112.944m136.826-66.28c-2.292 6.73-4.206 13.58-6.035 20.456 5.291-2.231 10.704-4.145 16.348-5.376 10.045-1.67 20.041 1.414 29.208 5.351-2.048-6.79-4.193-13.556-6.363-20.297-11.057-.073-22.114-.097-33.158-.134m6.948 25.04c-12.093 2.803-21.723 12.629-25.844 24.16-4.961 16.031 1.67 35.475 16.714 43.618 13.19 8.314 31.963 6.217 43.069-4.68 19.212-15.19 15.091-50.238-7.559-60.1-7.875-4.913-17.603-3.925-26.38-2.999m-13.105 78.129c2.244 6.827 4.206 13.8 7.315 20.31 11.032-.22 22.089-.476 33.121-1.269 1.646-6.595 3.39-13.14 5.096-19.724-13.86 8.448-31.013 6.827-45.532.683zm113.847-205.666c78.373 54.723 156.282 110.093 234.35 165.242-40.997 30.684-83.37 59.49-124.83 89.54-36.657 25.916-72.46 53.004-109.447 78.445-.268-111.067-.134-222.147-.073-333.227m75.35 93.002c.243 7.716.085 15.518 1.316 23.174l7.363-.147c2.414-4.461.915-9.923 1.463-14.69 4.328-8.74-6.839-6.228-10.142-8.337m-31.988 2.182c-.83 6.363-.853 12.787-.585 19.212a56.203 56.203 0 0 0 8.509 3.108c-2.048-7.558 4.949-22.077-7.924-22.32m66.194 1.109c-2.34 5.644-.95 11.971-.427 17.835-.548 3.4 7.754 4.218 8.302 1.048 1.804-5.425.5-11.337.061-16.847-.67-3.109-3.316-3.791-7.936-2.036m-74.947 30.622c-.78 28.27-1.28 56.637.085 84.907.33 3.816 4.523 5.327 7.839 5.303 22.382.366 44.776.11 67.157.073 5.023-1.048 12.447 1.548 16.03-3.413 2.987-5.279 2.183-11.74 3.292-17.494 5.071-1.645 10.094-3.51 14.824-6.01 8.74-6.387 10.484-18.895 6.534-28.44-4.56-8.119-14.312-10.813-22.211-14.348-.33-6.875-.634-13.739-1.036-20.59-30.842.073-61.684.049-92.514.012zm-800.902 36.194c77.531-53.821 154.331-108.69 232.082-162.17.354 110.836.33 221.672.012 332.495-46.433-33.682-92.61-67.706-138.934-101.522-30.867-23.174-62.891-44.837-93.16-68.803m192.622-56.296c-6.668 7.607-13.507 15.165-18.615 23.955-9.423 14.287-11.971 32.146-22.504 45.763-18.566 6.132-41.545 6.448-54.833 23.003 15.933 13.154 38.279 13.397 57.625 10.277 11.227-1.646 15.14-13.922 16.591-23.528 2.45-10.935 4.73-24.868 15.567-30.683 3.67-2.34 5.766 2.706 6.498 5.595 1.024 16.591.207 33.244.341 49.86 1.658.011 4.986.036 6.644.036-.451-18.128-2.78-37.4 4.56-54.553 3.315-9.24 9.081-18.554 6.277-28.794-2.328-9.618-10.179-15.957-18.151-20.93zm56.88-105.752c45.824 32 90.43 65.707 135.68 98.511 30.891 22.455 61.696 45.044 92.502 67.609-75.983 55.466-151.954 110.97-228.06 166.278-.524-110.8-.292-221.599-.122-332.398m64.94 110.653c-5.194 2.28-7.242 8.302-10.704 12.398-7.717.682-15.482 1.17-23.101 2.572-3.84.841-4.437 5.473-4.523 8.728.037 22.211-.743 44.471.695 66.658.658 5.851 8.631 5.546 12.727 5.412 32.354-.414 64.78.854 97.097-.695 4.889-.34 5.559-6.704 5.181-10.337.72-22.528-.122-45.08.33-67.608-7.62-4.828-16.897-4.73-25.576-4.938-4.194-4.473-7.888-10.154-13.715-12.52-12.75-1.084-25.673-.828-38.412.33zm-56.808 235.41c78.153-54.65 155.635-110.287 234.154-164.437.451 59.038-.097 118.077.244 177.115 1.877 52.188 1.17 104.424.853 156.648-55.625-38.997-110.226-79.421-165.62-118.735-22.808-17.42-46.872-33.11-69.631-50.59m148.845-64.196c3.743.061 7.375-.073 11.155.037a596.305 596.305 0 0 1 -5.23-7.156c-1.963 2.39-3.95 4.742-5.925 7.12m-42.154 26.026c-9.4 9.326-13.02 22.406-16.835 34.67 4.315-.927 8.606-1.927 12.982-2.61 8.205-.548 16.53 3.78 24.637 1.061 7.01-2.12 14.41-3.4 21.577-1.17-1.133 15.445-.755 30.952-2.011 46.397-1.195 4.95-7.387 5.352-11.227 6.595-3.316-6.059-5.462-12.812-10.07-18.09-2.62 2.145-5.68 4.12-7.143 7.302-1.658 10.142 5.62 20.955 15.75 23.052 10.679 3.706 23.796-3.999 26.429-14.836 1.121-16.81.268-33.695.28-50.517 9.13-3.219 17.774 1.036 26.6 2.633 10.313-1.829 20.772-3.182 30.964.134-2.963-11.35-5.133-23.76-13.532-32.573-5.352-6.57-12.678-11.093-19.688-15.653-25.039-14.409-59.916-8.338-78.713 13.605zm143.64-126.415c78.177 54.552 155.965 109.64 234.142 164.169-77.64 57.051-155.94 113.237-234.02 169.703-.573-111.286-.33-222.586-.122-333.872m76.873 94.67c-2.62 3.426-4.413 7.79-8.936 9.192-9.898 5.157-16.786 14.349-26.428 19.895 3.462 2.438 7.387 4.352 11.885 3.475 21.212.402 42.496.658 63.647-1.317-5.608-7.4-13.788-12.325-20.858-18.14-6.632-4.12-11.606-10.825-19.31-13.104m-35.645 44.056c.22 20.968-.463 41.96.195 62.927-1.207 3.5.988 8.765 4.864 9.4 22.516 1.072 45.068-.05 67.62.5 4.243-8.327 2.695-18.006 3.17-26.99-.17-14.373.549-28.831-1.072-43.106-.842-4.376-6.949-4.23-10.094-4.255-21.553-.5-43.264-1.206-64.683 1.524z"/></g></svg>