<svg class="icon" viewBox="0 0 1024 1024" xmlns="http://www.w3.org/2000/svg" width="200" height="200"><defs><style>@font-face{font-family:feedback-iconfont;src:url(&quot;//at.alicdn.com/t/font_1031158_1uhr8ri0pk5.eot?#iefix&quot;) format(&quot;embedded-opentype&quot;),url(&quot;//at.alicdn.com/t/font_1031158_1uhr8ri0pk5.woff2&quot;) format(&quot;woff2&quot;),url(&quot;//at.alicdn.com/t/font_1031158_1uhr8ri0pk5.woff&quot;) format(&quot;woff&quot;),url(&quot;//at.alicdn.com/t/font_1031158_1uhr8ri0pk5.ttf&quot;) format(&quot;truetype&quot;),url(&quot;//at.alicdn.com/t/font_1031158_1uhr8ri0pk5.svg#iconfont&quot;) format(&quot;svg&quot;)}</style></defs><path d="M684.032 356.966L526.746 585.728c-4.301 6.554-12.698 10.65-21.3 10.65s-16.998-4.301-21.299-10.65L333.21 356.966c-8.602-10.65-4.301-27.852 6.348-34.201 10.65-6.554 27.648-4.301 33.997 6.553l129.639 196.608 135.987-198.86c8.601-10.65 23.347-14.95 33.997-6.554 17.203 10.854 19.25 25.805 10.854 36.454zm127.59-130.457L541.696 72.704c-19.251-10.65-44.646-10.65-63.693 0L210.33 224.461c-19.252 10.65-31.95 32.153-31.95 53.453V583.68c0 21.3 12.698 42.803 31.95 53.453l269.721 154.01c19.251 10.649 44.647 10.649 63.693 0l267.674-149.71c19.25-10.649 31.948-32.153 31.948-53.452V282.214c0-23.552-12.697-44.85-31.744-55.705z" fill="#F45656"/><path d="M828.62 692.634l84.788 136.806c4.3 8.602 0 19.251-10.65 19.251l-114.688 6.554c-4.3 0-6.348 2.253-8.601 4.3l-70.247 94.004c-6.348 6.553-16.998 6.553-21.299 0L607.232 818.79c-4.3-6.553-2.048-12.902 4.3-16.998l199.68-113.254c6.76-4.301 13.108-2.253 17.409 4.096zm-633.24 2.252c4.3-4.3 10.649-6.553 16.998-4.3l199.68 113.254c6.348 4.3 8.601 10.65 4.3 16.998l-80.69 134.759c-4.302 6.553-14.746 6.553-21.3 0l-70.246-94.003c-2.048-2.253-4.301-4.301-8.602-4.301l-114.688-6.554c-10.65 0-14.95-10.65-10.65-19.251l85.197-136.602z" fill="#F8A6A6"/></svg>