<svg height="128" viewBox="0 0 1027 1024" width="128.375" xmlns="http://www.w3.org/2000/svg"><path d="m824.1712 856.7152h-620.3968c-18.4128 0-34.0448-13.1504-37.2592-31.2688l-89.856-510.2256c-2.7808-15.64 4.6704-31.4176 18.408-39.3088 13.88-7.8864 31.1216-6.28 43.2464 3.9456l189.3616 161.1664 154.592-239.192c13.8832-21.6192 49.5312-21.6192 63.4112 0l154.5856 239.0448 189.216-161.1664c12.1296-10.3728 29.52-11.8304 43.2528-3.9456 13.8816 7.8928 21.1824 23.6704 18.4064 39.3088l-89.7088 510.5152c-3.2144 17.9776-18.8528 31.1264-37.2592 31.1264zm-588.6864-75.544h556.9776l66.1936-375.6544-142.168 120.9792c-8.3312 7.0128-19.1456 10.0816-29.96 8.6256-10.8064-1.6128-20.3088-7.7472-26.2992-16.8032l-146.2592-226.3296-146.2544 226.3296c-5.9968 9.2032-15.4928 15.3408-26.3056 16.8032-10.9536 1.6032-21.7664-1.6128-29.952-8.6256l-142.1664-120.9792zm588.6864 197.6944h-620.3968c-20.896 0-37.8448-16.9472-37.8448-37.8432s16.9488-37.8432 37.8448-37.8432h620.3984c20.8944 0 37.8448 16.9472 37.8448 37.8432s-16.952 37.8432-37.8464 37.8432zm-821.2688-775.5184a37.854 37.854 0 1 0 121.1328 0 37.854 37.854 0 1 0 -121.1328 0zm452.2912-96.3808a37.853 37.853 0 1 0 121.1296 0 37.853 37.853 0 1 0 -121.1296 0zm449.0608 92.9312a37.854 37.854 0 1 0 121.1328 0 37.854 37.854 0 1 0 -121.1328 0z"/></svg>