<svg height="128" viewBox="0 0 1024 1024" width="128" xmlns="http://www.w3.org/2000/svg"><g fill="#885f44"><path d="m327.184761 274.698363c-1.563612 0-3.1262-.191358-4.708232-.599658-9.942443-2.589988-15.904225-12.751419-13.323447-22.693861 21.957081-84.439134 70.871117-134.252657 141.469012-144.059 10.143011-1.409093 19.575848 5.680373 20.99415 15.877618 1.417279 10.188037-5.689582 19.585057-15.868409 21.00336-56.038294 7.779174-92.191702 45.905516-110.568235 116.539227-2.181689 8.379854-9.724479 13.932314-17.994839 13.932314zm167.497828.009209c-1.563612 0-3.1262-.199545-4.708232-.608867-9.942443-2.589988-15.904225-12.751419-13.323446-22.703071 22.284539-85.639472 69.888743-134.098137 141.487431-144.04979 10.124592-1.409093 19.575848 5.680373 20.99415 15.877618 1.417279 10.188037-5.689582 19.585057-15.868409 21.00336-56.020898 7.779174-92.191702 45.905516-110.586654 116.548436-2.181689 8.370645-9.724479 13.932314-17.99484 13.932314zm167.533644-.026606c-1.563612 0-3.1262-.191358-4.708231-.599657-9.942443-2.589988-15.904225-12.751419-13.323447-22.693862 21.957081-84.421738 70.871117-134.234237 141.469012-144.04058 10.124592-1.409093 19.575848 5.680373 20.99415 15.877619 1.417279 10.188037-5.689582 19.585057-15.868409 21.00336-56.038294 7.779174-92.210122 45.896306-110.568235 116.52183-2.180666 8.377808-9.724479 13.931291-17.99484 13.93129z"/><path d="m682.719196 876.573299h-322.562486c-162.517397 0-294.734698-132.217301-294.734698-294.734698v-247.965511c0-38.97057 27.683503-73.170486 65.835427-81.331353 5.706979-1.217734 10.5421-4.00829 13.995759-8.088212l36.86256-43.578518c11.978822-14.131859 28.628014-21.912056 46.913472-21.912056 30.318516 0 56.038294 21.603017 61.146639 51.357692a24.5133 24.5133 0 0 0 24.211424 20.394492h371.876636c150.303214 0 272.577049 122.273834 272.577049 272.577049v77.160357c0 152.255683-123.873262 276.120758-276.121782 276.120758zm-453.688943-660.385538c-5.053086 0-12.377912 1.517563-18.503422 8.733918l-36.862559 43.587728c-8.834202 10.42442-20.812001 17.486256-34.626636 20.439518-21.085224 4.507664-36.389792 23.401989-36.389791 44.923142v247.965511c0 141.986805 115.51285 257.508865 257.508865 257.508865h322.562486c131.726114 0 238.895949-107.169835 238.895949-238.895948v-77.160358c0-129.772622-105.570407-235.351216-235.351216-235.351216h-371.875612a61.637826 61.637826 0 0 1 -60.891836-51.312666c-2.418073-14.039761-14.378475-20.438495-24.466228-20.438494z"/><path d="m401.653823 435.536514h-279.192724c-10.288321 0-18.612916-8.652054-18.612916-18.931164s8.324596-18.931165 18.612916-18.931165h279.193747c10.288321 0 18.612916 8.652054 18.612916 18.931165s-8.325619 18.931165-18.613939 18.931164zm428.097078 0h-241.967914c-10.288321 0-18.612916-8.652054-18.612916-18.931164s8.324596-18.931165 18.612916-18.931165h241.967914c10.288321 0 18.612916 8.652054 18.612916 18.931165s-8.325619 18.931165-18.612916 18.931164zm-321.654814 353.643366c-160.208818 0-239.022839-160.927179-242.294349-167.770028-4.435009-9.270131-.508583-20.357654 8.743129-24.801872 9.305947-4.41659 20.394493-.536212 24.829501 8.715499.709151 1.463328 72.215742 146.631592 208.722742 146.631591 134.889153 0 178.730661-142.431943 179.149193-143.876851 2.926656-9.833973 13.269211-15.505136 23.139-12.541641 9.869788 2.926656 15.486716 13.278421 12.56006 23.139-.509606 1.697665-52.494585 170.504302-214.849276 170.504302z"/><path d="m127.458927 553.886993a65.144696 18.612916 0 1 0 130.289392 0 65.144696 18.612916 0 1 0 -130.289392 0z"/><path d="m760.297063 553.886993a65.144696 18.612916 0 1 0 130.289391 0 65.144696 18.612916 0 1 0 -130.289391 0z"/></g></svg>