<?xml version="1.0" standalone="no"?><!DOCTYPE svg PUBLIC "-//W3C//DTD SVG 1.1//EN" "http://www.w3.org/Graphics/SVG/1.1/DTD/svg11.dtd"><svg t="1627368561635" class="icon" viewBox="0 0 1024 1024" version="1.1" xmlns="http://www.w3.org/2000/svg" p-id="7194" xmlns:xlink="http://www.w3.org/1999/xlink" width="200" height="200"><defs><style type="text/css">@font-face { font-family: feedback-iconfont; src: url("//at.alicdn.com/t/font_1031158_1uhr8ri0pk5.eot?#iefix") format("embedded-opentype"), url("//at.alicdn.com/t/font_1031158_1uhr8ri0pk5.woff2") format("woff2"), url("//at.alicdn.com/t/font_1031158_1uhr8ri0pk5.woff") format("woff"), url("//at.alicdn.com/t/font_1031158_1uhr8ri0pk5.ttf") format("truetype"), url("//at.alicdn.com/t/font_1031158_1uhr8ri0pk5.svg#iconfont") format("svg"); }
</style></defs><path d="M511.9 959.1c-119.4 0-231.7-46.5-316.1-131-174.3-174.3-174.3-458 0-632.3C298.5 93.1 445.4 46.6 588.7 71.5c14.3 2.5 23.9 16.1 21.4 30.4-2.5 14.3-16.1 23.9-30.4 21.4-126.5-22-256.2 19.1-346.8 109.7C79 386.8 79 637.1 232.9 791c74.5 74.5 173.6 115.6 279 115.6s204.5-41 279-115.6 115.6-173.6 115.6-279-41-204.5-115.6-279c-15.4-15.4-32-29.5-49.6-42.1-11.8-8.4-14.5-24.9-6.1-36.6 8.5-11.8 24.9-14.5 36.6-6.1 19.9 14.2 38.7 30.3 56.1 47.6 84.4 84.4 131 196.7 131 316.1 0 119.4-46.5 231.7-131 316.1-84.3 84.6-196.6 131.1-316 131.1z" p-id="7195"></path><path d="M673.1 124.3m-26.3 0a26.3 26.3 0 1 0 52.6 0 26.3 26.3 0 1 0-52.6 0Z" p-id="7196"></path><path d="M413.9 590.6L255.3 432c-7.7 24.9-11.8 51.4-11.8 78.8 0 30.3 5 59.4 14.3 86.6h162.1c-2-2.2-4.1-4.5-6-6.8z m0 0" fill="#FE7598" p-id="7197"></path><path d="M765.7 424.2H603.6c2.1 2.2 4.1 4.5 6 6.8l158.6 158.6c7.7-24.9 11.8-51.4 11.8-78.8 0-30.3-5-59.4-14.3-86.6z m0 0" fill="#46A8FF" p-id="7198"></path><path d="M748.5 384.5C722 335 680.6 294.9 630.2 270L515.7 384.5h232.8z m0 0" fill="#B095FF" p-id="7199"></path><path d="M275.1 637.1c26.3 49.2 67.5 89.3 117.7 114.1l114.1-114.1H275.1z m0 0" fill="#FFA786" p-id="7200"></path><path d="M637.7 519.8v227.9c49.4-26.3 89.6-67.6 114.5-117.9L638 515.6l-0.3 4.2z m0 0" fill="#49E8CE" p-id="7201"></path><path d="M511.8 242.5c-30.3 0-59.4 5-86.6 14.3v162l164.7-164.7c-24.7-7.5-51-11.6-78.1-11.6z m0 0" fill="#FE7598" p-id="7202"></path><path d="M432.9 767.3c24.9 7.7 51.4 11.8 78.8 11.8 30.2 0 59.2-5 86.2-14.2V603c-2.1 1.9-4.2 3.8-6.4 5.6L432.9 767.3z m0 0M385.4 274.1c-49.2 26.3-89.3 67.6-114.1 117.7l114.1 114.1V274.1z m0 0" fill="#FFC64C" p-id="7203"></path></svg>