<svg height="128" viewBox="0 0 4044 1024" width="505.5" xmlns="http://www.w3.org/2000/svg"><path d="m1405.44 340.992 7.68-44.544c2.048-11.776 13.312-20.992 24.576-20.992h49.664l12.8-68.096h92.16l-12.288 68.096h52.736l-7.68 44.544c-2.048 11.776-13.312 20.992-24.576 20.992h-31.744l-12.8 73.728c21.504-3.584 40.448-7.168 56.832-10.752l-10.752 60.416c-22.016 7.168-41.472 12.288-57.856 15.872l-13.824 78.848c-8.704 59.392-41.984 88.576-99.328 86.528h-62.976l11.264-62.976h23.552c22.528 1.536 34.816-7.68 36.864-28.672l9.728-55.296c-23.04 1.536-49.152 4.608-77.312 7.68l10.24-57.856c2.048-11.264 12.8-20.992 24.576-20.992 18.944-.512 37.376-1.024 55.808-2.56l14.848-83.968zm-84.48 464.896c10.24-38.4 29.696-83.968 58.368-136.704h81.408c-23.04 50.688-39.936 96.256-50.176 136.704zm186.368 0c2.56-24.576 4.096-57.856 4.608-99.84 1.024-15.872 1.536-28.16 1.024-36.864h81.408c5.632 47.104 6.144 92.672 2.048 136.704zm357.376-163.328c-56.32 1.536-78.336-28.16-65.536-89.088l37.888-215.552h-41.984c-10.24 36.864-19.968 69.12-30.208 97.28 1.536 0 4.096 1.024 7.168 2.56 6.144 3.584 15.36 7.168 27.136 10.752l-14.336 81.408c-18.944-10.752-36.864-18.432-53.76-23.552-30.208 52.736-84.48 101.376-162.304 146.944l12.8-73.728c31.232-28.16 56.32-60.416 74.752-97.28-11.776-3.584-24.576-5.12-38.4-5.12l11.776-65.536c18.944 1.536 36.864 4.608 53.76 7.68 7.68-24.576 14.336-51.712 19.456-81.408h-57.856l7.168-41.984c2.048-11.776 13.312-20.992 24.576-20.992h39.424l12.288-68.096h89.088l-12.288 68.096h131.072l-50.176 283.648c-4.096 13.824 0 19.968 12.288 18.432h5.12c10.24 1.536 16.384-4.096 18.944-18.432l7.168-39.424h55.296l-8.704 49.664c-7.68 52.736-34.816 77.312-81.408 73.728zm-199.68 163.328c6.144-44.032 5.12-89.088-2.048-136.704h83.968c7.168 47.104 10.752 92.672 10.24 136.704zm155.136 0c4.608-34.816 2.56-80.384-4.608-136.704h81.408c10.24 40.448 14.848 86.016 12.8 136.704zm187.904 5.12 78.848-446.464h102.4l-78.848 446.464zm141.824-475.136c0-29.696-6.656-71.68-19.968-125.952h87.04c15.36 33.28 24.576 75.264 27.648 125.952zm217.088 467.456 11.264-62.976h60.416c22.528 1.536 34.816-9.728 37.376-34.304l66.048-375.808c2.048-11.776-5.632-20.992-17.408-20.992h-236.032l8.192-47.104c2.048-11.776 13.312-20.992 24.576-20.992h299.52c23.04 0 38.912 18.944 34.816 41.984l-74.752 422.912c-10.24 66.56-48.128 98.816-114.176 97.28zm370.176-446.464 7.168-41.984c2.048-11.776 13.312-20.992 24.576-20.992h34.304l14.848-83.968h89.088l-14.848 83.968h47.104l-7.168 41.984c-2.048 11.776-13.312 20.992-24.576 20.992h-26.112l-21.504 120.832 50.176-15.872-8.704 49.152c-1.536 8.704-8.192 16.384-16.384 19.456-12.288 4.608-24.576 9.216-36.864 12.8l-31.744 181.248c-9.728 55.808-41.984 83.968-96.256 83.968h-55.296l10.752-60.416h18.432c20.992 0 32.256-9.728 33.792-28.672l26.112-146.944c-7.168 1.536-18.432 4.608-32.768 7.68-12.8 1.536-22.528 3.584-29.696 5.12l10.752-60.928c2.048-11.264 12.8-20.48 24.064-20.992 13.824-.512 27.648-2.56 40.96-4.608l25.088-141.824h-55.296zm156.672 107.52 11.776-65.536c57.856-49.152 99.328-111.104 124.928-186.368h92.16c-3.072 7.168-7.68 17.408-13.312 31.744-3.072 7.168-10.24 22.528-21.504 47.104h57.856l12.288-68.096h92.16l-12.288 68.096h89.088c11.776 0 19.456 9.216 17.408 20.992l-7.168 41.984h-110.08l-13.824 78.848h81.408c11.776 0 19.456 9.216 17.408 20.992l-7.168 39.424h-102.4l-13.824 78.848h81.408c11.776 0 19.456 9.216 17.408 20.992l-7.168 41.984h-102.4l-14.848 83.968h93.184c11.776 0 19.456 9.216 17.408 20.992l-6.656 36.864h-288.768l-6.144 34.304h-92.16l66.048-375.808c-5.632 3.584-14.336 7.68-26.112 13.312-11.264 6.144-19.968 12.288-26.112 15.36zm158.72-110.08-13.824 78.848h81.408l13.824-78.848zm-24.576 138.752-13.824 78.848h81.408l13.824-78.848zm-24.576 141.824-14.848 83.968h81.408l14.848-83.968zm398.336-204.288 7.168-39.424c2.048-11.776 13.312-20.992 24.576-20.992h131.072c2.048-1.536 4.608-7.168 8.192-15.872 2.56-3.584 3.584-6.144 4.096-7.68h102.4l-12.288 23.552h338.944l-7.168 39.424c-2.048 11.776-13.312 20.992-24.576 20.992h-349.184c-26.112 29.696-48.64 52.736-67.072 68.096l-55.296 312.32h-94.72l44.544-251.904c-26.624 10.752-55.296 19.968-86.528 28.672l10.24-57.856c58.368-24.576 106.496-57.856 143.872-99.84zm19.968-129.536 3.584-20.992c4.096-23.04 26.112-41.984 49.664-41.984h99.84l5.632-31.744h94.72l-5.632 31.744h131.072l5.632-31.744h97.28l-5.632 31.744h136.704l-7.168 41.984c-2.048 11.776-13.312 20.992-24.576 20.992h-115.712l-6.144 34.304h-97.28l6.144-34.304h-131.072l-6.144 34.304h-94.72l6.144-34.304zm124.928 365.568 6.656-36.864c2.048-11.776 13.312-20.992 24.576-20.992h157.696l4.608-26.112c33.792-13.824 64-31.744 90.624-52.736h-231.424l6.656-36.864c2.048-11.776 13.312-20.992 24.576-20.992h320.512c11.776 0 19.456 9.216 17.408 20.992l-6.656 36.864c-38.912 33.28-82.944 57.856-131.072 73.728l-1.024 5.12h139.264l-6.656 36.864c-2.048 11.776-13.312 20.992-24.576 20.992h-118.272l-9.216 52.736c-8.704 59.392-45.568 88.576-110.08 86.528h-76.288l10.24-57.856h41.984c24.576 0 37.888-10.752 39.936-31.744l8.704-49.664zm-3034.624-662.016c-278.528 0-504.32 226.304-504.32 504.32s225.792 504.32 504.32 504.32 504.32-225.792 504.32-504.32-225.792-504.32-504.32-504.32zm208.896 572.416-194.048 194.048c-8.192 8.192-21.504 8.192-29.696 0l-194.048-194.048c-57.856-57.856-57.856-151.04 0-208.896 55.296-54.784 143.872-56.832 201.728-6.144 4.096 3.584 10.24 3.584 14.336 0 57.856-50.688 146.432-48.64 201.728 6.656 57.344 57.344 57.344 150.528 0 208.384z"/></svg>