<svg height="48" viewBox="0 0 1024 1024" width="48" xmlns="http://www.w3.org/2000/svg"><path d="m792.29952 1005.5424h-551.0144c-64.6912 0-91.62752-46.41792-96.86016-70.96832-2.86208-16.09216-66.70336-373.90848-79.9232-472.0896-4.81792-35.87584 1.89952-64.51712 19.91168-85.13024 17.13152-19.55328 44.14976-30.336 76.09344-30.336 7.38304 0 13.25056.57856 16.44544.98816h679.68512c3.18976-.41472 9.0624-.98816 16.44032-.98816 31.9488 0 58.96704 10.78272 76.06784 30.34624 18.04288 20.60288 24.73472 49.24416 19.9168 85.12-13.19424 98.17088-77.03552 456.00256-79.73376 471.18848-5.39648 25.4464-32.3328 71.86944-97.02912 71.86944zm-631.79264-602.12736c-8.94976 0-25.20064 1.44896-33.62304 11.06944-8.53504 9.7536-8.23808 27.39712-6.47168 40.48896 13.0304 96.97792 78.70976 465.0752 79.37536 468.77696 1.31584 4.87936 9.0624 25.37984 41.50272 25.37984h551.0144c35.70176 0 41.45664-25.21088 41.67168-26.28096.50176-2.80064 66.18112-370.89792 79.1808-467.87584 1.77152-13.09184 2.06848-30.73536-6.44096-40.48896-8.43264-9.6256-24.6784-11.06944-33.62816-11.06944-5.37088 0-9.16992.50688-9.91232.62464-1.4592.2304-3.09248.36864-4.55168.36864h-683.65824c-1.56672 0-3.13856-.13824-4.70528-.39936-.55296-.0768-4.38272-.59392-9.7536-.59392zm79.29344 150.08256c0 15.43168 6.35392 30.76096 17.26464 41.67168 10.9056 10.91072 26.24512 17.25952 41.67168 17.25952s30.76096-6.3488 41.67168-17.25952 17.25952-26.24 17.25952-41.67168-6.3488-30.76096-17.25952-41.67168-26.24512-17.25952-41.67168-17.25952-30.76608 6.3488-41.6768 17.25952c-10.90048 10.91584-17.25952 26.24512-17.25952 41.67168zm436.1216 0c0 15.43168 6.3488 30.76096 17.25952 41.67168s26.24 17.25952 41.67168 17.25952 30.76608-6.3488 41.67168-17.25952c10.91072-10.91072 17.25952-26.24 17.25952-41.67168s-6.3488-30.76096-17.25952-41.67168c-10.9056-10.91072-26.24-17.25952-41.67168-17.25952s-30.76096 6.3488-41.67168 17.25952-17.25952 26.24512-17.25952 41.67168zm92.3392-244.85888c-15.5904 0-28.20096-12.63104-28.20096-28.20608 0-113.34656-100.16768-205.568-223.27296-205.568-123.1104 0-223.25248 92.22144-223.25248 205.568 0 15.57504-12.61568 28.20608-28.20096 28.20608-15.5904 0-28.20608-12.63104-28.20608-28.20608 0-144.45568 125.45024-261.96992 279.65952-261.96992 154.20416 0 279.67488 117.51424 279.67488 261.96992 0 15.57504-12.61056 28.20608-28.20096 28.20608z" fill="#515151"/></svg>