<svg height="48" viewBox="0 0 1024 1024" width="48" xmlns="http://www.w3.org/2000/svg"><g fill="#515151"><path d="m904 176v672h-784v-672zm0-56h-784c-30.9 0-56 25.1-56 56v672c0 30.9 25.1 56 56 56h784c30.9 0 56-25.1 56-56v-672c0-30.9-25.1-56-56-56z"/><path d="m204 708c-5.4 0-10.8-1.5-15.5-4.7-12.9-8.6-16.4-26-7.8-38.8l180.1-270.2c15.1-22.6 40.3-36.6 67.5-37.4 27.2-2.5 53.2 11.8 69.6 33.6l93.7 125c14-21.1 36.6-34.7 62.3-37.1 29.4-2.5 57.2 9.8 74.8 33.2l113.7 151.6c9.2 12.4 6.7 29.9-5.6 39.2s-29.9 6.7-39.2-5.6l-113.7-151.6c-8.4-11.3-20.2-11.4-24.9-11-4.6.4-16.2 2.8-22.5 15.4l-15.5 31c-4.3 8.7-12.9 14.5-22.5 15.4-9.7.5-19.1-3.3-24.9-11.1l-120.6-160.8c-5.5-7.4-14.4-11.4-23.2-11.2-9.2.3-17.4 4.8-22.5 12.5l-180 270.1c-5.4 8.1-14.3 12.5-23.3 12.5zm588-420c-30.9 0-56 25.1-56 56s25.1 56 56 56 56-25.1 56-56-25.1-56-56-56z"/></g></svg>