<svg height="48" viewBox="0 0 1024 1024" width="48" xmlns="http://www.w3.org/2000/svg"><g fill="#d4237a"><path d="m851.53 466.34h-98.02v-280.33c0-48.47-39.43-87.9-87.9-87.9h-472.6c-48.47 0-87.9 39.43-87.9 87.9v568.87c0 48.47 39.43 87.9 87.9 87.9h105.06v17.84c0 37.66 30.64 68.29 68.29 68.29h485.16c37.66 0 68.29-30.64 68.29-68.29v-325.99c.01-37.65-30.63-68.29-68.28-68.29zm-2.48 306.69c-46.59-7.02-99.32-32.98-150.56-58.22-67.2-33.1-136.69-67.33-204.96-67.37h-.11c-39.11 0-87.14 10.31-124.58 22.23v-132.56h480.21zm-656.04-1.02c-9.29 0-17.13-7.85-17.13-17.13v-568.87c0-9.29 7.85-17.13 17.13-17.13h472.6c9.29 0 17.13 7.85 17.13 17.13v280.33h-316.37c-37.66 0-68.29 30.64-68.29 68.29v237.38zm175.83 86.14v-113.47c38.25-15.13 91.53-26.47 124.59-26.47h.07c51.8.03 113.78 30.56 173.72 60.08 59.63 29.37 121.05 59.61 181.83 66.08v13.77h-480.21z"/><path d="m707.78 629.06a52.47 48.98 0 1 0 104.94 0 52.47 48.98 0 1 0 -104.94 0z"/><path d="m555.8 339.46c19.54 0 35.38-15.84 35.38-35.39s-15.84-35.39-35.38-35.39h-256.64c-19.54 0-35.39 15.84-35.39 35.39s15.84 35.39 35.39 35.39z"/></g></svg>