<svg height="741.04834" viewBox="0 0 888 741.04834" width="888" xmlns="http://www.w3.org/2000/svg"><g transform="translate(-156 -79.47583)"><path d="m521.89611 253.85607h-4.03191v-110.453a63.92718 63.92718 0 0 0 -63.92738-63.92726h-234.00944a63.92718 63.92718 0 0 0 -63.92738 63.92728v605.95366a63.92719 63.92719 0 0 0 63.92738 63.92725h234.00944a63.92719 63.92719 0 0 0 63.92738-63.92726v-416.87837h4.03191z" fill="#e6e6e6"/><path d="m456.51633 96.10749h-30.546a22.68123 22.68123 0 0 1 -20.99971 31.24733h-134.06111a22.68123 22.68123 0 0 1 -20.99972-31.24733h-28.53a47.74011 47.74011 0 0 0 -47.74018 47.74005v605.06469a47.74012 47.74012 0 0 0 47.74018 47.74012h235.13654a47.74012 47.74012 0 0 0 47.74018-47.74012v-605.06469a47.74011 47.74011 0 0 0 -47.74018-47.74005z" fill="#fff"/><path d="m269.67241 219.11054h-14.03928a1.86134 1.86134 0 0 0 -1.86133 1.86133v6.16225a1.86134 1.86134 0 0 0 1.86133 1.86133h2.32651v9.23317h9.38625v-9.23317h2.32652a1.86133 1.86133 0 0 0 1.86132-1.86133v-6.16225a1.86133 1.86133 0 0 0 -1.86132-1.86133z" fill="#e6e6e6"/><path d="m283.73425 275.50749a72.178 72.178 0 0 1 -12.55683-42.79357 1.52226 1.52226 0 0 0 -1.18821-1.5191v-2.66269h-14.82734v2.62568h-.2043a1.52142 1.52142 0 0 0 -1.51944 1.52339q.00006.05544.00418.11074 1.75218 24.42494-11.83339 43.8076a4.19288 4.19288 0 0 0 -.75883 2.541l1.62129 50.15132a4.34147 4.34147 0 0 0 4.30433 4.19019h33.53723a4.343 4.343 0 0 0 4.30692-4.26409l.62478-48.69283a8.78784 8.78784 0 0 0 -1.51039-5.01764z" fill="#e6e6e6"/><path d="m278.42523 292.16618h-29.19154a2.997 2.997 0 0 0 -2.96218 3.45275l4.41126 28.67321h25.33006l5.3581-28.5766a2.997 2.997 0 0 0 -2.9457-3.54936z" fill="#fff"/><path d="m425.95669 369.34511h-14.03928a1.86133 1.86133 0 0 0 -1.86133 1.86132v6.16226a1.86134 1.86134 0 0 0 1.86133 1.86133h2.32651v9.23316h9.38625v-9.23318h2.32652a1.86133 1.86133 0 0 0 1.86132-1.86133v-6.16226a1.86132 1.86132 0 0 0 -1.86132-1.8613z" fill="#e6e6e6"/><path d="m440.01853 425.74206a72.178 72.178 0 0 1 -12.55683-42.79357 1.52226 1.52226 0 0 0 -1.1882-1.5191v-2.66269h-14.82735v2.62568h-.2043a1.52141 1.52141 0 0 0 -1.51944 1.52339q.00007.05542.00418.11074 1.75218 24.42492-11.83339 43.8076a4.19294 4.19294 0 0 0 -.75883 2.541l1.62129 50.15132a4.34145 4.34145 0 0 0 4.30433 4.19018h33.53723a4.343 4.343 0 0 0 4.30692-4.26409l.62479-48.69283a8.78789 8.78789 0 0 0 -1.5104-5.01763z" fill="#e6e6e6"/><path d="m434.70951 442.40074h-29.19151a2.997 2.997 0 0 0 -2.96218 3.45276l4.41126 28.6732h25.33006l5.35811-28.57659a2.9971 2.9971 0 0 0 -2.94571-3.54937z" fill="#fff"/><path d="m249.935 581.73267h-6.65947a.88292.88292 0 0 0 -.88292.88291v2.923a.88292.88292 0 0 0 .88292.88291h1.10357v4.37972h4.45233v-4.37972h1.10357a.88291.88291 0 0 0 .88291-.88291v-2.923a.88291.88291 0 0 0 -.88291-.88291z" fill="#e6e6e6"/><path d="m256.60519 608.48432a34.2373 34.2373 0 0 1 -5.95627-20.29895.72208.72208 0 0 0 -.56363-.72057v-1.263h-7.03329v1.24548h-.09691a.72168.72168 0 0 0 -.72074.72262q0 .02628.002.05252a31.24565 31.24565 0 0 1 -5.61312 20.77995 1.98884 1.98884 0 0 0 -.35994 1.20529l.769 23.78907a2.05934 2.05934 0 0 0 2.04174 1.98759h15.90824a2.06007 2.06007 0 0 0 2.043-2.02265l.29636-23.09723a4.1684 4.1684 0 0 0 -.71644-2.38012z" fill="#e6e6e6"/></g><path d="m83.13662 537.75318h15.17906v7.58953h-15.17906z" fill="#fff"/><path d="m280.935 581.73267h-6.65947a.88292.88292 0 0 0 -.88292.88291v2.923a.88292.88292 0 0 0 .88292.88291h1.10357v4.37972h4.45233v-4.37972h1.10357a.88291.88291 0 0 0 .88291-.88291v-2.923a.88291.88291 0 0 0 -.88291-.88291z" fill="#e6e6e6" transform="translate(-156 -79.47583)"/><path d="m287.60519 608.48432a34.2373 34.2373 0 0 1 -5.95627-20.29895.72208.72208 0 0 0 -.56363-.72057v-1.263h-7.03329v1.24548h-.09691a.72168.72168 0 0 0 -.72074.72262q0 .02628.002.05252a31.24565 31.24565 0 0 1 -5.61312 20.77995 1.98884 1.98884 0 0 0 -.35994 1.20529l.769 23.78907a2.05934 2.05934 0 0 0 2.04174 1.98759h15.90824a2.06007 2.06007 0 0 0 2.043-2.02265l.29636-23.09723a4.1684 4.1684 0 0 0 -.71644-2.38012z" fill="#e6e6e6" transform="translate(-156 -79.47583)"/><path d="m114.13662 537.75318h15.17906v7.58953h-15.17906z" fill="#fff"/><path d="m311.935 581.73267h-6.65947a.88292.88292 0 0 0 -.88292.88291v2.923a.88292.88292 0 0 0 .88292.88291h1.10357v4.37972h4.45233v-4.37972h1.10357a.88291.88291 0 0 0 .88291-.88291v-2.923a.88291.88291 0 0 0 -.88291-.88291z" fill="#e6e6e6" transform="translate(-156 -79.47583)"/><path d="m318.60519 608.48432a34.2373 34.2373 0 0 1 -5.95627-20.29895.72208.72208 0 0 0 -.56363-.72057v-1.263h-7.03329v1.24548h-.09691a.72168.72168 0 0 0 -.72074.72262q0 .02628.002.05252a31.24565 31.24565 0 0 1 -5.61312 20.77995 1.98884 1.98884 0 0 0 -.35994 1.20529l.769 23.78907a2.05934 2.05934 0 0 0 2.04174 1.98759h15.90824a2.06007 2.06007 0 0 0 2.043-2.02265l.29636-23.09723a4.1684 4.1684 0 0 0 -.71644-2.38012z" fill="#e6e6e6" transform="translate(-156 -79.47583)"/><path d="m145.13662 537.75318h15.17906v7.58953h-15.17906z" fill="#fff"/><path d="m401.56726 523.61282h-14.03926a1.86132 1.86132 0 0 0 -1.86133 1.86132v6.16226a1.86133 1.86133 0 0 0 1.86133 1.86133h2.32651v9.23316h9.38625v-9.23316h2.32651a1.86133 1.86133 0 0 0 1.86132-1.86133v-6.16226a1.86132 1.86132 0 0 0 -1.86133-1.86132z" fill="#e6e6e6" transform="translate(-156 -79.47583)"/><path d="m415.6291 580.00977a72.178 72.178 0 0 1 -12.55683-42.79357 1.52226 1.52226 0 0 0 -1.1882-1.5191v-2.66269h-14.82735v2.62568h-.2043a1.52141 1.52141 0 0 0 -1.51944 1.52339q.00007.05542.00418.11074 1.75218 24.42492-11.83339 43.8076a4.19294 4.19294 0 0 0 -.75883 2.541l1.62129 50.15132a4.34145 4.34145 0 0 0 4.30434 4.19018h33.53722a4.343 4.343 0 0 0 4.30693-4.26409l.62478-48.69283a8.78782 8.78782 0 0 0 -1.5104-5.01763z" fill="#e6e6e6" transform="translate(-156 -79.47583)"/><path d="m410.32009 596.66845h-29.19155a2.997 2.997 0 0 0 -2.96218 3.45276l4.41127 28.6732h25.33006l5.3581-28.57659a2.9971 2.9971 0 0 0 -2.9457-3.54937z" fill="#fff" transform="translate(-156 -79.47583)"/><path d="m409.23171 339.93829h-83.68771c5.85094-31.63336 4.50485-69.83172 0-110.91142h83.68771c-4.38503 41.07983-5.69536 79.27813 0 110.91142z" fill="#e6e6e6" transform="translate(-156 -79.47583)"/><circle cx="211.892" cy="201.98189" fill="#fff" r="20.16571"/><path d="m332.602 487.148h-83.68771c5.85093-31.63337 4.50485-69.83173 0-110.91143h83.68771c-4.385 41.07984-5.69536 79.27813 0 110.91143z" fill="#e6e6e6" transform="translate(-156 -79.47583)"/><circle cx="135.26229" cy="349.1916" fill="#fff" r="20.16571"/><path d="m456.62114 346.99629h-83.68771c5.85093-31.63336 4.50485-69.83172 0-110.91142h83.68771c-4.38504 41.07983-5.69536 79.27813 0 110.91142z" fill="#e6e6e6" transform="translate(-156 -79.47583)"/><circle cx="259.28142" cy="209.03989" fill="#fff" r="20.16571"/><path d="m456.62114 341.95487h-83.68771c5.85093-31.63337 4.50485-69.83173 0-110.91143h83.68771c-4.38504 41.07983-5.69536 79.27812 0 110.91143z" fill="#e6e6e6" transform="translate(-156 -79.47583)"/><circle cx="259.28142" cy="203.99847" fill="#fff" r="20.16571"/><path d="m456.62114 346.99629h-83.68771c5.85093-31.63336 4.50485-69.83172 0-110.91142h83.68771c-4.38504 41.07983-5.69536 79.27813 0 110.91142z" fill="#e6e6e6" transform="translate(-156 -79.47583)"/><circle cx="259.28142" cy="209.03989" fill="#fff" r="20.16571"/><path d="m45.52486 254.41275h274.25371v30.24857h-274.25371z" fill="#e6e6e6"/><path d="m45.52486 404.64732h274.25371v30.24857h-274.25371z" fill="#e6e6e6"/><path d="m45.52486 554.88188h274.25371v30.24857h-274.25371z" fill="#e6e6e6"/><path d="m952.85457 757.07471-68.32479-48.32553c23.04357-22.44766 44.00226-54.41107 64.04589-90.55092l68.32478 48.32553c-27.30163 31.00648-50.42905 61.4359-64.04588 90.55092z" fill="#f50057" transform="translate(-156 -79.47583)"/><circle cx="796.87342" cy="605.9822" fill="#fff" r="20.16571"/><path d="m623.26239 536.554h-7.5a.99435.99435 0 0 0 -.99435.99435v3.292a.99434.99434 0 0 0 .99435.99434h1.24285v4.93249h5.01427v-4.93249h1.24285a.99435.99435 0 0 0 .99435-.99434v-3.292a.99436.99436 0 0 0 -.99432-.99435z" fill="#e6e6e6" transform="translate(-156 -79.47583)"/><path d="m630.77443 566.68205a38.55843 38.55843 0 0 1 -6.708-22.86093.81323.81323 0 0 0 -.63476-.81152v-1.42245h-7.921v1.40268h-.10914a.81275.81275 0 0 0 -.8117.81381q0 .02961.00223.05916a35.18922 35.18922 0 0 1 -6.32157 23.40264 2.23989 2.23989 0 0 0 -.40537 1.35741l.86611 26.79155a2.31928 2.31928 0 0 0 2.29944 2.23846h17.91606a2.32008 2.32008 0 0 0 2.30082-2.27794l.33376-26.0124a4.69456 4.69456 0 0 0 -.80688-2.68047z" fill="#f50057" transform="translate(-156 -79.47583)"/><path d="m621.69892 537.62665a2.14526 2.14526 0 0 1 -4.29053 0" opacity=".2" transform="translate(-156 -79.47583)"/><path d="m456.16063 492.36817h15.12429v10.08286h-15.12429z" fill="#fff"/><path d="m860.60239 641.21767h-14.03927a1.86134 1.86134 0 0 0 -1.86134 1.86133v6.16226a1.86134 1.86134 0 0 0 1.86134 1.86132h2.32651v9.23317h9.38625v-9.23317h2.32651a1.86132 1.86132 0 0 0 1.86132-1.86132v-6.16226a1.86133 1.86133 0 0 0 -1.86132-1.86133z" fill="#e6e6e6" transform="translate(-156 -79.47583)"/><path d="m874.66423 697.61463a72.178 72.178 0 0 1 -12.55683-42.79358 1.52224 1.52224 0 0 0 -1.1882-1.51909v-2.6627h-14.82735v2.62568h-.2043a1.52142 1.52142 0 0 0 -1.51944 1.5234q.00008.05543.00418.11073 1.75218 24.42493-11.83339 43.80761a4.19289 4.19289 0 0 0 -.75883 2.54095l1.62129 50.15132a4.34146 4.34146 0 0 0 4.30434 4.19019h33.53722a4.343 4.343 0 0 0 4.30692-4.26409l.62479-48.69283a8.7878 8.7878 0 0 0 -1.5104-5.01759z" fill="#f50057" transform="translate(-156 -79.47583)"/><path d="m857.67571 643.22557a4.01574 4.01574 0 0 1 -8.03148 0" opacity=".2" transform="translate(-156 -79.47583)"/><path d="m869.35522 714.27331h-29.19155a2.997 2.997 0 0 0 -2.96218 3.45275l4.41126 28.67321h25.33007l5.3581-28.5766a2.9971 2.9971 0 0 0 -2.9457-3.54936z" fill="#fff" transform="translate(-156 -79.47583)"/><path d="m820.546 756.99571h-83.68773c5.85094-31.63336 4.50486-69.83172 0-110.91142h83.68773c-4.385 41.07982-5.69538 79.27812 0 110.91142z" fill="#f50057" transform="translate(-156 -79.47583)"/><circle cx="623.20627" cy="619.03931" fill="#fff" r="20.16571"/><path d="m322.243 328.466 18.787-1.708 11.956-29.034-21.349-11.956z" fill="#ffb8b8"/><path d="m650.66043 487.64986a10.59328 10.59328 0 0 0 -9.20188-14.51664l-29.16988-1.73941-4.2949 14.28206 30.02882 8.24691a10.59326 10.59326 0 0 0 12.63784-6.27292z" fill="#ffb8b8" transform="translate(-156 -79.47583)"/><path d="m619.33866 494.16267-.32093-26.79954-64.79286-10.33856-49.91534-57.24757a16.33816 16.33816 0 0 0 -21.29428-2.91186 16.33815 16.33815 0 0 0 -2.84636 24.922l41.17966 50.67767z" fill="#575a89" transform="translate(-156 -79.47583)"/><path d="m463.72552 795.64251h17.07932l42.36316-191.53337 43.88737 59.16871 25.619 128.09483h16.22535l-3.41586-137.48845-57.2157-146.88208h-56.36177c-15.40224 27.87449-27.48462 56.60826-13.66345 86.25052z" fill="#2f2e41" transform="translate(-156 -79.47583)"/><path d="m582.20449 807.27611a4.45733 4.45733 0 0 0 3.4756 5.71828l41.79324 7.41672a6.87646 6.87646 0 0 0 7.8008-4.71314 6.83384 6.83384 0 0 0 -3.34222-8.12572 63.9022 63.9022 0 0 1 -23.04833-20.0382c-4.59335 4.27726-9.7273 3.875-15.179.72281l-5.78247.72281z" fill="#2f2e41" transform="translate(-156 -79.47583)"/><path d="m455.81759 807.27611a4.45733 4.45733 0 0 0 3.4756 5.71828l41.79324 7.41672a6.87646 6.87646 0 0 0 7.8008-4.71314 6.83384 6.83384 0 0 0 -3.34222-8.12572 63.9022 63.9022 0 0 1 -23.04833-20.0382c-4.59335 4.27726-9.7273 3.875-15.179.72281l-5.78247.72281z" fill="#2f2e41" transform="translate(-156 -79.47583)"/><circle cx="353.41268" cy="284.48709" fill="#ffb8b8" r="23.91104"/><path d="m488.06354 513.40689 62.33946-1.70789-18.30772-57.61963c11.37738-18.23924-.073-36.46-16.27789-54.67684l-12.80948-8.53965-20.49517-1.70793a50.3141 50.3141 0 0 0 -13.54915 35.0504c.4058 27.82656 5.33293 58.11865 19.09995 89.20154z" fill="#575a89" transform="translate(-156 -79.47583)"/><path d="m631.29146 552.19152a10.59327 10.59327 0 0 0 -2.74926-16.96611l-26.1337-13.07429-9.567 11.441 24.36342 19.395a10.59327 10.59327 0 0 0 14.08654-.7956z" fill="#ffb8b8" transform="translate(-156 -79.47583)"/><path d="m599.933 545.85758 10.24759-24.765-55.50168-34.99377-23.37023-72.268a16.33817 16.33817 0 0 0 -18.43188-11.054 16.33815 16.33815 0 0 0 -12.42089 21.79283l17.92341 62.79126z" fill="#575a89" transform="translate(-156 -79.47583)"/><path d="m470.13027 354.5693c0 9.30389 6.04222 23.7124 13.66345 29.8888 5.12781 4.15568 11.90457 3.98066 14.51741-1.70793 2.68032-5.83557 11.91945-19.55229 28.18086-28.18087 21.67761-11.50252-7.68756-31.18152-28.18086-28.18086-15.39963 2.25485-28.18086 12.617-28.18086 28.18086z" fill="#2f2e41" transform="translate(-156 -79.47583)"/><circle cx="328.64768" cy="245.20468" fill="#2f2e41" r="17.07931"/><path d="m504.28889 318.70275a17.06865 17.06865 0 0 0 -15.79836-17.01463c.42437-.03158.84854-.06468 1.28094-.06468a17.07931 17.07931 0 0 1 0 34.15862c-.4324 0-.85657-.0331-1.28094-.06468a17.06869 17.06869 0 0 0 15.79836-17.01463z" fill="#2f2e41" transform="translate(-156 -79.47583)"/><ellipse cx="353.83966" cy="287.90296" fill="#ffb8b8" rx="3.84284" ry="5.12379"/><path d="m837.751 684.845h-265.872l-56.301-266.151h-48.049v-11.942h57.729l56.301 266.15h256.192z" fill="#3f3d56"/><circle cx="610.84102" cy="707.87676" fill="#3f3d56" r="25.59138"/><circle cx="801.92331" cy="707.87676" fill="#3f3d56" r="25.59138"/><path d="m988.90348 758.69673h-258.67842l-45.64133-225.55184h347.15138a12.2655 12.2655 0 0 1 12.11592 14.16689l-42.8333 201.0251a12.20374 12.20374 0 0 1 -12.11425 10.35985zm-255.86937-3.41219h255.86937a8.80568 8.80568 0 0 0 8.74205-7.47748l42.8333-201.0251a8.85014 8.85014 0 0 0 -8.74372-10.22489h-343.00944z" fill="#3f3d56" transform="translate(-156 -79.47583)"/><path d="m624.513 678.499-29.89-222.846 3.366-.556 29.89 222.846z" fill="#3f3d56"/><path d="m790.712 676.788-3.369-.546 29.017-221.14 3.369.546z" fill="#3f3d56"/><path d="m708.11491 455.37515h3.41218v222.84575h-3.41218z" fill="#3f3d56"/><path d="m865.45079 431.52231h3.41219v330.29569h-3.41219z" fill="#3f3d56" transform="matrix(.00242129 -.99999707 .99999707 .00242129 112.38887 1382.90398)"/><path d="m718.83766 700.96181h290.1779v3.41226h-290.1779z" fill="#3f3d56" transform="matrix(.99997664 -.0068357 .0068357 .99997664 -160.7831 -73.5538)"/><ellipse cx="472.64757" cy="411.01676" fill="#3f3d56" rx="18.76701" ry="10.23655"/></svg>