<svg t="1679060879855" class="icon" viewBox="0 0 1024 1024" version="1.1" xmlns="http://www.w3.org/2000/svg" p-id="2752" width="16" height="16"><path d="M390.21952 631.09248c-61.26464 34.01984-70.35136-19.09888-70.35136-19.09888l-76.78208-178.46656c-29.54368-84.80512 25.56928-38.23744 25.56928-38.23744s47.2896 35.63392 83.17952 57.34784c35.87072 21.71392 76.75776 6.3744 76.75776 6.3744l501.9648-230.7776C837.94688 113.4528 684.96256 38.4 511.76576 38.4 229.11104 38.4 0 238.13248 0 484.52864c0 141.72544 75.8656 267.8656 194.0352 349.62176l-21.31072 122.01856c0 0-10.38848 35.6224 25.61536 19.10016 24.53376-11.26528 87.0784-51.63392 124.30976-76.20224 58.53056 20.31616 122.2976 31.5968 189.14432 31.5968 282.63168 0 511.79008-199.73248 511.79008-446.13376 0-71.36896-19.31008-138.76864-53.51552-198.59456C810.14144 381.7792 438.15808 604.51712 390.21952 631.09248L390.21952 631.09248 390.21952 631.09248zM390.21952 631.09248" fill="#00BB9C" p-id="2753"></path></svg>