<svg height="48" viewBox="0 0 1024 1024" width="48" xmlns="http://www.w3.org/2000/svg"><path d="m976.922555 512.031687 44.923816-117.173086c4.927541-12.926796 1.087899-27.581431-9.727094-36.348614l-97.398928-78.968645-19.710164-123.956454c-2.175797-13.694724-12.926796-24.381729-26.62152-26.557526l-123.956455-19.710164-78.90465-97.462922c-8.703189-10.814993-23.677795-14.654635-36.28462-9.727094l-117.23708 44.987809-117.173086-44.923815c-12.99079-4.991535-27.517437-1.023905-36.284621 9.727094l-78.968644 97.462922-123.956454 19.710164a32.063014 32.063014 0 0 0 -26.557527 26.557526l-19.710164 123.956454-97.462921 78.968645c-10.750999 8.703189-14.654635 23.357824-9.727094 36.28462l44.923815 117.173086-44.923815 117.173086c-4.991535 12.926796-1.023905 27.581431 9.727094 36.28462l97.462921 78.904651 19.710164 123.956454c2.175797 13.694724 12.862802 24.445723 26.557527 26.62152l123.956454 19.710164 78.968644 97.398928a31.843034 31.843034 0 0 0 36.348615 9.727094l117.109092-44.859821 117.173086 44.923815a32.129007 32.129007 0 0 0 11.454933 2.111803c9.407124 0 18.686259-4.159613 24.893681-11.902891l78.90465-97.398928 123.956455-19.710164a32.057014 32.057014 0 0 0 26.62152-26.62152l19.710164-123.956454 97.398928-78.904651c10.814993-8.767183 14.654635-23.357824 9.727094-36.28462z" fill="#f44336"/><path d="m416.014801 448.037648c-52.923071 0-95.991059-43.067988-95.991059-95.991059s43.067988-95.991059 95.991059-95.991059 95.991059 43.067988 95.991059 95.991059-43.067988 95.991059-95.991059 95.991059zm0-127.988079c-17.662355 0-31.99702 14.334665-31.99702 31.99702s14.334665 31.99702 31.99702 31.997019 31.99702-14.334665 31.997019-31.997019-14.334665-31.99702-31.997019-31.99702zm191.982118 447.958275c-52.923071 0-95.991059-43.067988-95.991059-95.991059s43.067988-95.991059 95.991059-95.991059 95.991059 43.067988 95.991059 95.991059-43.067988 95.991059-95.991059 95.991059zm0-127.988078c-17.598361 0-31.99702 14.398659-31.99702 31.997019s14.398659 31.99702 31.99702 31.99702 31.99702-14.398659 31.997019-31.99702-14.398659-31.99702-31.997019-31.997019zm-255.976158 127.988078c-6.463398 0-12.926796-1.919821-18.558271-5.951445-14.398659-10.30304-17.726349-30.269181-7.423309-44.66784l319.970197-447.958275c10.30304-14.398659 30.269181-17.726349 44.667839-7.423309 14.398659 10.239046 17.662355 30.269181 7.423309 44.603846l-319.970197 447.958275c-6.33541 8.767183-16.126498 13.438748-26.109568 13.438748z" fill="#fafafa"/></svg>