<svg height="48" viewBox="0 0 1890 1024" width="88.59375" xmlns="http://www.w3.org/2000/svg"><g fill="#ff0042"><path d="m1260.308 484.43c-3.939 3.94-3.939 7.878-3.939 23.632v74.83h118.154v-102.4h-90.585c-11.815-3.938-19.692 0-23.63 3.939zm-3.939 240.247c0 11.815 0 23.63 3.939 27.57 3.938 3.938 7.877 3.938 15.754 3.938h94.523v-110.277h-118.155v78.769zm263.877-248.123h-82.708v102.4h114.216v-78.77c0-7.876 0-15.753-3.939-19.692-3.938 0-11.815-3.938-27.569-3.938zm-82.708 279.63h74.831c19.693 0 31.508 0 31.508-3.938 3.938-3.938 3.938-11.815 3.938-23.63v-86.647h-114.215v114.216z"/><path d="m1732.923 0h-1575.385c-86.646 0-157.538 70.892-157.538 157.538v708.924c0 86.646 70.892 157.538 157.538 157.538h1575.385c86.646 0 157.539-70.892 157.539-157.538v-708.924c0-86.646-70.893-157.538-157.539-157.538zm-823.138 819.2c-47.262-3.938-82.708-11.815-110.277-19.692-35.446-11.816-70.893-35.446-110.277-63.016-31.508-23.63-55.139-47.261-70.893-74.83-7.876-11.816-19.692-31.508-31.507-55.139-19.693 39.385-35.446 66.954-51.2 82.708-23.631 27.569-51.2 51.2-86.646 74.83-39.385 23.631-78.77 39.385-118.154 47.262-15.754 3.939-39.385 3.939-66.954 7.877v-63.015c31.508 0 66.954-7.877 102.4-23.631 59.077-23.63 102.4-63.016 133.908-110.277 19.692-27.57 35.446-66.954 47.261-114.215h-275.692v-66.954h287.508v-133.908h-275.693v-63.015h618.339v66.953h-275.693v137.847h287.508v66.953h-283.57c3.94 27.57 15.755 55.139 31.509 86.647 27.569 51.2 66.953 90.584 118.153 122.092 19.693 11.815 43.323 19.692 74.831 27.57 23.63 7.876 43.323 7.876 55.139 7.876h7.877v59.077zm240.246-527.754c0 7.877-3.939 23.63-11.816 51.2 3.939 15.754 7.877 23.63 7.877 35.446s3.939 27.57 3.939 51.2v212.678c0 47.262-15.754 90.585-43.323 122.093-23.631 23.63-51.2 43.323-82.708 51.2-11.815 3.938-23.63 7.876-43.323 7.876v-63.015c43.323-7.877 74.83-27.57 90.585-59.077 7.876-15.754 11.815-39.384 11.815-66.954v-43.323c-19.692 15.754-35.446 23.631-51.2 31.508-11.815 3.938-31.508 7.877-51.2 11.815v-63.015c27.57-3.939 47.261-11.815 59.077-23.63 23.63-19.693 39.384-39.385 43.323-66.955 0-11.815 3.938-31.507 3.938-63.015-15.753 11.815-35.446 23.63-47.261 27.57-15.754 7.876-35.446 7.876-55.139 11.815v-63.016c39.385-7.877 66.954-23.63 78.77-47.261-23.631-27.57-51.2-43.323-82.708-43.323v-66.954c23.63 3.938 43.323 7.877 59.077 11.815 15.754 3.939 31.508 15.754 47.261 27.57v-43.324h63.016v59.077zm464.738 464.739c0 19.692-3.938 35.446-15.754 47.261-11.815 11.816-23.63 15.754-43.323 15.754h-295.384c-43.323 0-66.954-23.63-66.954-66.954v-267.815c0-23.631 3.938-39.385 15.754-51.2 11.815-11.816 23.63-15.754 43.323-15.754h299.323c19.692 0 35.446 3.938 47.261 15.754 11.816 11.815 15.754 27.569 15.754 43.323v279.63zm3.939-417.477h-51.2v55.138h-63.016v-55.138h-204.8v55.138h-63.015v-55.138h-51.2v-63.016h51.2v-43.322h63.015v43.323h204.8v-43.323h63.016v43.323h51.2v63.016z"/></g></svg>