<svg height="48" viewBox="0 0 1890 1024" width="88.59375" xmlns="http://www.w3.org/2000/svg"><path d="m1732.923 0h-1575.385c-86.646 0-157.538 70.892-157.538 157.538v708.924c0 86.646 70.892 157.538 157.538 157.538h1575.385c86.646 0 157.539-70.892 157.539-157.538v-708.924c0-86.646-70.893-157.538-157.539-157.538zm-1327.261 807.385h-137.847v-63.016h137.847zm0-263.877h-137.847v-63.016h137.847zm0-240.246h-137.847v-63.016h137.847zm326.892 492.307h-212.677c-43.323 0-63.015-19.692-63.015-63.015v-98.462h63.015v70.893c0 7.877 0 15.753 3.938 19.692 3.939 3.938 7.877 7.877 19.693 7.877h47.261v-137.846h-137.846v-63.016h137.847v-66.954h-66.954c-15.753 23.631-43.323 35.447-70.892 39.385v-70.892c19.692-3.939 27.57-23.631 31.508-59.077h66.954v23.63h244.184v63.016h-137.847v66.954h133.908v63.015h-133.908v137.846h51.2c7.877 0 11.815-3.938 15.754-7.877 3.938-3.938 3.938-11.815 3.938-23.63v-66.954h63.016v94.523c0 19.692-3.939 35.446-11.816 43.323-15.753 19.692-27.569 27.57-47.261 27.57zm173.292-78.769c0 35.446-7.877 59.077-23.63 74.83-19.693 19.693-43.324 27.57-70.893 27.57h-23.63v-63.015h15.753c11.816 0 23.63-3.939 27.57-11.816 3.938-7.877 7.876-23.63 7.876-47.261v-322.954c0-27.57-15.754-43.323-47.261-43.323h-279.631c-19.692 27.569-43.323 51.2-70.892 66.954v-78.77c11.815-15.753 23.63-27.569 27.569-39.384 3.938-11.816 7.877-27.57 11.815-47.262h63.016l-7.877 35.446h279.63c27.57 0 51.2 7.877 66.954 23.631s27.57 39.385 27.57 66.954v358.4zm712.862 106.338h-641.97v-66.953h287.508v-110.277h-283.57v-63.016h283.57v-86.646h-283.57v-63.015h630.155v63.015h-283.57v86.646h283.57v63.016h-283.57v110.277h153.6v-59.077h63.016v59.077h70.892v66.953zm0-425.353h-63.016v-39.385c0-11.815-3.938-19.692-15.754-27.57-3.938-3.938-15.753-7.876-27.569-7.876h-429.292c-15.754 0-27.57 3.938-31.508 11.815-7.877 7.877-7.877 19.693-7.877 27.57v31.507h-63.015v-43.323c0-23.63 7.877-43.323 27.57-63.015 15.753-15.754 39.384-23.631 63.015-23.631h196.923v-31.508h63.015v31.508h181.17c23.63 0 39.384 0 51.2 3.938 15.753 3.939 27.568 15.754 39.384 27.57 11.815 15.753 19.692 31.507 19.692 43.323v59.077z" fill="#ff4200"/></svg>