<svg height="200" viewBox="0 0 1061 1024" width="207.226563" xmlns="http://www.w3.org/2000/svg"><path d="m1038.989436 337.823661c0 172.955034-106.974205 313.048611-238.935862 313.048611h-238.935862v-313.048611c0-172.955034 106.974205-313.048611 238.935862-313.048611s238.935862 140.154263 238.935862 313.048611z" fill="#fff"/><path d="m800.053574 24.790221h-530.729209c-131.961657 0-238.981377 140.139092-238.981377 313.03344v559.706763a98.523683 98.523683 0 0 0 98.614713 98.523684h333.636328a98.523683 98.523683 0 0 0 98.523683-98.523684v-246.64298" fill="#fff"/><path d="m798.126795 22.787584a185.638403 185.638403 0 0 0 -32.497341 3.201186c98.857456 45.635854 169.814534 168.737358 169.814534 313.883043 0 144.887769-70.744677 267.822387-169.329046 313.655471h32.011853c132.932632 0 240.695755-141.201096 240.695755-315.36985s-107.747952-315.36985-240.695755-315.36985z" fill="#65a347"/><path d="m955.303474 325.686466c0-139.259145-65.237425-258.41606-157.904911-308.16339-92.546115 49.747329-157.88974 168.904245-157.88974 308.16339v333.090154h61.550752c140.412179 0 254.2439-149.135788 254.243899-333.090154z" fill="#9bd37a"/><path d="m564.531299 653.512112v248.493903c0 54.814608-34.894437 99.251915-77.905623 99.251915h-263.89297c-43.026358 0-77.905623-44.437306-77.905623-99.251915v-563.863753c0-174.168753 84.596252-315.354678 188.945789-315.354678h419.704215c-104.364708 0-188.945789 141.185925-188.945788 315.354678z" fill="#ffac1f"/><path d="m445.177154 653.512112v248.493903c0 54.814608-58.774368 99.251915-91.529625 99.251915h-187.883784c-32.740084 0-59.290199-44.437306-59.290199-99.251915v-563.863753c0-174.168753 64.37265-315.354678 143.765079-315.354678h370.943033c-79.407601 0-175.989333 141.201096-175.989333 315.36985z" fill="#fecd57"/><g fill="#231815"><path d="m798.126795 676.254182h-263.437825v-338.11192c0-186.396977 118.185939-338.111919 263.437825-338.111919 109.720246 0 206.22612 84.626595 245.672005 215.586932a22.757241 22.757241 0 1 1 -43.527017 13.153686c-33.620031-111.328425-112.951774-183.226135-202.144988-183.226135-120.173405 0-217.953685 131.278939-217.953686 292.627779v292.597437h217.953686c116.517075 0 212.127832-122.312586 217.726113-278.442433a22.757241 22.757241 0 1 1 45.514482 1.62335c-6.523742 180.722839-122.115357 322.303222-263.240595 322.303223zm-339.947671 347.745818h-336.185139a122.130528 122.130528 0 0 1 -121.993985-121.993985v-563.863753c0-186.396977 118.18594-338.111919 263.452997-338.111919h70.213675a22.757241 22.757241 0 1 1 0 45.514483h-70.213675c-120.173406 0-217.938514 131.248596-217.938514 292.597436v563.863753a76.600874 76.600874 0 0 0 76.479502 76.585703h336.185139a76.600874 76.600874 0 0 0 76.509846-76.509845 22.757241 22.757241 0 1 1 45.514482 0 122.130528 122.130528 0 0 1 -122.024328 121.918127z"/><path d="m557.431039 796.533788a22.757241 22.757241 0 0 1 -22.757241-22.757242v-435.634284c0-124.815883 52.963686-234.050641 131.567198-292.627779h-198.958975a22.757241 22.757241 0 0 1 0-45.514483h330.738573v45.544826c-120.173405 0-217.953685 131.278939-217.953685 292.627779v435.603941a22.757241 22.757241 0 0 1 -22.63587 22.757242z"/><path d="m790.434847 492.345329c-26.534943 0-50.414875-16.901045-67.224891-47.577805-14.412919-26.368057-22.362782-60.898378-22.362782-97.309964 0-82.593614 38.535595-144.872598 89.618016-144.872598s89.618016 62.278984 89.618016 144.872598-38.535595 144.887769-89.648359 144.887769zm0-244.261056c-17.993392 0-44.133877 38.717653-44.133877 99.388458 0 28.461723 6.068598 55.952471 16.794845 75.432669 8.22295 15.004608 18.433365 23.955789 27.308689 23.95579 17.993392 0 44.133877-38.717653 44.133877-99.388459s-26.09497-99.388458-44.103534-99.388458z"/></g></svg>