<svg height="200" viewBox="0 0 1024 1024" width="200" xmlns="http://www.w3.org/2000/svg"><path d="m859.7 583c13.5 0 24.6 11 24.6 24.6s-11 24.6-24.6 24.6h-19.1c-36.1 0-65.5 29.4-65.5 65.5v122.9c0 24.1-19.6 43.7-43.7 43.7h-436.8c-24.1 0-43.7-19.6-43.7-43.7v-122.9c0-36.1-29.4-65.5-65.5-65.5h-19.1c-13.5 0-24.6-11-24.6-24.6s11-24.6 24.6-24.6zm0-43.7h-693.4c-37.7 0-68.3 30.6-68.3 68.3s30.6 68.3 68.3 68.3h19.1c12.1 0 21.8 9.8 21.8 21.8v122.9c0 48.3 39.1 87.4 87.4 87.4h436.8c48.3 0 87.4-39.1 87.4-87.4v-122.9c0-12.1 9.8-21.8 21.8-21.8h19.1c37.7 0 68.3-30.6 68.3-68.3s-30.6-68.3-68.3-68.3zm-111.3-146.5c9.7 0 18.1 6.2 20.9 15.5l12.4 40.9h-537.4l12.4-40.9c2.8-9.3 11.2-15.5 20.9-15.5zm0-43.7h-470.8c-28.9 0-54.3 18.9-62.7 46.5l-21 69.1c-4.3 14 6.2 28.2 20.9 28.2h596.3c14.7 0 25.2-14.2 20.9-28.2l-21-69.1c-8.3-27.6-33.8-46.5-62.6-46.5z" fill="#436daa"/><path d="m418.3 379.7c-12.1 0-21.8-10.3-21.8-22.4 0-82.5 233-82.5 233 0 0 12.1-9.8 21.8-21.8 21.8s-21.8-9.8-21.8-21.8c-2.4-4.6-27.8-19.1-72.8-19.1s-70.4 14.5-73 20.2c-.1 12.1-9.8 21.3-21.8 21.3z" fill="#436daa"/><path d="m357.4 254.9c-5.6 0-11.2-2.1-15.4-6.4l-33.7-33.7c-17-17-17-44.8 0-61.8l31-31c8.5-8.5 22.4-8.5 30.9 0s8.5 22.4 0 30.9l-31 31 33.7 33.7c8.5 8.5 8.5 22.4 0 30.9-4.3 4.3-9.9 6.4-15.5 6.4zm112.5 0c-5.6 0-11.2-2.1-15.4-6.4l-33.7-33.7c-17-17-17-44.8 0-61.8l31-31c8.5-8.5 22.4-8.5 30.9 0s8.5 22.4 0 30.9l-31 31 33.7 33.7c8.5 8.5 8.5 22.4 0 30.9-4.3 4.3-9.9 6.4-15.5 6.4zm112.6 0c-5.6 0-11.2-2.1-15.4-6.4l-33.7-33.7c-17-17-17-44.8 0-61.8l31-31c8.5-8.5 22.4-8.5 30.9 0s8.5 22.4 0 30.9l-31 31 33.7 33.7c8.5 8.5 8.5 22.4 0 30.9-4.4 4.3-9.9 6.4-15.5 6.4zm112.5 0c-5.6 0-11.2-2.1-15.4-6.4l-33.7-33.7c-17-17-17-44.8 0-61.8l31-31c8.5-8.5 22.4-8.5 30.9 0s8.5 22.4 0 30.9l-31 31 33.7 33.7c8.5 8.5 8.5 22.4 0 30.9-4.3 4.3-9.9 6.4-15.5 6.4z" fill="#ffbc00"/></svg>