<svg height="200" viewBox="0 0 1024 1024" width="200" xmlns="http://www.w3.org/2000/svg"><path d="m708.45333333 321.15804445c-19.78773333 69.3952-70.784 115.6128-113.9072 103.2384-43.11146667-12.38826667-62.02773333-78.69226667-42.24106666-148.0864 19.8016-69.3952 70.79786667-115.61386667 113.9072-103.23946667 43.12426667 12.38826667 62.0288 78.69333333 42.24106666 148.08746667zm-341.07093333-161.76746667c-44.28906667 7.09973333-70.99733333 70.63786667-59.6576 141.91253334 11.3408 71.28213333 56.43093333 123.3184 100.72 116.2176 44.28906667-7.09333333 71.0112-70.63146667 59.6576-141.90506667-11.32586667-71.2832-56.43093333-123.32586667-100.72-116.22506667zm-184.05013333 193.0208c-41.1552 16.4384-55.10613333 78.69973333-31.168 139.05813334 23.9392 60.352 76.71466667 95.95626667 117.87093333 79.51893333 41.1552-16.4384 55.10613333-78.70613333 31.15413333-139.06453333-23.952-60.35306667-76.71466667-95.95733333-117.85706666-79.51253334zm659.4592 29.248c-37.216-15.7344-86.2368 15.1072-109.49333334 68.88-23.25546667 53.77386667-11.94026667 110.12373333 25.27466667 125.84853334 37.21493333 15.7344 86.23573333-15.1072 109.49226667-68.88213334 23.2576-53.7728 11.92853333-110.12373333-25.2736-125.8464z" fill="#b28247"/><path d="m372.9504 841.07164445h-.01066667c-39.79946667-.00213333-72.0608-12.128-95.88906666-36.04053333-18.1696-18.23466667-33.52853333-55.1424-3.51253334-127.42613334 19.73013333-47.51253333 55.2768-100.16853333 95.08906667-140.8576 33.61066667-34.3488 84.864-75.29386667 138.16426667-75.29386666 1.53706667 0 3.08693333.0352 4.60693333.10453333 36.49386667 1.664 79.12746667 20.19306667 120.04266667 52.17386667 38.368 29.9904 71.5456 68.54933333 93.424 108.57493333 32.47786667 59.41973333 36.51626667 116.064 11.37173333 159.4944-19.26186667 33.26933333-50.4768 50.13866667-92.7808 50.13866667-24.3872 0-48.7488-5.34293333-72.30826667-10.50986667-18.5568-4.06933333-36.08426667-7.9136-49.0496-7.9136-2.6304 0-4.944.1632-6.8768.48746667-10.42453333 1.744-23.9584 5.3248-38.28693333 9.11573333-30.2272 7.99893333-67.84746667 17.952-103.984 17.952zm133.84106667-315.61813333c-23.5264 0-58.07573333 20.95466667-92.42026667 56.0544-34.40853333 35.16586667-64.96106667 80.26453333-81.72693333 120.64106666-16.4672 39.65653333-11.85066667 56.11093333-10.2592 57.70773334 11.7024 11.744 27.76853333 17.21493333 50.55893333 17.216h.00746667c27.8144 0 59.58186667-8.40533333 87.6128-15.82186667 15.80586667-4.1824 30.736-8.13226667 44.09493333-10.368 5.4144-.9056 11.28-1.36426667 17.43893333-1.36426667 19.9008 0 41.6896 4.7776 62.75946667 9.39946667 20.22933333 4.43626667 41.14666667 9.024 58.59946667 9.024 22.288 0 31.06773333-7.27786667 37.39413333-18.2048 18.22933333-31.48586667.21653333-74.12053333-12.144-96.7328-35.8944-65.67146667-110.76586667-125.25653333-160.22293333-127.51146667a35.456 35.456 0 0 0 -1.6928-.03946666z" fill="#4b4567"/></svg>