<svg height="200" viewBox="0 0 1024 1024" width="200" xmlns="http://www.w3.org/2000/svg"><path d="m733.83 203.75 5.5-10.22a15.78 15.78 0 0 1 20.49-6.87c14.15 6.52 37.48 16 59.34 19.32a15.75 15.75 0 0 1 13.25 13.77 129.78 129.78 0 0 0 3.31 17.73c3.28 12.59-9.32 23.52-21.34 18.52l-72.69-30.16a15.79 15.79 0 0 1 -7.86-22.09z" fill="#26251e"/><path d="m886.77 374.46v61.23c0 111.22-54.29 209.77-137.81 270.58-1.07-32.5-3.55-65.62-7.52-99.15q-.86-7.21-1.8-14.39a245.32 245.32 0 0 0 29.71-44.39 241.71 241.71 0 0 0 27.42-112.65v-61.23a57.71 57.71 0 0 0 -57.64-57.64h-72a863.74 863.74 0 0 0 -43.62-90h115.62a147.64 147.64 0 0 1 147.64 147.64z" fill="#ffd72e"/><path d="m749 706.27q.81 24.42.56 48.34s-110.46 15.56-306.16 15.56-306.12-15.56-306.12-15.56a1156.63 1156.63 0 0 1 8.08-147.49q5.78-48.76 15.25-95.26c20.16-99.38 52.28-189.92 92.71-266.64a732.09 732.09 0 0 1 51.74-84.39h276.68a717.11 717.11 0 0 1 41.74 66 863.74 863.74 0 0 1 43.62 90c34.11 81.88 59.4 175.36 72.54 275.91q.95 7.17 1.8 14.39c3.97 33.52 6.45 66.64 7.56 99.14z" fill="#fff"/><path d="m749.52 754.61a1013.37 1013.37 0 0 1 -16.41 174.22h-579.42a1013.37 1013.37 0 0 1 -16.41-174.22s110.42 15.56 306.12 15.56 306.12-15.56 306.12-15.56zm-259.2 90c0-10.49-21-19-46.92-19s-46.92 8.51-46.92 19 21 19 46.92 19 46.92-8.51 46.92-19z" fill="#ffd72e"/><path d="m396.48 844.61a46.92 19 0 1 0 93.84 0 46.92 19 0 1 0 -93.84 0z" fill="#26251e"/><path d="m137.22 245.22h116.1c-40.43 76.72-72.55 167.26-92.71 266.64 13.3-166.86-23.39-266.64-23.39-266.64z" fill="#ffd72e"/><g fill="#26251e"><path d="m733.11 950.09h-579.42a21.26 21.26 0 0 1 -20.9-17.38 1035.26 1035.26 0 0 1 -16.79-177.88 1181.08 1181.08 0 0 1 8.23-150.2c3.87-32.64 9.09-65.27 15.53-97 20.26-99.85 52.13-191.47 94.74-272.32a755.44 755.44 0 0 1 53.25-86.84 21.26 21.26 0 0 1 17.3-8.9h276.69a21.26 21.26 0 0 1 17.3 8.9 740.63 740.63 0 0 1 43 67.95 887.28 887.28 0 0 1 44.7 92.22c36 86.42 60.9 181.07 74 281.34.64 4.85 1.26 9.79 1.83 14.65 4 33.63 6.56 67.6 7.66 100.95.54 16.35.73 32.92.57 49.25a1035.25 1035.25 0 0 1 -16.8 177.88 21.26 21.26 0 0 1 -20.89 17.38zm-561.56-42.52h543.71a1003.55 1003.55 0 0 0 13-153.17c.16-15.72 0-31.68-.55-47.42-1.06-32.16-3.54-64.91-7.38-97.35-.55-4.68-1.15-9.42-1.76-14.11-12.62-96.57-36.57-187.58-71.09-270.52a844.62 844.62 0 0 0 -42.54-87.77c-10.85-19.33-22.34-37.84-34.25-55.13h-254.57a723.47 723.47 0 0 0 -44 73c-40.15 76.19-71.51 166.42-90.68 261-6.21 30.58-11.24 62.05-15 93.53a1138.19 1138.19 0 0 0 -7.93 144.78 1003.55 1003.55 0 0 0 13.04 153.16z"/><path d="m181.81 513.55-42.38-3.38c3.67-46 5.56-116.15-6.25-189.28-7.07-43.76-15.82-68.13-15.91-68.38a21.28 21.28 0 0 1 20-28.56h116.1v42.52h-87.82c10.45 41.82 25.77 127.67 16.26 247.08zm579.67 209.91-25-34.37a316.09 316.09 0 0 0 93.88-109 309.69 309.69 0 0 0 35.18-144.38v-61.25a126.52 126.52 0 0 0 -126.41-126.38h-115.65v-42.52h115.65c93.13 0 168.9 75.77 168.9 168.9v61.23a355.29 355.29 0 0 1 -146.55 287.77z"/><path d="m755.92 606.41-32.56-27.35a224.11 224.11 0 0 0 27.13-40.54 220.63 220.63 0 0 0 25-102.83v-61.23a36.42 36.42 0 0 0 -36.38-36.38h-72v-42.52h72a79 79 0 0 1 78.9 78.9v61.23a262.75 262.75 0 0 1 -29.82 122.46 266.77 266.77 0 0 1 -32.27 48.26zm-312.52 185.02c-194.95 0-304.52-15.12-309.09-15.77l5.93-42.1c1.09.15 111.54 15.35 303.15 15.35 192 0 302.06-15.2 303.15-15.35l5.93 42.1c-4.55.65-114.12 15.77-309.07 15.77z"/></g><path d="m305.06 160.84h273.22c0-36.27-60.39-65.67-134.88-65.67s-134.88 29.4-134.88 65.67" fill="#fff"/><path d="m578.28 182.1h-273.22v-21.26h-17.8c0-26.12 18.28-49.39 51.46-65.55 28.28-13.79 65.5-21.38 104.68-21.38s76.36 7.59 104.68 21.38c33.18 16.16 51.46 39.44 51.46 65.55a21.26 21.26 0 0 1 -21.26 21.26zm-231.68-42.52h193.61a96.15 96.15 0 0 0 -10.74-6.06c-22.31-10.86-53.68-17.09-86.07-17.09s-63.76 6.23-86.07 17.09a96.22 96.22 0 0 0 -10.73 6.06z" fill="#26251e"/></svg>