<svg height="200" viewBox="0 0 1024 1024" width="200" xmlns="http://www.w3.org/2000/svg"><path d="m700.7 182.2c-5.7-40.5-40.3-70.6-81.2-70.6h-214.8c-40.9 0-75.6 30.1-81.2 70.6-5.7 40.5-40.3 70.6-81.2 70.6h-93.7c-45.3 0-82 36.7-82 82v499.6c0 45.3 36.7 82 82 82h727.1c45.3 0 82-36.7 82-82v-499.5c0-45.3-36.7-82-82-82h-93.7c-41 0-75.6-30.2-81.3-70.7z" fill="#fab001"/><path d="m700.7 182.2c-5.7-40.5-40.3-70.6-81.2-70.6h-214.8c-40.9 0-75.6 30.1-81.2 70.6-5.7 40.5-40.3 70.6-81.2 70.6h-93.7c-45.3 0-82 36.7-82 82v499.6c0 45.3 36.7 82 82 82h727.1c45.3 0 82-36.7 82-82v-499.5c0-45.3-36.7-82-82-82h-93.7c-41 0-75.6-30.2-81.3-70.7z" fill="#fab001"/><path d="m79.6 844h727.1c45.3 0 82-36.7 82-82v-499.6c0-2.9-.1-5.7-.4-8.4-4.1-.6-8.3-1.1-12.7-1.1h-93.7c-40.9 0-75.6-30.1-81.2-70.6-5.7-40.5-40.3-70.6-81.2-70.6h-214.8c-40.9 0-75.6 30.1-81.2 70.6-5.7 40.5-40.3 70.6-81.2 70.6h-93.7c-45.3 0-82 36.7-82 82v499.6c0 2.9.1 5.7.4 8.4 4 .7 8.3 1.1 12.6 1.1z" fill="#f9e48a"/><path d="m888.3 253.9c-4.1-.6-8.3-1.1-12.7-1.1h-93.7c-40.9 0-75.6-30.1-81.2-70.6-1.1-8.2-3.7-15.7-7-22.9-10.7-2.7-23-5.2-40.2-5.2h-180.7c-40.9 0-75.6 30.1-81.2 70.6-5.7 40.5-40.3 70.6-81.2 70.6h-93.7c-45.3 0-82 36.7-82 82v466.7h672.1c45.3 0 82-36.7 82-82v-499.6c-.1-2.9-.3-5.7-.5-8.5z" fill="#fece0a"/><path d="m331.9 538.2a180.2 180.2 0 1 0 360.4 0 180.2 180.2 0 1 0 -360.4 0z" fill="#39afda"/><path d="m650.4 503.2c0-45.8-17.2-87.5-45.3-119.2-27.2-16.4-58.9-26-93-26-99.5 0-180.2 80.7-180.2 180.2 0 45.4 16.9 86.7 44.6 118.4.3.3.5.6.8.8 27.2 16.4 58.9 26 92.9 26 99.5 0 180.2-80.7 180.2-180.2z" fill="#52c5f8"/></svg>