<svg height="200" viewBox="0 0 1024 1024" width="200" xmlns="http://www.w3.org/2000/svg"><path d="m683.8 308.2h.1zm151 43.1c23.8 0 43.1 19.3 43.1 43.1v43.1c0 23.8-19.3 43.1-43.1 43.1h-46.7c-47.6 0-86.3 38.7-86.3 86.3v275c0 23.8-19.3 43.1-43.1 43.1h-292.9c-23.8 0-43.1-19.3-43.1-43.1v-274.9c0-47.6-38.7-86.3-86.3-86.3h-48.5c-23.8 0-43.1-19.3-43.1-43.1v-43.1c0-23.8 19.3-43.1 43.1-43.1h156.4c19.2 74.3 86.8 129.4 167.1 129.4s147.9-55.1 167.1-129.4h156.3m0-43.2h-194.1c0 71.5-57.9 129.4-129.4 129.4s-129.4-57.9-129.4-129.4h-194c-47.6 0-86.3 38.6-86.3 86.3v43.1c0 47.6 38.6 86.3 86.3 86.3h48.5c23.8 0 43.1 19.3 43.1 43.1v275c0 47.6 38.6 86.3 86.3 86.3h292.9c47.6 0 86.3-38.6 86.3-86.3v-275c0-23.8 19.3-43.1 43.1-43.1h46.7c47.6 0 86.3-38.6 86.3-86.3v-43.1c0-47.7-38.7-86.3-86.3-86.3z" fill="#436daa"/><g fill="#ffbc00"><path d="m511.3 335.4c-11.9 0-21.6-9.6-21.6-21.6v-45.8c-37.2-9.6-64.7-43.4-64.7-83.5 0-47.6 38.7-86.3 86.3-86.3s86.3 38.7 86.3 86.3c0 11.9-9.7 21.6-21.6 21.6s-21.6-9.6-21.6-21.6c0-23.8-19.3-43.1-43.1-43.1s-43.1 19.4-43.1 43.1 19.3 43.1 43.1 43.1c11.9 0 21.6 9.6 21.6 21.6v64.7c0 11.9-9.7 21.5-21.6 21.5z"/><path d="m597.6 335.4h-172.5c-11.9 0-21.6-9.6-21.6-21.6 0-11.9 9.7-21.6 21.6-21.6h172.5c11.9 0 21.6 9.6 21.6 21.6s-9.7 21.6-21.6 21.6z"/></g></svg>