<svg height="200" viewBox="0 0 1024 1024" width="200" xmlns="http://www.w3.org/2000/svg"><path d="m717.7 466.5 40.4 40.4c7.4 7.4 7.4 19.5 0 27l-377.4 377.4c-7.4 7.4-19.5 7.4-27 0l-40.4-40.4c-7.4-7.4-7.4-19.5 0-27l377.4-377.4c7.5-7.5 19.5-7.5 27 0z" fill="#00e7dd"/><path d="m441.8 401.1c-7.4-7.4-19.4-7.4-26.8 0s-7.4 19.4 0 26.8l80.5 80.5c7.4 7.4 19.4 7.4 26.8 0s7.4-19.4 0-26.8zm-80.5 80.5c-7.4-7.4-19.4-7.4-26.8 0s-7.4 19.4 0 26.8l80.5 80.5c7.4 7.4 19.4 7.4 26.8 0s7.4-19.4 0-26.8zm456.1-295.1c-22.2-22.2-58.3-22.2-80.5 0l-13.4 13.4c-14.8-14.8-38.8-14.8-53.7 0l-26.8 26.8-13.4-13.4c-22.2-22.2-58.3-22.2-80.5 0l-13.4 13.4c-5.1 5.1-9 11-11.8 17.2-29.5-19.5-69.6-16.3-95.5 9.6l-322 322c-29.6 29.6-29.6 77.7 0 107.3l214.6 214.6c29.6 29.6 77.7 29.6 107.3 0l322-322c26-26 29.2-66.1 9.6-95.5 6.2-2.8 12.1-6.7 17.2-11.8l13.4-13.4c22.2-22.2 22.2-58.3 0-80.5l-13.4-13.4 26.8-26.8c14.8-14.8 14.8-38.8 0-53.7l13.4-13.4c22.3-22.1 22.3-58.2.1-80.4zm-93.9 362.2-322 321.9c-14.8 14.8-38.8 14.8-53.7 0l-214.5-214.6c-14.8-14.8-14.8-38.8 0-53.7l322-322c14.8-14.8 38.8-14.8 53.7 0l214.5 214.7c14.8 14.9 14.8 38.9 0 53.7zm40.3-120.7-13.4 13.4c-7.4 7.4-19.4 7.4-26.8 0l-161-161c-7.4-7.4-7.4-19.4 0-26.8l13.4-13.4c7.4-7.4 19.4-7.4 26.8 0l161 161c7.4 7.3 7.4 19.4 0 26.8zm-13.5-147.6 26.8 26.8-26.8 26.8-80.5-80.5 26.8-26.8 26.8 26.8 53.7-53.7 26.8 26.8zm-469.5 281.7c-7.4-7.4-19.4-7.4-26.8 0s-7.4 19.4 0 26.8l80.5 80.5c7.4 7.4 19.4 7.4 26.8 0s7.4-19.4 0-26.8z" fill="#008cff"/></svg>