<svg height="200" viewBox="0 0 1024 1024" width="200" xmlns="http://www.w3.org/2000/svg"><path d="m24.4264 368 907.2-216s92.8 17.6 92.8 139.2 8 416-390.4 545.6-728-105.6-609.6-468.8z" fill="#e1b305"/><path d="m24.4264 368 897.6-216s84.8 8 92.8 112-17.6 432-270.4 528-736 60.8-660.8-406.4z" fill="#f3e8aa"/><path d="m24.4264 368 897.6-216s25.6 0 17.6 8c-20.8 22.4-820.8 225.6-830.4 233.6s-92.8 0-84.8-25.6z" fill="#eed883"/><g fill="#f1da28"><path d="m515.6264 350.4s0 51.2-51.2 86.4-136 155.2-203.2 164.8c-67.2 8-102.4-60.8-102.4-112 0-35.2-25.6-68.8 17.6-86.4s297.6-86.4 339.2-52.8zm59.2 43.2s17.6-17.6 25.6 0 25.6 51.2 0 147.2-51.2 225.6-110.4 216c-59.2-8-211.2 0-177.6-104s262.4-259.2 262.4-259.2zm59.2 9.6s-8-25.6 17.6-35.2 92.8 68.8 102.4 112 76.8 172.8 0 225.6c-76.8 51.2-76.8 51.2-102.4 51.2s-84.8 25.6-33.6-172.8c25.6-145.6 16-180.8 16-180.8z"/><path d="m710.8264 360s51.2-43.2 169.6 51.2 33.6 172.8 25.6 182.4c-8 8-41.6 51.2-59.2 43.2s-33.6-8-41.6-112c-9.6-104-94.4-104-94.4-164.8z"/><path d="m685.2264 307.2s92.8-35.2 126.4-43.2 102.4-60.8 144-43.2 33.6 78.4 25.6 104-8 96-25.6 104-67.2-68.8-126.4-78.4-152-16-144-43.2z"/></g></svg>