<svg height="200" viewBox="0 0 1024 1024" width="200" xmlns="http://www.w3.org/2000/svg"><path d="m565.248 699.1872v-159.9488c0-22.528 18.432-40.96 40.96-40.96h205.2096c-.6144-22.1184-18.6368-39.936-40.96-39.936h-204.1856c-22.528 0-40.96 18.432-40.96 40.96v159.9488c0 42.5984 22.1184 82.1248 58.368 104.448-11.8784-19.456-18.432-41.7792-18.432-64.512z" fill="#fff" opacity=".8"/><path d="m198.2464 468.7872h204.1856c22.528 0 40.96 18.432 40.96 40.96v159.9488c0 67.7888-55.0912 122.88-122.88 122.88h-40.3456c-67.7888 0-122.88-55.0912-122.88-122.88v-159.9488c0-22.528 18.432-40.96 40.96-40.96z" fill="#fd678c"/><path d="m178.3808 688.7424v-159.9488c0-22.528 18.432-40.96 40.96-40.96h204.1856c5.12 0 10.24 1.024 15.1552 2.8672-6.9632-13.5168-20.8896-22.1184-36.2496-22.1184h-204.1856c-22.528 0-40.96 18.432-40.96 40.96v159.9488c0 39.7312 19.456 77.0048 51.8144 99.9424-19.6608-22.3232-30.5152-50.9952-30.72-80.6912z" fill="#fff" opacity=".8"/><path d="m410.624 469.8112c2.6624 5.5296 3.8912 11.4688 3.8912 17.6128v159.9488c-.2048 67.7888-55.0912 122.6752-122.88 122.88h-40.3456c-24.1664 0-47.7184-7.168-67.7888-20.48 23.3472 26.624 56.9344 41.984 92.3648 41.984h40.3456c67.7888-.2048 122.6752-55.0912 122.88-122.88v-159.9488c.2048-17.8176-11.4688-33.5872-28.4672-39.1168z" fill="#ef2b84"/><path d="m577.7408 468.7872h204.1856c22.528 0 40.96 18.432 40.96 40.96v159.9488c0 67.7888-55.0912 122.88-122.88 122.88h-40.3456c-67.7888 0-122.88-55.0912-122.88-122.88v-159.9488c0-22.528 18.432-40.96 40.96-40.96z" fill="#fd678c"/><path d="m557.8752 688.7424v-159.9488c0-22.528 18.432-40.96 40.96-40.96h204.1856c5.12 0 10.24 1.024 15.1552 2.8672-6.9632-13.5168-20.8896-22.1184-36.2496-22.1184h-204.1856c-22.528 0-40.96 18.432-40.96 40.96v159.9488c0 39.7312 19.456 77.0048 51.8144 99.9424-19.6608-22.3232-30.5152-50.9952-30.72-80.6912z" fill="#fff" opacity=".8"/><path d="m794.4192 469.8112c2.6624 5.5296 3.8912 11.4688 3.8912 17.6128v159.9488c-.2048 67.7888-55.0912 122.6752-122.88 122.88h-40.3456c-24.1664 0-47.7184-7.168-67.7888-20.48 23.3472 26.624 56.9344 41.984 92.3648 41.984h40.3456c67.7888-.2048 122.6752-55.0912 122.88-122.88v-159.9488c.2048-17.8176-11.4688-33.5872-28.4672-39.1168z" fill="#ef2b84"/><path d="m602.3168 299.8272h153.3952c13.5168 0 24.576 11.0592 24.576 24.576v113.8688c0 13.5168-11.0592 24.576-24.576 24.576h-153.3952c-13.5168 0-24.576-11.0592-24.576-24.576v-113.8688c0-13.5168 11.0592-24.576 24.576-24.576z" fill="#fd678c"/><path d="m605.7984 461.0048v-113.8688c0-13.5168 11.0592-24.576 24.576-24.576h154.624c-3.4816-9.8304-12.6976-16.384-23.1424-16.384h-153.3952c-13.5168 0-24.576 11.0592-24.576 24.576v113.8688c0 13.1072 10.24 23.9616 23.3472 24.576-.8192-2.6624-1.4336-5.3248-1.4336-8.192z" fill="#fff" opacity=".8"/><path d="m756.736 294.2976c2.048 3.4816 3.072 7.5776 3.072 11.6736v113.8688c0 13.5168-11.0592 24.576-24.576 24.576h-153.3952l-5.12-.6144c4.3008 7.9872 12.4928 12.9024 21.504 12.9024h153.3952c13.5168 0 24.576-11.0592 24.576-24.576v-113.8688c0-11.6736-7.9872-21.504-19.456-23.9616z" fill="#ef2b84"/><path d="m624.0256 299.4176v-94.0032c0-4.096 2.048-7.7824 5.5296-9.8304l79.2576-49.152c13.5168-8.3968 31.5392.2048 32.5632 15.9744v137.0112" fill="#ff5788"/><path d="m732.9792 162.2016c-1.024-15.1552-17.6128-23.552-30.9248-16.7936 6.5536 3.072 10.8544 9.6256 11.4688 16.7936v137.0112h19.456v-135.3728c.2048-.6144.2048-1.024 0-1.6384z" fill="#ff2c7b"/><path d="m643.072 223.232c0-6.144 3.072-11.8784 8.3968-15.1552l76.3904-47.3088c3.072-1.8432 3.8912-5.7344 2.048-8.8064-.2048-.2048-.4096-.4096-.4096-.6144-6.7584-8.6016-19.0464-10.6496-28.2624-4.9152l-76.3904 47.3088c-5.3248 3.2768-8.3968 9.0112-8.3968 15.1552v84.1728c0 3.4816 2.8672 6.3488 6.3488 6.3488h13.9264c3.4816 0 6.3488-2.8672 6.3488-6.3488z" fill="#fff"/><g fill="#8c2f75"><path d="m314.368 798.1056h-40.3456c-73.3184 0-133.12-59.8016-133.12-133.12v-159.9488c0-28.2624 22.9376-51.2 51.2-51.2h204.1856c28.2624 0 51.2 22.9376 51.2 51.2v159.9488c0 73.3184-59.8016 133.12-133.12 133.12zm-122.2656-323.7888c-16.9984 0-30.72 13.7216-30.72 30.72v159.9488c0 62.0544 50.5856 112.64 112.64 112.64h40.3456c62.0544 0 112.64-50.5856 112.64-112.64v-159.9488c0-16.9984-13.7216-30.72-30.72-30.72zm504.4224 323.7888h-40.3456c-73.3184 0-133.12-59.8016-133.12-133.12v-159.9488c0-28.2624 22.9376-51.2 51.2-51.2h204.1856c28.2624 0 51.2 22.9376 51.2 51.2v159.9488c0 73.3184-59.8016 133.12-133.12 133.12zm-122.2656-323.7888c-16.9984 0-30.72 13.7216-30.72 30.72v159.9488c0 62.0544 50.5856 112.64 112.64 112.64h40.3456c62.0544 0 112.64-50.5856 112.64-112.64v-159.9488c0-16.9984-13.7216-30.72-30.72-30.72z"/><path d="m755.5072 474.112h-153.3952c-19.2512 0-34.816-15.5648-34.816-34.816v-113.8688c0-19.2512 15.5648-34.816 34.816-34.816h153.3952c19.2512 0 34.816 15.5648 34.816 34.816v113.8688c0 19.0464-15.7696 34.816-34.816 34.816zm-153.3952-163.0208c-7.9872 0-14.336 6.3488-14.336 14.336v113.8688c0 7.9872 6.3488 14.336 14.336 14.336h153.3952c7.9872 0 14.336-6.3488 14.336-14.336v-113.8688c0-7.9872-6.3488-14.336-14.336-14.336z"/><path d="m747.52 300.8512h-20.48v-136.8064c-.4096-4.9152-4.096-7.3728-5.5296-8.192-3.6864-1.8432-7.7824-1.6384-11.264.4096l-79.4624 49.3568c-.2048 0-.4096.2048-.4096 1.024v94.0032h-20.48v-93.7984c0-7.7824 3.8912-14.7456 10.4448-18.6368l79.2576-49.152c9.6256-5.9392 21.2992-6.3488 31.5392-1.2288 9.8304 4.9152 15.9744 14.5408 16.5888 25.1904v137.8304z"/></g></svg>