<svg height="200" viewBox="0 0 1024 1024" width="200" xmlns="http://www.w3.org/2000/svg"><path d="m685.2 820.5-11.6-2.5c-5.4-1.2-8.9-6.5-7.7-11.9l45.2-210.4 31.2 6.7-45.2 210.4c-1.1 5.4-6.5 8.9-11.9 7.7z" fill="#fff"/><path d="m683 830.7c-1.9 0-3.8-.2-5.6-.6l-.5-.1c-14.4-3.1-23.5-17.3-20.5-31.6l44-204.9c1.3-5.9 7.1-9.7 13-8.4l31.2 6.7c2.8.6 5.3 2.3 6.9 4.8 1.6 2.4 2.1 5.4 1.5 8.2l-44 204.9c-1.5 7-5.6 12.9-11.6 16.8-4.3 2.7-9.3 4.2-14.4 4.2zm36.6-222-41.7 194.2c-.5 2.6 1.1 5.1 3.6 5.6l.5.1c1.7.4 2.9-.3 3.6-.7.6-.4 1.7-1.3 2.1-3l41.7-194.2z" fill="#232323"/><path d="m76.6 244.4h463.5v533.8h-463.5z" fill="#ffe092"/><path d="m540.1 792.3h-463.5c-7.8 0-14.1-6.3-14.1-14.1v-533.8c0-7.8 6.3-14.1 14.1-14.1h463.5c7.8 0 14.1 6.3 14.1 14.1v533.8c0 7.8-6.4 14.1-14.1 14.1zm-449.5-28.1h435.4v-505.7h-435.4z" fill="#232323"/><path d="m76.6 220.1v-10.7l25.7-13.9 25.8 13.9 25.7-13.9 25.8 13.9 25.7-13.9 25.8 13.9 25.7-13.9 25.8 13.9 25.7-13.9 25.8 13.9 25.7-13.9 25.8 13.9 25.7-13.9 25.8 13.9 25.7-13.9 25.8 13.9 25.7-13.9 25.8 13.9v10.7" fill="#edf4fc"/><path d="m540.1 232.6c-6.9 0-12.5-5.6-12.5-12.5v-3.2l-13.2-7.2-19.8 10.7c-3.7 2-8.2 2-11.9 0l-19.8-10.7-19.9 10.8c-3.7 2-8.2 2-11.9 0l-19.8-10.7-19.8 10.7c-3.7 2-8.2 2-11.9 0l-19.8-10.7-19.8 10.7c-3.7 2-8.2 2-11.9 0l-19.8-10.7-19.8 10.7c-3.7 2-8.2 2-11.9 0l-19.8-10.7-19.8 10.7c-3.7 2-8.2 2-11.9 0l-19.8-10.7-19.8 10.7c-3.7 2-8.2 2-11.9 0l-19.8-10.7-19.8 10.7c-3.7 2-8.2 2-11.9 0l-19.8-10.7-13.2 7.2v3.2c0 6.9-5.6 12.5-12.5 12.5s-12.5-5.6-12.5-12.5v-10.7c0-4.6 2.5-8.8 6.6-11l25.8-13.9c3.7-2 8.2-2 11.9 0l19.8 10.7 19.8-10.7c3.7-2 8.2-2 11.9 0l19.8 10.7 19.8-10.7c3.7-2 8.2-2 11.9 0l19.8 10.7 19.8-10.7c3.7-2 8.2-2 11.9 0l19.8 10.7 19.8-10.7c3.7-2 8.2-2 11.9 0l19.8 10.7 19.8-10.7c3.7-2 8.2-2 11.9 0l19.8 10.7 19.8-10.7c3.7-2 8.2-2 11.9 0l19.8 10.7 19.8-10.7c3.7-2 8.2-2 11.9 0l19.8 10.7 19.8-10.7c3.7-2 8.2-2 11.9 0l25.7 13.9c4 2.2 6.6 6.4 6.6 11v10.7c-.1 6.8-5.7 12.4-12.6 12.4z" fill="#232323"/><path d="m76.6 803.9v10.7l25.7 13.9 25.8-13.9 25.7 13.9 25.8-13.9 25.7 13.9 25.8-13.9 25.7 13.9 25.8-13.9 25.7 13.9 25.8-13.9 25.7 13.9 25.8-13.9 25.7 13.9 25.8-13.9 25.7 13.9 25.8-13.9 25.7 13.9 25.8-13.9v-10.7" fill="#edf4fc"/><path d="m205.3 841c-2 0-4.1-.5-6-1.5l-19.8-10.7-19.8 10.7c-3.7 2-8.2 2-11.9 0l-19.8-10.7-19.8 10.7c-3.7 2-8.2 2-11.9 0l-25.8-13.9c-4-2.2-6.6-6.4-6.6-11v-10.7c0-6.9 5.6-12.5 12.5-12.5s12.5 5.6 12.5 12.5v3.2l13.2 7.2 19.8-10.7c3.7-2 8.2-2 11.9 0l19.8 10.7 19.8-10.7c3.7-2 8.2-2 11.9 0l19.8 10.7 19.8-10.7c3.7-2 8.2-2 11.9 0l19.8 10.7 19.8-10.7c3.7-2 8.2-2 11.9 0l19.8 10.7 19.8-10.7c3.7-2 8.2-2 11.9 0l19.8 10.7 19.8-10.7c3.7-2 8.2-2 11.9 0l19.8 10.7 19.8-10.7c3.7-2 8.2-2 11.9 0l19.8 10.7 19.8-10.7c3.7-2 8.2-2 11.9 0l19.8 10.7 13.2-7.2v-3.2c0-6.9 5.6-12.5 12.5-12.5s12.5 5.6 12.5 12.5v10.7c0 4.6-2.5 8.8-6.6 11l-25.7 13.9c-3.7 2-8.2 2-11.9 0l-19.8-10.7-19.8 10.7c-3.7 2-8.2 2-11.9 0l-19.8-10.7-19.8 10.7c-3.7 2-8.2 2-11.9 0l-19.8-10.7-19.8 10.7c-3.7 2-8.2 2-11.9 0l-19.8-10.7-19.8 10.7c-3.7 2-8.2 2-11.9 0l-19.8-10.7-19.8 10.7c-3.7 2-8.2 2-11.9 0l-19.8-10.7-19.8 10.7c-1.6 1-3.6 1.5-5.7 1.5z" fill="#232323"/><path d="m208.9 466.2c-4.4 7.1-11.3 13.5-20.6 19.9-12.1 8.3-23.7 11.1-36.8 8-13-3-25.5-11.2-37.4-25.1-12.7-14.7-19.3-30.2-17.9-46.6 1.4-16.3 10.7-30.3 27.7-40.3 10.5-6.2 20.5-9.7 29.5-11 4.7 7.2 9.3 14.4 13.8 21.6-9.5-.5-18.9 1.9-27.7 7-9.7 5.7-15.1 13.5-16.2 22.9-1.2 9.4 2.3 18.9 9.7 28.6 7.1 9.2 14.8 14.8 23.2 17.1s16.2.8 24-4.2c7.5-4.8 13.3-11 17.6-18.9 3.8 7.1 7.5 14.1 11.1 21zm89.4-29.7c-7.4 1.7-14.7 3.6-21.8 5.7-4.4-14.1-9.1-28.3-14.2-42.5-14.7 4-29 8.9-42.9 14.6 6.6 14 12.9 28 18.8 42-6.7 3-13.3 6.1-19.8 9.5-16.4-34-35.2-67.9-56.2-101.3 8.5-3.9 17.1-7.6 25.9-11 7.6 13.6 14.8 27.2 21.7 40.9 14.6-5.8 29.7-10.8 45.1-14.9-5.4-13.9-11.1-27.8-17.2-41.7 9.2-2.3 18.5-4.4 27.9-6.1 13 35 24 70 32.7 104.8zm36.8-6.2c-7.6.8-15.2 1.9-22.7 3.3-7.5-34.7-17.1-69.7-29-105 9.5-1.4 19-2.4 28.6-3.1 9.9 35.3 17.6 70.3 23.1 104.8zm34.6-37.4c1.3 11.9 2.4 23.7 3.2 35.4-7.8 0-15.6.3-23.3.8-4.3-34.3-10.7-69.2-19.3-104.6 15.2-.5 30.5-.3 45.8.7 33.1 2.4 50.6 17.4 50.9 38.9.3 10.3-4.1 17.7-12.4 22.8s-19.1 7.1-32.8 6.4c-4.1-.2-8.1-.3-12.1-.4zm-7-50.3c1.8 10.9 3.4 21.8 4.8 32.6 3.5.1 6.9.2 10.4.4 14.1.7 20.9-3.8 20-14.7-.8-10.6-9-17-24.2-17.8-3.6-.2-7.3-.4-11-.5zm65.2 86.3c.4-7.3.7-14.7.9-22.1 4.5 4.2 9.2 7.6 14.4 10.3 5.1 2.8 10.3 4.8 15.6 6.1 3.1.8 5.9 1.3 8.3 1.4 2.4.2 4.4 0 6.1-.4s3-1.1 3.9-2 1.5-2.1 1.7-3.5c.3-1.9-.1-3.7-1.2-5.6s-2.6-3.8-4.7-5.7-4.6-3.9-7.5-5.9c-3-2-6.2-4.1-9.7-6.2-8.9-5.5-15.7-10.8-20.2-16.5-4.6-5.6-7-11.8-7.2-18.6-.2-5.3 1-9.7 3.5-13s6.1-5.8 10.7-7.3 10-2 16.2-1.6 12.8 1.7 19.7 3.8c6.8 2.1 12.8 4.4 17.9 6.8 5.2 2.5 9.9 5.2 14.1 8.2-.7 6.9-1.5 13.7-2.3 20.4-1.9-1.9-4.1-3.8-6.4-5.6-2.4-1.8-4.8-3.4-7.4-4.9s-5.1-2.8-7.7-3.9-5-2.1-7.4-2.8c-3.2-1-6.2-1.6-8.8-1.9-2.7-.3-4.9-.2-6.7.2s-3.3 1.1-4.3 2.1-1.5 2.3-1.6 3.8c-.1 1.7.5 3.3 1.5 4.9s2.5 3.3 4.4 5 4.3 3.5 7 5.5c2.7 1.9 5.8 4 9.2 6.3 4.6 3.1 8.7 6.3 12.2 9.4s6.4 6.3 8.7 9.6 3.9 6.6 4.7 10c.9 3.4.9 7 .2 10.8-1 5.2-3.1 9.1-6.1 11.7s-6.7 4.3-11 5.2c-4.3.8-9.1.9-14.3.4-5.3-.6-10.7-1.6-16.4-3-5.8-1.5-11.3-3.1-16.5-5.1-5.3-1.7-9.7-3.9-13.5-6.3z" fill="#ea3934"/><path d="m296.4 707.9s-100.9-38.2-88-118.9 120.5-101.6 187.7-71.3 71.9 65.3 71.9 65.3-115.5 38.7-171.6 124.9z" fill="#efe627"/><path d="m296.4 718.8c-1.3 0-2.6-.2-3.9-.7-1.1-.4-27.2-10.4-52-31-34-28.3-48.9-62.8-43-99.9 5.2-32.5 24.4-58.6 55.5-75.3 42.7-23 102-24.7 147.5-4.2 70.7 31.9 77.7 69.6 78.3 73.8.7 5.2-2.4 10.2-7.4 11.9-1.1.4-112.6 38.6-165.9 120.5-1.9 3.1-5.4 4.9-9.1 4.9zm34.7-203.4c-24.1 0-48.2 5.3-67.6 15.8-17.3 9.3-39.1 27.3-44.3 59.5-9.4 58.4 51.2 93 73.3 103.5 48.9-68.8 131.8-106 161.3-117.6-5.9-10.8-21.6-30.5-62.2-48.9-18.2-8.2-39.4-12.3-60.5-12.3z" fill="#232323"/><path d="m296.4 707.9s-32.4-93.7 26.2-133.1 145.4 8.2 145.4 8.2-115.5 38.7-171.6 124.9z" fill="#ee9426"/><path d="m296.4 718.8c-.4 0-.9 0-1.3-.1-4.2-.5-7.7-3.3-9-7.3-1.4-4.1-34.4-102.1 30.4-145.8 63.4-42.7 153 5.6 156.8 7.7s6 6.2 5.6 10.6-3.3 8-7.4 9.4c-1.1.4-112.6 38.6-165.9 120.5-2 3.2-5.5 5-9.2 5zm82-148.7c-17.2 0-34.6 3.6-49.7 13.7-34.8 23.4-32.4 70.7-27.3 98.5 42.6-52.8 104.2-85 138.2-100-15.9-5.8-38.4-12.2-61.2-12.2z" fill="#232323"/><path d="m586.8 424a179.5 179.5 0 1 0 359 0 179.5 179.5 0 1 0 -359 0z" fill="#ffd2d2"/><path d="m766.7 619.2c-13.8 0-27.6-1.5-41.4-4.4-105.2-22.6-172.4-126.6-149.8-231.8s126.6-172.4 231.8-149.8c51 10.9 94.6 41.1 122.9 84.9s37.9 95.9 26.9 146.9c-10.9 51-41.1 94.6-84.9 122.9-31.9 20.6-68.3 31.3-105.5 31.3zm-.4-359.1c-75.5 0-143.7 52.7-160.2 129.5-19 88.3 37.5 175.6 125.8 194.6 42.8 9.2 86.6 1.2 123.3-22.6 36.8-23.8 62.1-60.4 71.2-103.2 9.2-42.8 1.2-86.6-22.6-123.3-23.8-36.8-60.4-62.1-103.2-71.2-11.4-2.6-23-3.8-34.3-3.8z" fill="#232323"/><path d="m777.7 554.3h-1.4c-2.1 0-4.3-.1-6.4-.2s-4.3-.3-6.4-.6c-2.1-.2-4.3-.5-6.4-.9-2.1-.3-4.3-.7-6.4-1.2h-.2c-2.1-.5-52.4-12.5-81.6-56.2-21.6-32.4-50.5-99.1-1.3-182.4 3.5-6 11.2-7.9 17.1-4.4 6 3.5 7.9 11.2 4.4 17.1-40.1 68-21.9 122.2.5 155.8 23.1 34.6 64.4 45.2 66.3 45.6 1.7.4 3.4.7 5 .9 1.7.3 3.5.5 5.2.7s3.5.3 5.2.4 3.5.2 5.2.2 3.5 0 5.2-.1l5.1-.3c1.7-.2 3.4-.3 5.1-.6 1.7-.2 3.4-.5 5-.8 1.7-.3 3.3-.7 5-1.1 1.6-.4 3.3-.8 4.9-1.3s3.2-1 4.8-1.6 3.2-1.2 4.7-1.8 3.1-1.3 4.6-2 3-1.5 4.4-2.2c1.5-.8 2.9-1.6 4.3-2.4s2.8-1.7 4.2-2.7c1.3-.9 2.7-1.9 4-2.9l3.9-3c1.3-1 2.5-2.1 3.7-3.2s2.4-2.2 3.5-3.4c1.1-1.1 2.2-2.3 3.3-3.5s2.1-2.4 3.1-3.7c1-1.2 2-2.5 2.9-3.8s1.9-2.6 2.7-3.9c.9-1.3 1.7-2.7 2.5-4.1s1.6-2.8 2.3-4.2l2.1-4.2c.6-1.4 1.3-2.9 1.8-4.3.6-1.4 1.1-2.9 1.6-4.4s1-3 1.4-4.4l1.2-4.5c.3-1.5.7-3 .9-4.5.3-1.5.5-3 .7-4.5s.3-3.1.5-4.6c.1-1.5.2-3.1.2-4.6v-4.5c0-1.5-.1-3-.2-4.5s-.3-3-.5-4.5-.4-3-.7-4.4-.6-2.9-.9-4.4c-.3-1.4-.7-2.9-1.1-4.3s-.8-2.8-1.3-4.2-1-2.8-1.5-4.1c-.5-1.4-1.1-2.7-1.7-4s-1.2-2.6-1.9-3.9-1.4-2.6-2.1-3.8c-.7-1.3-1.5-2.5-2.3-3.7s-1.6-2.4-2.4-3.5-1.7-2.3-2.6-3.4-1.8-2.2-2.8-3.2c-.9-1-1.9-2.1-2.9-3.1s-2-2-3-2.9-2.1-1.9-3.2-2.8-2.2-1.8-3.3-2.6-2.2-1.6-3.4-2.4c-1.1-.8-2.3-1.5-3.5-2.2s-2.4-1.4-3.6-2-2.4-1.3-3.7-1.8c-1.2-.6-2.5-1.1-3.7-1.6s-2.5-1-3.8-1.4-2.6-.9-3.8-1.2c-1.3-.4-2.6-.7-3.9-1s-2.6-.6-3.9-.8-2.6-.5-3.9-.6c-1.3-.2-2.6-.3-3.9-.4s-2.6-.2-3.9-.2-2.6-.1-3.9 0c-1.3 0-2.6.1-3.9.2l-3.9.3c-1.3.1-2.6.3-3.8.5-1.3.2-2.5.5-3.8.7-1.2.3-2.5.6-3.7.9s-2.4.7-3.6 1.1-2.4.8-3.6 1.3c-1.2.4-2.3.9-3.5 1.4s-2.3 1-3.4 1.6-2.2 1.1-3.3 1.8c-1.1.6-2.1 1.2-3.2 1.9-1 .7-2 1.3-3 2.1-1 .7-2 1.4-2.9 2.2-1 .8-1.9 1.5-2.8 2.3s-1.8 1.6-2.7 2.5c-.9.8-1.7 1.7-2.5 2.6l-2.4 2.7c-.8.9-1.5 1.8-2.2 2.8-.7.9-1.4 1.9-2.1 2.9s-1.3 2-1.9 2.9c-.6 1-1.2 2-1.7 3-.6 1-1.1 2-1.6 3.1-.5 1-1 2.1-1.4 3.2s-.9 2.1-1.3 3.2-.8 2.2-1.1 3.2l-.9 3.3c-.3 1.1-.5 2.2-.7 3.3l-.6 3.3c-.2 1.1-.3 2.2-.4 3.3s-.2 2.2-.2 3.3-.1 2.2-.1 3.3 0 2.2.1 3.3.2 2.2.3 3.2c.1 1.1.3 2.1.4 3.2.2 1.1.4 2.1.6 3.2.2 1 .5 2.1.7 3.1.3 1 .6 2 .9 3.1.3 1 .7 2 1 3 .4 1 .8 2 1.2 2.9.4 1 .8 1.9 1.3 2.8s.9 1.8 1.4 2.7 1 1.8 1.6 2.6c.5.9 1.1 1.7 1.7 2.5l1.8 2.4c.6.8 1.3 1.6 1.9 2.3.6.8 1.3 1.5 2 2.2l2.1 2.1c.7.7 1.5 1.3 2.2 2 .7.6 1.5 1.2 2.3 1.8s1.6 1.2 2.4 1.7c.8.6 1.6 1.1 2.4 1.6s1.6 1 2.5 1.4c.8.5 1.7.9 2.5 1.3.9.4 1.7.8 2.6 1.2s1.7.7 2.6 1 1.8.6 2.6.9c.9.3 1.8.5 2.7.8l2.7.6c.9.2 1.8.3 2.7.5l2.7.3c1.8.2 3.5.3 5.4.3 1.8 0 3.5-.1 5.3-.3 1.7-.2 3.5-.5 5.1-.8 1.7-.4 3.3-.8 5-1.3 1.6-.5 3.2-1.1 4.7-1.8s3-1.4 4.4-2.2 2.8-1.7 4.1-2.6 2.6-1.9 3.8-3c1.2-1 2.3-2.1 3.4-3.3 1.1-1.1 2.1-2.3 3-3.5s1.8-2.5 2.6-3.7c.8-1.3 1.5-2.6 2.2-3.9.6-1.3 1.2-2.7 1.7-4 .5-1.4.9-2.7 1.3-4.1.3-1.4.6-2.8.8-4.1.2-1.4.3-2.8.4-4.1.1-1.4 0-2.7 0-4.1-.1-1.3-.2-2.7-.4-4s-.5-2.6-.8-3.8-.7-2.5-1.2-3.7-1-2.3-1.5-3.4c-.6-1.1-1.2-2.2-1.8-3.2-.7-1-1.4-2-2.1-2.9s-1.5-1.8-2.3-2.6-1.7-1.6-2.5-2.3c-.9-.7-1.8-1.4-2.7-2s-1.8-1.2-2.8-1.7-1.9-.9-2.9-1.3-2-.7-2.9-1c-1-.3-2-.5-2.9-.7-1-.2-1.9-.3-2.9-.3-1.5-.1-2.9-.1-4.3 0s-2.7.3-4 .7c-1.3.3-2.5.7-3.7 1.2s-2.3 1-3.3 1.7c-1 .6-2 1.3-2.9 2.1-.9.7-1.6 1.5-2.3 2.4-.7.8-1.3 1.7-1.8 2.6s-1 1.7-1.3 2.6c-.4.9-.6 1.8-.8 2.7s-.3 1.7-.4 2.5 0 1.7 0 2.4c.1.7.2 1.5.4 2.1.2.7.4 1.3.7 2 .3.6.5 1.1.8 1.6s.7.9 1.1 1.4c.3.3.7.7 1 .9.7.5 1.5 1 2.2 1.2s1.1.3 1.4.3c1.1-5.5 5.7-9.7 11.5-10.1 6.9-.4 12.8 4.8 13.3 11.7.2 3-.4 6.1-1.6 9-1.1 2.6-2.8 5-4.9 7.2-2.2 2.2-4.9 4-8 5.2-2.9 1.2-6.1 1.9-9.4 2-3.4.1-6.8-.4-10.2-1.5-3.3-1.1-6.5-2.8-9.4-5-1.5-1.1-2.9-2.4-4.2-3.9-1.3-1.4-2.5-2.9-3.5-4.5-1.1-1.6-2.1-3.4-2.9-5.3-.8-1.8-1.5-3.7-2-5.7s-.9-4.1-1.1-6.2-.2-4.2-.1-6.4.5-4.4 1-6.6c.5-2.1 1.2-4.3 2-6.4.9-2.1 1.9-4.2 3.1-6.2s2.6-3.9 4.1-5.7 3.3-3.6 5.1-5.2c1.9-1.6 3.9-3.1 6-4.4s4.4-2.5 6.8-3.5 4.9-1.8 7.4-2.4 5.2-1.1 7.9-1.3 5.4-.3 8.1-.1c1.8.1 3.7.3 5.5.7 1.8.3 3.7.7 5.4 1.2 1.8.5 3.6 1.1 5.4 1.8s3.5 1.5 5.2 2.4 3.4 1.9 5 3 3.2 2.3 4.7 3.5c1.5 1.3 3 2.6 4.4 4a56 56 0 0 1 4 4.5c1.3 1.6 2.5 3.3 3.6 5s2.2 3.5 3.1 5.4 1.8 3.8 2.6 5.8 1.4 4 2 6.1c.6 2 1 4.2 1.4 6.3s.6 4.3.7 6.5.2 4.4.1 6.6-.3 4.5-.6 6.7-.8 4.5-1.3 6.7c-.6 2.2-1.2 4.4-2 6.6-.8 2.1-1.7 4.3-2.7 6.4s-2.1 4.2-3.4 6.2c-1.2 2-2.6 4-4 5.9s-3 3.7-4.6 5.5-3.4 3.4-5.2 5-3.8 3.1-5.8 4.5-4.1 2.7-6.3 4c-2.2 1.2-4.4 2.3-6.7 3.3s-4.7 1.9-7.1 2.7-4.9 1.4-7.4 1.9-5.1.9-7.6 1.2c-2.6.3-5.2.4-7.8.4s-5.3-.1-7.9-.4c-1.3-.1-2.6-.3-3.9-.5s-2.6-.4-3.9-.7l-3.9-.9c-1.3-.3-2.6-.7-3.9-1.1s-2.6-.8-3.9-1.3-2.5-1-3.8-1.5-2.5-1.1-3.7-1.7-2.5-1.2-3.7-1.9l-3.6-2.1c-1.2-.7-2.4-1.5-3.5-2.3s-2.3-1.6-3.4-2.5c-1.1-.8-2.2-1.7-3.3-2.6s-2.1-1.8-3.1-2.8l-3-3c-1-1-1.9-2.1-2.9-3.1l-2.7-3.3c-.9-1.1-1.7-2.3-2.6-3.4l-2.4-3.6c-.8-1.2-1.5-2.5-2.2-3.7-.7-1.3-1.4-2.6-2-3.9-.7-1.3-1.3-2.7-1.9-4s-1.1-2.7-1.6-4.1-1-2.8-1.4-4.2c-.5-1.4-.9-2.9-1.2-4.3-.4-1.4-.7-2.9-1-4.3s-.6-2.9-.8-4.4l-.6-4.5c-.2-1.5-.3-3-.4-4.5s-.1-3-.1-4.5 0-3.1.1-4.6.2-3 .3-4.6c.1-1.5.3-3.1.6-4.6.2-1.5.5-3 .8-4.6.3-1.5.6-3.1 1-4.5.4-1.5.8-3 1.3-4.5s1-3 1.5-4.4c.5-1.5 1.1-2.9 1.7-4.4.6-1.4 1.3-2.9 1.9-4.3.7-1.4 1.4-2.8 2.2-4.2s1.6-2.8 2.4-4.1 1.7-2.7 2.6-4 1.8-2.6 2.8-3.9 2-2.5 3-3.8c1-1.2 2.1-2.4 3.2-3.6s2.2-2.3 3.4-3.5c1.1-1.1 2.4-2.2 3.6-3.3s2.5-2.1 3.8-3.1 2.6-2 3.9-2.9c1.3-1 2.7-1.9 4.1-2.8s2.8-1.7 4.2-2.6c1.4-.8 2.9-1.6 4.4-2.4 1.5-.7 3-1.5 4.5-2.1 1.5-.7 3.1-1.3 4.6-1.9s3.1-1.2 4.7-1.7l4.8-1.5c1.6-.4 3.3-.9 4.9-1.2 1.6-.4 3.3-.7 5-1s3.4-.5 5.1-.7 3.4-.4 5.1-.5 3.4-.2 5.2-.2c1.7 0 3.5 0 5.2.1s3.4.2 5.2.3c1.7.1 3.5.3 5.2.6 1.7.2 3.5.5 5.2.8s3.4.7 5.1 1.1 3.4.9 5.1 1.4 3.4 1 5 1.6c1.7.6 3.3 1.2 5 1.9s3.3 1.4 4.9 2.1l4.8 2.4c1.6.8 3.1 1.7 4.7 2.6 1.5.9 3.1 1.9 4.6 2.9s3 2.1 4.4 3.1c1.4 1.1 2.9 2.2 4.3 3.4s2.8 2.4 4.1 3.6 2.7 2.5 3.9 3.8c1.3 1.3 2.6 2.6 3.8 4l3.6 4.2c1.2 1.4 2.3 2.9 3.4 4.4s2.2 3 3.2 4.6c1 1.5 2 3.1 2.9 4.7s1.8 3.2 2.7 4.9 1.7 3.4 2.5 5.1 1.5 3.4 2.2 5.2c.7 1.7 1.3 3.5 1.9 5.3s1.2 3.6 1.7 5.4 1 3.7 1.4 5.5c.4 1.9.8 3.8 1.1 5.6l.9 5.7.6 5.7c.1 1.9.2 3.9.3 5.8s.1 3.9 0 5.8c0 1.9-.1 3.9-.3 5.8-.1 1.9-.3 3.9-.6 5.8-.2 1.9-.5 3.9-.9 5.8-.3 1.9-.7 3.9-1.2 5.8-.4 1.9-.9 3.8-1.5 5.7-.5 1.9-1.1 3.8-1.8 5.6-.6 1.9-1.3 3.7-2 5.6s-1.5 3.7-2.3 5.5-1.7 3.6-2.6 5.4-1.9 3.5-2.9 5.3c-1 1.7-2.1 3.4-3.2 5.1s-2.2 3.3-3.4 5c-1.2 1.6-2.4 3.3-3.7 4.8-1.3 1.6-2.6 3.1-3.9 4.6l-4.2 4.5c-1.4 1.4-2.9 2.9-4.4 4.2-1.5 1.4-3.1 2.7-4.6 4-1.6 1.3-3.2 2.6-4.8 3.8-1.7 1.2-3.4 2.4-5 3.6-1.7 1.1-3.5 2.3-5.2 3.3-1.8 1.1-3.6 2.1-5.4 3.1s-3.7 1.9-5.6 2.8-3.8 1.7-5.7 2.5-3.9 1.5-5.9 2.2-4 1.4-6 2-4.1 1.2-6.1 1.7-4.1 1-6.2 1.4-4.2.7-6.3 1-4.2.5-6.3.7-4.3.3-6.4.4c-2.2-.2-3.9-.2-5.6-.2z" fill="#ff7b7b"/><path d="m766.7 614.5c-13.4 0-26.9-1.4-40.4-4.3-102.6-22.1-168.2-123.6-146.2-226.2 22.1-102.7 123.5-168.3 226.2-146.2 49.7 10.7 92.3 40.1 119.9 82.8s36.9 93.6 26.3 143.4c-10.7 49.7-40.1 92.3-82.8 119.9-31.2 20.2-66.7 30.6-103 30.6zm-.4-359.1c-77.7 0-147.8 54.2-164.7 133.2-19.5 90.9 38.5 180.7 129.4 200.2 44 9.5 89.1 1.2 126.9-23.2s63.8-62.1 73.3-106.1 1.2-89.1-23.2-126.9-62.1-63.8-106.1-73.3c-12.1-2.7-23.9-3.9-35.6-3.9z" fill="#232323"/></svg>