<svg height="128" viewBox="0 0 1024 1024" width="128" xmlns="http://www.w3.org/2000/svg"><path d="m821.653333 633.813333-245.12 283.52a85.333333 85.333333 0 0 1 -129.066666.064l-248.832-287.445333c-1.152-1.322667-2.133333-2.773333-2.88-4.266667a361.088 361.088 0 0 1 -46.421334-177.685333c0-200.298667 162.368-362.666667 362.666667-362.666667s362.666667 162.368 362.666667 362.666667c0 63.744-16.490667 125.162667-47.381334 179.370667a21.269333 21.269333 0 0 1 -5.632 6.421333zm-29.333333-31.36a318.442667 318.442667 0 0 0 39.68-154.453333c0-176.725333-143.274667-320-320-320s-320 143.274667-320 320c0 55.317333 14.037333 108.522667 40.384 155.733333l247.317333 285.738667a42.666667 42.666667 0 0 0 64.554667-.021333zm-280.32-5.12a149.333333 149.333333 0 1 1 0-298.666666 149.333333 149.333333 0 0 1 0 298.666666zm0-42.666666a106.666667 106.666667 0 1 0 0-213.333334 106.666667 106.666667 0 0 0 0 213.333334z"/></svg>