<svg height="128" viewBox="0 0 1024 1024" width="128" xmlns="http://www.w3.org/2000/svg"><path d="m512 508c-59.3 0-115.05-23.09-156.98-65.02s-65.02-97.68-65.02-156.98 23.09-115.05 65.02-156.98 97.68-65.02 156.98-65.02 115.05 23.09 156.98 65.02 65.02 97.68 65.02 156.98-23.09 115.05-65.02 156.98-97.68 65.02-156.98 65.02zm0-380c-87.12 0-158 70.88-158 158s70.88 158 158 158 158-70.88 158-158-70.88-158-158-158zm266 832h-681.99c-8.53 0-16.71-3.41-22.72-9.46a31.992 31.992 0 0 1 -9.28-22.8c.46-56.5 12.75-111.25 36.52-162.74 22.89-49.58 55.41-94.04 96.66-132.14 41.1-37.96 88.85-67.75 141.92-88.52 54.81-21.46 112.98-32.34 172.89-32.34 39.95 0 90.08 6.67 130.81 17.41 70.22 18.52 131.68 52.95 182.68 102.33 12.7 12.29 13.02 32.55.73 45.25s-32.55 13.02-45.25.73c-43.02-41.66-94.99-70.74-154.47-86.42-35.25-9.3-80.19-15.3-114.5-15.3-198.39 0-363 140.82-382.14 320h648.14c17.67 0 32 14.33 32 32s-14.33 32-32 32z"/><path d="m512.01 895.54-104.44-123.43 104.45-196.22 104.42 196.22zm-27.56-131.65 27.56 32.57 27.56-32.57-27.56-51.78z"/><path d="m840 704a60 60 0 1 0 120 0 60 60 0 1 0 -120 0z"/><path d="m840 900a60 60 0 1 0 120 0 60 60 0 1 0 -120 0z"/><path d="m678 802a60 60 0 1 0 120 0 60 60 0 1 0 -120 0z"/><path d="m899.98 925c-4.41 0-8.87-1.17-12.92-3.61l-162-98c-7.49-4.53-12.06-12.64-12.06-21.39s4.57-16.86 12.06-21.39l162-98c11.81-7.15 27.18-3.36 34.33 8.45s3.36 27.18-8.45 34.33l-126.64 76.61 126.64 76.61c11.81 7.15 15.6 22.52 8.45 34.33-4.7 7.77-12.95 12.06-21.41 12.06z"/></svg>