<svg height="128" viewBox="0 0 1024 1024" width="128" xmlns="http://www.w3.org/2000/svg"><path d="m264.533333 341.333333a25.6 25.6 0 1 1 0-51.2h392.533334a25.6 25.6 0 1 1 0 51.2zm520.021334 442.811734a204.117333 204.117333 0 0 0 68.778666-152.6784c0-60.416-26.487467-114.688-68.266666-152.234667a204.458667 204.458667 0 0 0 -51.2-33.6896 203.3664 203.3664 0 0 0 -85.333334-18.875733 204.1856 204.1856 0 0 0 -181.828266 110.933333 203.093333 203.093333 0 0 0 -22.971734 93.866667c0 17.7152 2.491733 34.816 6.724267 51.2a204.8 204.8 0 0 0 198.075733 153.6c17.339733 0 34.065067-2.389333 50.107734-6.4512a204.117333 204.117333 0 0 0 85.947733-45.6704zm-534.493867 52.1216h245.521067a257.467733 257.467733 0 0 1 -81.544534-102.4h-149.504a25.6 25.6 0 0 1 0-51.2h133.154134a254.020267 254.020267 0 0 1 12.9024-145.066667h-146.056534a25.6 25.6 0 0 1 0-51.2h173.329067a255.7952 255.7952 0 0 1 210.670933-110.933333c29.934933 0 58.606933 5.461333 85.333334 14.9504v-140.356267a62.395733 62.395733 0 0 0 -62.327467-62.327467h-421.4784a62.395733 62.395733 0 0 0 -62.327467 62.327467v523.8784c0 34.372267 27.989333 62.327467 62.327467 62.327467zm535.005867-420.9664c71.68 45.397333 119.466667 125.2352 119.466666 216.1664 0 117.418667-79.530667 216.3712-187.528533 246.442666-13.9264 6.109867-29.2864 9.557333-45.4656 9.557334h-421.4784a113.664 113.664 0 0 1 -113.527467-113.527467v-523.8784a113.664 113.664 0 0 1 113.527467-113.527467h421.4784a113.664 113.664 0 0 1 113.527467 113.527467v165.205333zm-42.666667 199.099733a25.6 25.6 0 1 1 0 51.2h-102.4a25.6 25.6 0 0 1 -25.6-25.6v-119.466667a25.6 25.6 0 1 1 51.2 0v93.866667z"/></svg>