<svg height="128" viewBox="0 0 1024 1024" width="128" xmlns="http://www.w3.org/2000/svg"><g fill="#4a576a"><path d="m784 128h-544c-88 0-160 72-160 160v448c0 88 72 160 160 160h544c88 0 160-72 160-160v-448c0-88-72-160-160-160zm96 480h-288c-52.8 0-96-43.2-96-96s43.2-96 96-96h288zm-288-256c-88 0-160 72-160 160s72 160 160 160h288v64c0 52.8-43.2 96-96 96h-544c-52.8 0-96-43.2-96-96v-448c0-52.8 43.2-96 96-96h544c52.8 0 96 43.2 96 96v64z"/><path d="m560 512a32 32 0 1 0 64 0 32 32 0 1 0 -64 0z"/></g></svg>