<svg height="128" viewBox="0 0 1024 1024" width="128" xmlns="http://www.w3.org/2000/svg"><path d="m795.613353 1008.473791c-5.910055 0-11.826191-1.487548-17.170661-4.456563l-267.047144-148.134507-267.612728 147.207678c-11.859031 6.557132-26.449897 5.702066-37.501298-2.123679-11.079376-7.825744-16.709679-21.318281-14.519103-34.669726l51.878092-315.096291-217.392467-223.630925c-9.135711-9.416679-12.362584-23.157344-8.247804-35.624531 4.067344-12.500027 14.729525-21.703852 27.685669-23.935783l171.609308-29.424994c19.513276-3.259713 37.610766 9.66359 40.90332 28.929955 3.292554 19.2615-9.635615 37.577926-28.93482 40.90332l-105.315497 18.054919 182.973301 188.214384c7.83061 8.082386 11.370074 19.375833 9.565069 30.422369l-42.956453 260.81355 220.90274-121.53622c10.657316-5.88208 23.618325-5.88208 34.244018.066897l220.408918 122.244113-42.072195-260.918153c-1.806222-11.084241 1.803789-22.377688 9.635615-30.383447l182.226485-186.196523-249.726876-38.53273c-11.683883-1.80014-21.671012-9.307211-26.698025-20.007098l-109.776926-235.027759-110.736595 234.429334c-8.357272 17.703405-29.461483 25.248182-47.169754 16.89091-17.669349-8.357272-25.243317-29.457834-16.889693-47.166105l142.923831-302.604778c5.872349-12.390559 18.339536-20.28685 32.010871-20.28685h.070546c13.740664.037706 26.207851 8.000893 32.01452 20.429158l133.679868 286.204041 299.158969 46.182109c13.147105 2.014211 24.017275 11.222901 28.222062 23.794691 4.185326 12.566924.959669 26.488819-8.281861 35.938339l-217.927645 222.674906 50.813821 315.243464c2.161385 13.384285-3.5346 26.839117-14.620057 34.632021-6.057228 4.356826-13.17508 6.475639-20.330637 6.475639v.004865zm0 0"/></svg>