<svg height="128" viewBox="0 0 1024 1024" width="128" xmlns="http://www.w3.org/2000/svg"><path d="m873.6 275.2c-16 0-25.6 12.8-25.6 25.6v550.4c0 28.8-22.4 51.2-51.2 51.2h-643.2c-28.8 0-51.2-22.4-51.2-51.2v-646.4c0-28.8 22.4-51.2 51.2-51.2h521.6c16 0 25.6-12.8 25.6-25.6s-12.8-25.6-25.6-25.6h-521.6c-57.6 0-105.6 48-105.6 102.4v646.4c0 57.6 48 102.4 105.6 102.4h643.2c57.6 0 105.6-44.8 105.6-102.4v-550.4c-3.2-16-12.8-25.6-28.8-25.6z"/><path d="m483.2 361.6h-278.4c-16 0-25.6 12.8-25.6 25.6s12.8 25.6 25.6 25.6h278.4c16 0 25.6-12.8 25.6-25.6 0-16-12.8-25.6-25.6-25.6z"/><path d="m179.2 566.4c0 12.8 12.8 25.6 25.6 25.6h460.8c16 0 25.6-12.8 25.6-25.6s-12.8-25.6-25.6-25.6h-460.8c-12.8 0-25.6 12.8-25.6 25.6z"/><path d="m969.6 57.6c-9.6-9.6-25.6-9.6-38.4 0l-326.4 323.2c-9.6 9.6-9.6 25.6 0 35.2s25.6 9.6 38.4 0l326.4-323.2c9.6-9.6 9.6-25.6 0-35.2z"/></svg>